<?xml version="1.0" standalone="no"?>
<!DOCTYPE svg PUBLIC "-//W3C//DTD SVG 1.1//EN" "http://www.w3.org/Graphics/SVG/1.1/DTD/svg11.dtd" >
<svg>
<metadata>
Created by FontForge 20090622 at Mon Mar 27 15:24:39 2017
 By deploy user
Copyright (c) Mark Simonson, 2005. All rights reserved.
</metadata>
<defs>
<font id="ProximaNovaCond-LightIt" horiz-adv-x="469" >
  <font-face 
    font-family="Proxima Nova Cn Lt"
    font-weight="300"
    font-style="italic"
    font-stretch="normal"
    units-per-em="1000"
    panose-1="2 0 5 6 3 0 0 2 0 4"
    ascent="790"
    descent="-210"
    x-height="483"
    cap-height="667"
    bbox="-190 -258 918 886"
    underline-thickness="20"
    underline-position="-113"
    unicode-range="U+000D-U+FB04"
  />
<missing-glyph horiz-adv-x="501" 
d="M446 -90h-351v842h351v-842zM414 -60v782h-288v-782h288z" />
    <glyph glyph-name="f_f_j" unicode="ffj" horiz-adv-x="670" 
d="M322 0h-51l97 438h-64l10 45h64l15 69q27 125 127 125q35 0 60 -16l-22 -39q-15 11 -37 11q-60 0 -77 -81l-15 -69h83l-10 -45h-83zM412 -196q-59 0 -84 39l31 34q15 -29 49 -29q52 0 70 79l124 556h50l-123 -556q-15 -65 -42.5 -94t-74.5 -29zM647 559q-15 0 -25 10.5
t-10 24.5q0 18 14 30.5t30 12.5q15 0 25.5 -10t10.5 -24q0 -19 -14 -31.5t-31 -12.5zM83 0h-51l97 438h-64l10 45h64l15 69q27 125 127 125q50 0 80 -33l-30 -35q-18 24 -49 24q-60 0 -77 -81l-15 -69h83l-10 -45h-83z" />
    <glyph glyph-name="f_j" unicode="fj" horiz-adv-x="431" 
d="M83 0h-51l97 438h-64l10 45h64l15 69q27 125 127 125q35 0 60 -16l-22 -39q-15 11 -37 11q-60 0 -77 -81l-15 -69h83l-10 -45h-83zM173 -196q-59 0 -84 39l31 34q15 -29 49 -29q52 0 70 79l124 556h50l-123 -556q-15 -65 -42.5 -94t-74.5 -29zM408 559q-15 0 -25 10.5
t-10 24.5q0 18 14 30.5t30 12.5q15 0 25.5 -10t10.5 -24q0 -19 -14 -31.5t-31 -12.5z" />
    <glyph glyph-name="f_f" unicode="ff" horiz-adv-x="478" 
d="M83 0h-51l97 438h-64l10 45h64l15 69q27 125 127 125q50 0 80 -33l-30 -35q-18 24 -49 24q-60 0 -77 -81l-15 -69h83l-10 -45h-83zM322 0h-51l97 438h-64l10 45h64l15 69q27 125 127 125q50 0 80 -33l-30 -35q-18 24 -49 24q-60 0 -77 -81l-15 -69h83l-10 -45h-83z" />
    <glyph glyph-name="fi" unicode="fi" horiz-adv-x="431" 
d="M83 0h-51l97 438h-64l10 45h64l15 69q27 125 127 125q35 0 60 -16l-22 -39q-15 11 -37 11q-60 0 -77 -81l-15 -69h83l-10 -45h-83zM408 559q-15 0 -25 10.5t-10 24.5q0 18 14 30.5t30 12.5q15 0 25.5 -10t10.5 -24q0 -19 -14 -31.5t-31 -12.5zM306 0h-50l107 483h50z" />
    <glyph glyph-name="fl" unicode="fl" horiz-adv-x="431" 
d="M83 0h-51l97 438h-64l10 45h64l15 69q27 125 127 125q35 0 60 -16l-22 -39q-15 11 -37 11q-60 0 -77 -81l-15 -69h83l-10 -45h-83zM306 0h-50l147 667h50z" />
    <glyph glyph-name="f_f_i" unicode="ffi" horiz-adv-x="670" 
d="M322 0h-51l97 438h-64l10 45h64l15 69q27 125 127 125q35 0 60 -16l-22 -39q-15 11 -37 11q-60 0 -77 -81l-15 -69h83l-10 -45h-83zM647 559q-15 0 -25 10.5t-10 24.5q0 18 14 30.5t30 12.5q15 0 25.5 -10t10.5 -24q0 -19 -14 -31.5t-31 -12.5zM545 0h-50l107 483h50z
M83 0h-51l97 438h-64l10 45h64l15 69q27 125 127 125q50 0 80 -33l-30 -35q-18 24 -49 24q-60 0 -77 -81l-15 -69h83l-10 -45h-83z" />
    <glyph glyph-name="f_f_l" unicode="ffl" horiz-adv-x="670" 
d="M322 0h-51l97 438h-64l10 45h64l15 69q27 125 127 125q35 0 60 -16l-22 -39q-15 11 -37 11q-60 0 -77 -81l-15 -69h83l-10 -45h-83zM545 0h-50l147 667h50zM83 0h-51l97 438h-64l10 45h64l15 69q27 125 127 125q50 0 80 -33l-30 -35q-18 24 -49 24q-60 0 -77 -81l-15 -69
h83l-10 -45h-83z" />
    <glyph glyph-name="f_b" unicode="fb" horiz-adv-x="708" 
d="M83 0h-51l97 438h-64l10 45h64l15 69q27 125 127 125q35 0 60 -16l-22 -39q-15 11 -37 11q-60 0 -77 -81l-15 -69h83l-10 -45h-83zM452 -12q-43 0 -77 23.5t-52 65.5l-17 -77h-50l147 667h50l-55 -253q53 81 133 81q64 0 102 -44.5t38 -123.5q0 -73 -25 -149.5t-77 -133
t-117 -56.5zM448 33q49 0 89.5 50t60 115t19.5 123q0 62 -27 95.5t-75 33.5q-37 0 -72 -26.5t-58 -65.5l-52 -235q11 -38 42.5 -64t72.5 -26z" />
    <glyph glyph-name="f_h" unicode="fh" horiz-adv-x="689" 
d="M83 0h-51l97 438h-64l10 45h64l15 69q27 125 127 125q35 0 60 -16l-22 -39q-15 11 -37 11q-60 0 -77 -81l-15 -69h83l-10 -45h-83zM564 0h-50l78 355q5 20 5 31q0 64 -74 64q-69 0 -137 -88l-80 -362h-50l147 667h50l-55 -254q69 82 144 82q50 0 79 -24.5t29 -69.5
q0 -12 -5 -37z" />
    <glyph glyph-name="f_k" unicode="fk" horiz-adv-x="663" 
d="M83 0h-51l97 438h-64l10 45h64l15 69q27 125 127 125q35 0 60 -16l-22 -39q-15 11 -37 11q-60 0 -77 -81l-15 -69h83l-10 -45h-83zM589 0h-57l-97 233l-99 -97l-30 -136h-50l147 667h50l-101 -461l282 277h64l-224 -218z" />
    <glyph glyph-name=".notdef" horiz-adv-x="501" 
d="M446 -90h-351v842h351v-842zM414 -60v782h-288v-782h288z" />
    <glyph glyph-name=".null" horiz-adv-x="0" 
 />
    <glyph glyph-name=".null" horiz-adv-x="0" 
 />
    <glyph glyph-name="nonmarkingreturn" horiz-adv-x="333" 
 />
    <glyph glyph-name="CR" unicode="&#xd;" horiz-adv-x="0" 
 />
    <glyph glyph-name="space" unicode=" " horiz-adv-x="218" 
 />
    <glyph glyph-name="exclam" unicode="!" horiz-adv-x="218" 
d="M113 173h-40l96 494h66zM58 -10q-16 0 -27.5 11.5t-11.5 28.5q0 19 13.5 32.5t33.5 13.5q17 0 28.5 -11.5t11.5 -27.5q0 -19 -14 -33t-34 -14z" />
    <glyph glyph-name="quotedbl" unicode="&#x22;" horiz-adv-x="315" 
d="M146 429h-28q24 196 25 205q2 19 13 31t29 12q13 0 22 -9.5t9 -22.5l-5 -20zM276 429h-28q24 196 25 205q2 19 13 31t29 12q13 0 22 -9.5t9 -22.5l-5 -20z" />
    <glyph glyph-name="numbersign" unicode="#" horiz-adv-x="494" 
d="M192 0h-46l95 186h-97l-93 -186h-46l94 186h-91l19 40h92l109 214h-93l18 40h94l94 187h46l-94 -187h96l93 187h46l-94 -187h91l-18 -40h-93l-109 -214h95l-19 -40h-96zM259 226l110 214h-96l-108 -214h94z" />
    <glyph glyph-name="dollar" unicode="$" horiz-adv-x="454" 
d="M136 -100l20 91q-49 7 -89 31t-61 57l40 40q40 -64 121 -78l63 284q-29 20 -45.5 33t-37 34.5t-30 46t-9.5 54.5q0 77 57.5 131t136.5 54h7l20 90h45l-22 -95q82 -18 120 -73l-38 -39q-33 48 -93 61l-58 -259q37 -26 58.5 -45.5t40.5 -53.5t19 -72q0 -83 -55.5 -143
t-145.5 -61l-19 -88h-45zM342 186q0 56 -73 111l-57 -258q59 4 94.5 46t35.5 101zM167 499q0 -31 20 -56t57 -52l53 236q-54 -1 -92 -39t-38 -89z" />
    <glyph glyph-name="percent" unicode="%" horiz-adv-x="641" 
d="M114 0h-40l495 667h42zM432 -12q-56 0 -89 36t-33 91q0 85 48 142.5t111 57.5q56 0 89 -35.5t33 -90.5q0 -85 -48 -143t-111 -58zM433 26q44 0 79 46.5t35 112.5q0 43 -21.5 67.5t-57.5 24.5q-44 0 -78.5 -46.5t-34.5 -112.5q0 -43 21.5 -67.5t56.5 -24.5zM210 350
q-55 0 -88 35.5t-33 90.5q0 85 48 143t111 58q55 0 88.5 -36t33.5 -90q0 -85 -48.5 -143t-111.5 -58zM212 387q44 0 78.5 46.5t34.5 113.5q0 43 -21.5 67.5t-56.5 24.5q-45 0 -79.5 -46.5t-34.5 -112.5q0 -43 21.5 -68t57.5 -25z" />
    <glyph glyph-name="ampersand" unicode="&#x26;" horiz-adv-x="509" 
d="M417 0h-63q-22 38 -34 62q-76 -74 -155 -74q-65 0 -106 37t-41 103q0 87 44.5 141.5t124.5 101.5q-16 55 -16 110q0 78 46 137t106 59q47 0 76 -26t29 -78q0 -91 -87 -157q-24 -17 -95 -60q13 -38 40 -100q25 -64 48 -108q53 72 91 156l42 -22q-57 -112 -110 -179
q19 -35 60 -103zM171 33q61 0 126 72q-43 86 -54 116q-24 57 -43 107q-59 -38 -92 -83.5t-33 -111.5q0 -47 27.5 -73.5t68.5 -26.5zM224 475q0 -39 10 -76q35 20 55.5 34.5t43.5 36t34 46.5t11 56q0 62 -57 62q-36 0 -66.5 -48t-30.5 -111z" />
    <glyph glyph-name="quotesingle" unicode="'" horiz-adv-x="187" 
d="M146 429h-28q24 196 25 205q2 19 13 31t29 12q13 0 22 -9.5t9 -22.5l-5 -20z" />
    <glyph glyph-name="parenleft" unicode="(" horiz-adv-x="208" 
d="M96 -184l-35 -15q-39 109 -39 240q0 341 233 644l28 -21q-96 -149 -152.5 -317t-56.5 -336q0 -92 22 -195z" />
    <glyph glyph-name="parenright" unicode=")" horiz-adv-x="208" 
d="M111 670l35 15q39 -114 39 -240q0 -342 -234 -644l-28 21q97 148 153 316t56 337q0 88 -21 195z" />
    <glyph glyph-name="asterisk" unicode="*" horiz-adv-x="315" 
d="M210 400h-38l33 119l-113 -52l-11 33l116 41l-91 63l25 30l83 -73l20 116h38l-32 -119l112 52l11 -33l-115 -42l91 -62l-26 -30l-83 73z" />
    <glyph glyph-name="plus" unicode="+" horiz-adv-x="436" 
d="M423 317h-167l-42 -188h-43l41 188h-167l9 40h167l40 182h44l-40 -182h167z" />
    <glyph glyph-name="comma" unicode="," horiz-adv-x="218" 
d="M107 29q0 -41 -30 -82.5t-71 -62.5l-24 26q28 14 49.5 37.5t28.5 46.5h-7q-14 0 -24 10t-10 25q0 19 14 33t32 14q19 0 30.5 -12t11.5 -35z" />
    <glyph glyph-name="hyphen" unicode="-" horiz-adv-x="266" 
d="M230 219h-206l10 46h206z" />
    <glyph glyph-name="period" unicode="." horiz-adv-x="218" 
d="M58 -10q-16 0 -27.5 11.5t-11.5 28.5q0 19 13.5 32.5t33.5 13.5q17 0 28.5 -11.5t11.5 -27.5q0 -19 -14 -33t-34 -14z" />
    <glyph glyph-name="slash" unicode="/" horiz-adv-x="235" 
d="M-14 -20h-45l348 707h46z" />
    <glyph glyph-name="zero" unicode="0" horiz-adv-x="502" 
d="M215 -12q-77 0 -119 55.5t-42 157.5q0 103 31.5 210.5t96 186.5t143.5 79q77 0 119 -55t42 -158t-31.5 -210.5t-95.5 -186.5t-144 -79zM220 39q60 0 110 76.5t74.5 174.5t24.5 181q0 155 -109 155q-60 0 -110 -76.5t-75 -174t-25 -180.5q0 -156 110 -156z" />
    <glyph glyph-name="one" unicode="1" horiz-adv-x="288" 
d="M158 0h-55l130 592l-128 -113l-27 36l177 152h50z" />
    <glyph glyph-name="two" unicode="2" horiz-adv-x="476" 
d="M355 0h-353l13 58l100.5 95l90.5 86l70 68.5t60.5 65t38.5 53t28 54.5t7 48q0 45 -31 72t-81 27q-82 0 -139 -72l-34 36q73 86 176 86q72 0 120.5 -37.5t48.5 -107.5q0 -88 -102 -206q-53 -60 -230 -230l-48 -46h275z" />
    <glyph glyph-name="three" unicode="3" horiz-adv-x="456" 
d="M190 -12q-68 0 -120 36.5t-70 99.5l48 26q16 -53 53.5 -82t88.5 -29q66 0 106.5 52.5t40.5 123.5q0 49 -33 76t-85 27q-34 0 -43 -1l12 53q9 -1 67 -1q61 0 102 45t41 111q0 46 -31.5 73.5t-84.5 27.5q-78 0 -137 -73l-32 34q31 40 77 65t97 25q75 0 122 -38.5t47 -107.5
q0 -72 -46 -127t-111 -65q43 -13 68 -48.5t25 -82.5q0 -88 -57 -154t-145 -66z" />
    <glyph glyph-name="four" unicode="4" horiz-adv-x="439" 
d="M286 0h-56l40 183h-260l12 54l336 430h75l-97 -434h76l-10 -50h-76zM281 233l82 367l-288 -367h206z" />
    <glyph glyph-name="five" unicode="5" horiz-adv-x="476" 
d="M207 -12q-136 0 -181 134l48 26q29 -109 135 -109q62 0 109.5 65t47.5 148q0 54 -30 84t-82 30q-59 0 -121 -54l-37 22l74 333h314l-10 -50h-259l-56 -251q46 48 118 48q63 0 105 -42.5t42 -115.5q0 -106 -63 -187t-154 -81z" />
    <glyph glyph-name="six" unicode="6" horiz-adv-x="478" 
d="M213 -12q-81 0 -121.5 54t-40.5 147q0 47 9.5 106.5t31.5 127.5t53 124t80.5 93t107.5 37q55 0 95 -28.5t56 -77.5l-43 -33q-11 42 -40 65t-72 23q-41 0 -76 -26t-59.5 -71t-41 -91.5t-28.5 -101.5q-2 -8 -4 -19q26 38 69 66t90 28q67 0 108.5 -39.5t41.5 -111.5
q0 -64 -25.5 -125.5t-76.5 -104t-114 -42.5zM217 39q66 0 110 70.5t44 145.5q0 49 -29 78.5t-81 29.5q-78 0 -151 -106q-6 -38 -6 -79q0 -64 29 -101.5t84 -37.5z" />
    <glyph glyph-name="seven" unicode="7" horiz-adv-x="403" 
d="M108 0h-63l347 617h-282l11 50h347l-8 -38z" />
    <glyph glyph-name="eight" unicode="8" horiz-adv-x="470" 
d="M206 -12q-81 0 -130 37.5t-49 109.5q0 73 48 130.5t132 84.5q-38 20 -65.5 57.5t-27.5 82.5q0 79 57.5 133t135.5 54q70 0 119 -37.5t49 -106.5q0 -76 -48 -125.5t-121 -68.5q41 -25 70 -65t29 -89q0 -85 -58 -141t-141 -56zM262 367q64 11 108.5 52.5t44.5 109.5
q0 43 -31.5 70t-80.5 27q-54 0 -93 -40.5t-39 -102.5q0 -38 28.5 -70.5t62.5 -45.5zM206 39q55 0 99 43.5t44 108.5q0 48 -31 83.5t-66 46.5q-69 -12 -117.5 -60t-48.5 -116q0 -52 34 -79t86 -27z" />
    <glyph glyph-name="nine" unicode="9" horiz-adv-x="478" 
d="M303 678q81 0 122 -54t41 -147q0 -47 -9.5 -106.5t-31.5 -127.5t-53 -124t-80.5 -93t-107.5 -37q-55 0 -95 28t-57 78l43 33q11 -42 40 -65t72 -23q139 0 206 290q3 17 4 19q-27 -38 -70 -66t-90 -28q-67 0 -108.5 39.5t-41.5 111.5q0 100 61.5 186t154.5 86zM299 627
q-66 0 -110 -70.5t-44 -145.5q0 -48 29.5 -78t80.5 -30q78 0 151 106q7 33 7 78q0 65 -29 102.5t-85 37.5z" />
    <glyph glyph-name="colon" unicode=":" horiz-adv-x="218" 
d="M58 -10q-16 0 -27.5 11.5t-11.5 28.5q0 19 13.5 32.5t33.5 13.5q17 0 28.5 -11.5t11.5 -27.5q0 -19 -14 -33t-34 -14zM150 404q-16 0 -27.5 11.5t-11.5 28.5q0 19 13.5 32.5t33.5 13.5q16 0 27.5 -11t11.5 -28q0 -20 -13.5 -33.5t-33.5 -13.5z" />
    <glyph glyph-name="semicolon" unicode=";" horiz-adv-x="218" 
d="M107 29q0 -41 -30 -82.5t-71 -62.5l-24 26q28 14 49.5 37.5t28.5 46.5h-7q-14 0 -24 10t-10 25q0 19 14 33t32 14q19 0 30.5 -12t11.5 -35zM150 404q-16 0 -27.5 11.5t-11.5 28.5q0 19 13.5 32.5t33.5 13.5q16 0 27.5 -11t11.5 -28q0 -20 -13.5 -33.5t-33.5 -13.5z" />
    <glyph glyph-name="less" unicode="&#x3c;" horiz-adv-x="436" 
d="M380 127l-336 190l9 36l420 190l-12 -51l-361 -160l290 -159z" />
    <glyph glyph-name="equal" unicode="=" horiz-adv-x="436" 
d="M444 412h-378l9 40h378zM400 216h-378l9 40h379z" />
    <glyph glyph-name="greater" unicode="&#x3e;" horiz-adv-x="436" 
d="M423 317l-421 -190l12 51l362 158l-291 161l10 46l336 -190z" />
    <glyph glyph-name="question" unicode="?" horiz-adv-x="386" 
d="M208 199l-46 -23q-19 29 -19 67q0 39 22 71t54 55l64 45t54 53.5t22 69.5q0 39 -28.5 65t-77.5 26q-65 0 -119 -49l-23 39q66 60 149 60q71 0 114.5 -38t43.5 -94q0 -46 -23 -83.5t-56 -62.5t-66 -47.5t-56 -49.5t-23 -57q0 -27 14 -47zM139 -10q-16 0 -27.5 11.5
t-11.5 28.5q0 19 13.5 32.5t33.5 13.5q17 0 28.5 -11.5t11.5 -27.5q0 -19 -14 -33t-34 -14z" />
    <glyph glyph-name="at" unicode="@" horiz-adv-x="684" 
d="M326 -70q-119 0 -195 84t-76 216q0 162 108.5 285.5t250.5 123.5q114 0 184 -79t70 -205q0 -118 -46 -194t-105 -76q-35 0 -56.5 22.5t-22.5 55.5v6q-57 -84 -135 -84q-54 0 -87.5 36t-33.5 105q0 105 62.5 189.5t146.5 84.5q37 0 63.5 -22.5t37.5 -56.5l12 61h48
l-60 -285q-3 -15 -3 -24q0 -48 40 -48q20 0 43.5 22t43.5 77.5t20 130.5q0 115 -62 183.5t-162 68.5q-129 0 -226.5 -115.5t-97.5 -260.5q0 -120 68 -195t174 -75q84 0 159 57l17 -25q-85 -63 -180 -63zM314 125q70 0 133 94l35 160q-8 32 -30 56t-56 24q-69 0 -116.5 -73.5
t-47.5 -156.5q0 -48 21 -76t61 -28z" />
    <glyph glyph-name="A" unicode="A" horiz-adv-x="492" 
d="M426 0h-58l-12 165h-251l-84 -165h-63l348 667h66zM355 215l-28 387l-198 -387h226z" />
    <glyph glyph-name="B" unicode="B" horiz-adv-x="498" 
d="M232 0h-211l147 667h177q64 0 104.5 -38.5t40.5 -101.5q0 -70 -39 -125t-99 -65q36 -10 57.5 -47t21.5 -79q0 -85 -52.5 -148t-146.5 -63zM158 367h143q64 0 96.5 48t32.5 106q0 44 -27.5 70t-70.5 26h-119zM233 50q63 0 101.5 49.5t38.5 114.5q0 49 -27 76t-76 27h-124
l-59 -267h146z" />
    <glyph glyph-name="C" unicode="C" horiz-adv-x="523" 
d="M265 -12q-95 0 -152.5 62t-57.5 172q0 106 38.5 210t111 175t158.5 71q70 0 118.5 -37.5t70.5 -103.5l-53 -17q-38 107 -141 107q-65 0 -122.5 -64t-89.5 -157t-32 -184q0 -87 41 -135t114 -48t143 81l42 -29q-81 -103 -189 -103z" />
    <glyph glyph-name="D" unicode="D" horiz-adv-x="549" 
d="M183 0h-162l147 667h158q83 0 141 -64t58 -174q0 -49 -11.5 -104t-38 -113.5t-64.5 -105t-97.5 -76.5t-130.5 -30zM87 50h105q65 0 119.5 38.5t87 97t50.5 122t18 120.5q0 87 -43 138t-109 51h-102z" />
    <glyph glyph-name="E" unicode="E" horiz-adv-x="452" 
d="M347 0h-326l147 667h326l-11 -50h-270l-55 -250h263l-12 -50h-263l-59 -267h271z" />
    <glyph glyph-name="F" unicode="F" horiz-adv-x="441" 
d="M77 0h-56l147 667h326l-11 -50h-270l-55 -250h263l-12 -50h-263z" />
    <glyph glyph-name="G" unicode="G" horiz-adv-x="552" 
d="M265 -12q-96 0 -153 62.5t-57 171.5q0 107 37.5 210.5t110.5 174.5t161 71q136 0 186 -136l-49 -18q-38 103 -143 103q-66 0 -123.5 -63.5t-89 -156.5t-31.5 -185q0 -89 41 -136t114 -47q75 0 139 70l38 172h-174l11 50h227l-54 -245q-85 -98 -191 -98z" />
    <glyph glyph-name="H" unicode="H" horiz-adv-x="559" 
d="M430 0h-55l70 318h-298l-70 -318h-56l147 667h56l-66 -299h298l66 299h55z" />
    <glyph glyph-name="I" unicode="I" horiz-adv-x="206" 
d="M77 0h-56l147 667h56z" />
    <glyph glyph-name="J" unicode="J" horiz-adv-x="390" 
d="M114 -12q-99 0 -141 71l34 39q33 -59 104 -59q102 0 130 124l111 504h56l-112 -505q-38 -174 -182 -174z" />
    <glyph glyph-name="K" unicode="K" horiz-adv-x="490" 
d="M417 0h-63l-148 312l-80 -87l-49 -225h-56l147 667h56l-79 -356l328 356h71l-297 -318z" />
    <glyph glyph-name="L" unicode="L" horiz-adv-x="418" 
d="M326 0h-305l147 667h56l-137 -617h249z" />
    <glyph glyph-name="M" unicode="M" horiz-adv-x="661" 
d="M532 0h-55l127 577l-316 -577h-23l-61 577l-127 -577h-56l147 667h79l57 -532l293 532h82z" />
    <glyph glyph-name="N" unicode="N" horiz-adv-x="557" 
d="M428 0h-54l-175 555l-122 -555h-56l147 667h56l174 -546l121 546h56z" />
    <glyph glyph-name="O" unicode="O" horiz-adv-x="590" 
d="M265 -12q-95 0 -152.5 64t-57.5 170q0 100 36.5 203t109.5 178t162 75q95 0 152.5 -64.5t57.5 -170.5q0 -75 -22 -154t-60.5 -146.5t-98 -111t-127.5 -43.5zM269 39q66 0 124 63t89.5 156t31.5 186q0 86 -43 134.5t-113 48.5q-67 0 -124.5 -63.5t-88.5 -156t-31 -185.5
q0 -87 42.5 -135t112.5 -48z" />
    <glyph glyph-name="P" unicode="P" horiz-adv-x="468" 
d="M77 0h-56l147 667h171q65 0 106 -44.5t41 -111.5q0 -92 -57 -162.5t-165 -70.5h-126zM149 328h122q74 0 115 53.5t41 126.5q0 49 -28 79t-71 30h-115z" />
    <glyph glyph-name="Q" unicode="Q" horiz-adv-x="590" 
d="M265 -12q-95 0 -152.5 64t-57.5 170q0 100 36.5 203t109.5 178t162 75q95 0 152.5 -64.5t57.5 -170.5q0 -110 -45 -223.5t-120 -176.5l25 -56l-46 -18l-20 46q-49 -27 -102 -27zM269 39q40 0 77 23l-59 137l46 18l53 -123q57 58 92.5 156t35.5 194q0 86 -43 134.5
t-113 48.5q-67 0 -124.5 -63.5t-88.5 -156t-31 -185.5q0 -87 42.5 -135t112.5 -48z" />
    <glyph glyph-name="R" unicode="R" horiz-adv-x="491" 
d="M387 0h-60l-79 278h-110l-61 -278h-56l147 667h167q63 0 107.5 -43t44.5 -112q0 -91 -51.5 -155t-132.5 -74zM149 328h123q73 0 114 54t41 127q0 49 -28.5 78.5t-69.5 29.5h-116z" />
    <glyph glyph-name="S" unicode="S" horiz-adv-x="459" 
d="M196 -12q-61 0 -113.5 25.5t-77.5 65.5l40 40q24 -37 65 -58.5t89 -21.5q65 0 103.5 42.5t38.5 104.5q0 30 -17.5 57t-43.5 45.5l-56 40.5l-56 42.5t-43.5 52.5t-17.5 69q0 77 57.5 131t136.5 54q54 0 99.5 -21t70.5 -57l-38 -39q-45 66 -135 66q-55 0 -93.5 -38.5
t-38.5 -89.5q0 -32 24 -60.5t58.5 -52l69 -49t58.5 -63t24 -82.5q0 -84 -56.5 -144t-147.5 -60z" />
    <glyph glyph-name="T" unicode="T" horiz-adv-x="435" 
d="M191 0h-56l137 617h-163l11 50h381l-11 -50h-163z" />
    <glyph glyph-name="U" unicode="U" horiz-adv-x="551" 
d="M249 -12q-86 0 -136 46t-50 127q0 27 5 49l100 457h56l-101 -458q-5 -17 -5 -42q0 -59 36 -94t97 -35q66 0 104 41.5t58 129.5l100 458h56l-101 -457q-25 -112 -76 -167t-143 -55z" />
    <glyph glyph-name="V" unicode="V" horiz-adv-x="492" 
d="M225 0h-66l-54 667h58l42 -598l305 598h63z" />
    <glyph glyph-name="W" unicode="W" horiz-adv-x="693" 
d="M472 0h-61l6 562l-243 -562h-61v667h59l-9 -578l250 578h51l-6 -578l247 578h61z" />
    <glyph glyph-name="X" unicode="X" horiz-adv-x="491" 
d="M425 0h-61l-106 292l-230 -292h-70l276 344l-118 323h62l97 -277l215 277h71l-261 -330z" />
    <glyph glyph-name="Y" unicode="Y" horiz-adv-x="483" 
d="M215 0h-55l63 286l-122 381h60l98 -325l242 325h67l-290 -381z" />
    <glyph glyph-name="Z" unicode="Z" horiz-adv-x="453" 
d="M356 0h-368l11 49l417 568h-291l10 50h361l-10 -48l-419 -569h300z" />
    <glyph glyph-name="bracketleft" unicode="[" horiz-adv-x="200" 
d="M86 -190h-147l193 868h147l-10 -42h-104l-174 -784h104z" />
    <glyph glyph-name="backslash" unicode="\" horiz-adv-x="235" 
d="M134 -20l-40 707h43l40 -707h-43z" />
    <glyph glyph-name="bracketright" unicode="]" horiz-adv-x="200" 
d="M67 -190h-146l10 42h103l174 784h-104l9 42h147z" />
    <glyph glyph-name="asciicircum" unicode="^" horiz-adv-x="377" 
d="M377 333h-43l-60 291l-188 -291h-48l224 334h40z" />
    <glyph glyph-name="underscore" unicode="_" horiz-adv-x="422" 
d="M352 -82h-427l10 42h427z" />
    <glyph glyph-name="grave" unicode="`" horiz-adv-x="174" 
d="M243 556h-39l-103 144h58z" />
    <glyph glyph-name="a" unicode="a" 
d="M255 495q43 0 77.5 -23.5t51.5 -65.5l17 77h50l-107 -483h-50l15 69q-53 -81 -133 -81q-64 0 -102 44.5t-38 123.5q0 74 25 150t77 132.5t117 56.5zM260 450q-50 0 -90.5 -50t-60 -115t-19.5 -123q0 -62 27 -95.5t76 -33.5q36 0 71.5 27t57.5 65l52 235q-11 38 -42 64
t-72 26z" />
    <glyph glyph-name="b" unicode="b" 
d="M213 -12q-43 0 -77 23.5t-52 65.5l-17 -77h-50l147 667h50l-55 -253q53 81 133 81q64 0 102 -44.5t38 -123.5q0 -73 -25 -149.5t-77 -133t-117 -56.5zM209 33q49 0 89.5 50t60 115t19.5 123q0 62 -27 95.5t-75 33.5q-37 0 -72 -26.5t-58 -65.5l-52 -235q11 -38 42.5 -64
t72.5 -26z" />
    <glyph glyph-name="c" unicode="c" horiz-adv-x="400" 
d="M205 -12q-76 0 -122 48.5t-46 138.5q0 74 28 146.5t84 123t124 50.5q90 0 132 -69l-36 -32q-31 56 -96 56q-55 0 -98.5 -46.5t-63.5 -108.5t-20 -122q0 -69 32.5 -104.5t86.5 -35.5q55 0 98 48l24 -36q-55 -57 -127 -57z" />
    <glyph glyph-name="d" unicode="d" 
d="M255 495q43 0 77.5 -23.5t51.5 -65.5l58 261h50l-148 -667h-50l15 69q-53 -81 -133 -81q-64 0 -102 44.5t-38 123.5q0 74 25 150t77 132.5t117 56.5zM260 450q-50 0 -90.5 -50t-60 -115t-19.5 -123q0 -62 27 -95.5t76 -33.5q36 0 71.5 27t57.5 65l52 235q-11 38 -42 64
t-72 26z" />
    <glyph glyph-name="e" unicode="e" horiz-adv-x="463" 
d="M216 -12q-84 0 -131.5 49t-47.5 137q0 66 26 138t81 127.5t125 55.5q73 0 115.5 -46.5t42.5 -129.5q0 -48 -13 -94h-320q-5 -28 -5 -53q0 -63 33.5 -102t96.5 -39t117 56l24 -34q-65 -65 -144 -65zM101 265h271q7 30 7 54q0 58 -30 95.5t-85 37.5q-59 0 -105 -58
t-58 -129z" />
    <glyph glyph-name="f" unicode="f" horiz-adv-x="239" 
d="M83 0h-51l97 438h-64l10 45h64l15 69q27 125 127 125q50 0 80 -33l-30 -35q-18 24 -49 24q-60 0 -77 -81l-15 -69h83l-10 -45h-83z" />
    <glyph glyph-name="g" unicode="g" 
d="M151 -196q-112 0 -165 68l35 38q40 -62 130 -62q108 0 139 139l20 86q-54 -81 -136 -81q-62 0 -100 43t-38 126q0 71 24 146t75.5 131.5t118.5 56.5q39 0 76 -25t54 -64l17 77h50l-109 -494q-42 -185 -191 -185zM192 37q35 0 70.5 25.5t58.5 62.5l53 234q-13 39 -46 65
t-72 26q-49 0 -88.5 -49t-59 -113t-19.5 -122q0 -64 27.5 -96.5t75.5 -32.5z" />
    <glyph glyph-name="h" unicode="h" horiz-adv-x="450" 
d="M325 0h-50l78 355q5 20 5 31q0 64 -74 64q-69 0 -137 -88l-80 -362h-50l147 667h50l-55 -254q69 82 144 82q50 0 79 -24.5t29 -69.5q0 -12 -5 -37z" />
    <glyph glyph-name="i" unicode="i" horiz-adv-x="192" 
d="M169 559q-15 0 -25 10.5t-10 24.5q0 18 14 30.5t30 12.5q15 0 25.5 -10t10.5 -24q0 -19 -14 -31.5t-31 -12.5zM67 0h-50l107 483h50z" />
    <glyph glyph-name="j" unicode="j" horiz-adv-x="192" 
d="M-66 -196q-59 0 -84 39l31 34q15 -29 49 -29q52 0 70 79l124 556h50l-123 -556q-15 -65 -42.5 -94t-74.5 -29zM169 559q-15 0 -25 10.5t-10 24.5q0 18 14 30.5t30 12.5q15 0 25.5 -10t10.5 -24q0 -19 -14 -31.5t-31 -12.5z" />
    <glyph glyph-name="k" unicode="k" horiz-adv-x="424" 
d="M350 0h-57l-97 233l-99 -97l-30 -136h-50l147 667h50l-101 -461l282 277h64l-224 -218z" />
    <glyph glyph-name="l" unicode="l" horiz-adv-x="192" 
d="M67 0h-50l147 667h50z" />
    <glyph glyph-name="m" unicode="m" horiz-adv-x="669" 
d="M545 0h-51l79 359q4 20 4 28q0 30 -17.5 46.5t-46.5 16.5q-32 0 -66.5 -25.5t-60.5 -61.5l-80 -363h-51l80 359q4 24 4 32q-2 59 -66 59q-61 0 -126 -87l-80 -363h-50l107 483h50l-15 -70q63 82 134 82q45 0 71.5 -24.5t26.5 -55.5q0 -4 -1 -8q66 88 142 88
q43 0 70.5 -25t27.5 -68q0 -8 -5 -38z" />
    <glyph glyph-name="n" unicode="n" horiz-adv-x="450" 
d="M325 0h-51l79 355q5 22 5 31q0 64 -73 64q-69 0 -138 -87l-80 -363h-50l107 483h50l-15 -70q69 82 144 82q49 0 78.5 -24.5t29.5 -69.5q0 -14 -5 -37z" />
    <glyph glyph-name="o" unicode="o" 
d="M199 -12q-75 0 -118.5 47t-43.5 133q0 75 27.5 149t82 126t121.5 52q75 0 119 -47t44 -133q0 -75 -27.5 -149t-82.5 -126t-122 -52zM201 33q50 0 92 47.5t63 111t21 122.5q0 67 -29 101.5t-82 34.5q-50 0 -92 -47.5t-63 -111.5t-21 -122q0 -67 29.5 -101.5t81.5 -34.5z
" />
    <glyph glyph-name="p" unicode="p" horiz-adv-x="467" 
d="M213 -12q-43 0 -77 23.5t-52 65.5l-58 -261h-50l148 667h50l-15 -69q53 81 133 81q64 0 102 -44.5t38 -123.5q0 -73 -25 -149.5t-77 -133t-117 -56.5zM209 33q49 0 89.5 50t60 115t19.5 123q0 62 -27 95.5t-75 33.5q-37 0 -72 -26.5t-58 -65.5l-52 -235q11 -38 42.5 -64
t72.5 -26z" />
    <glyph glyph-name="q" unicode="q" horiz-adv-x="467" 
d="M255 495q43 0 77.5 -23.5t51.5 -65.5l17 77h50l-148 -667h-50l56 253q-53 -81 -133 -81q-64 0 -102 44.5t-38 123.5q0 74 25 150t77 132.5t117 56.5zM260 450q-50 0 -90.5 -50t-60 -115t-19.5 -123q0 -62 27 -95.5t76 -33.5q36 0 71.5 27t57.5 65l52 235q-11 38 -42 64
t-72 26z" />
    <glyph glyph-name="r" unicode="r" horiz-adv-x="278" 
d="M67 0h-50l107 483h50l-16 -74q32 43 67.5 63.5t89.5 20.5l-12 -55q-9 3 -28 3q-37 0 -72 -25t-58 -64z" />
    <glyph glyph-name="s" unicode="s" horiz-adv-x="377" 
d="M151 -12q-107 0 -154 75l35 33q17 -28 49 -46.5t72 -18.5q47 0 77.5 29t30.5 69q0 27 -20 49.5t-48 39l-56 34.5t-48 44.5t-20 59.5q0 58 41.5 98.5t111.5 40.5q46 0 84 -19t56 -49l-33 -32q-13 25 -43.5 41t-66.5 16q-44 0 -71.5 -24.5t-27.5 -61.5q0 -25 20 -46
t48 -37.5t56 -35t48 -46t20 -61.5q0 -63 -44.5 -107.5t-116.5 -44.5z" />
    <glyph glyph-name="t" unicode="t" horiz-adv-x="249" 
d="M127 -12q-83 0 -83 72q0 15 4 30l78 348h-66l11 45h65l29 132h51l-29 -132h83l-11 -45h-82l-77 -342q-3 -12 -3 -25q0 -38 40 -38q22 0 42 18l12 -40q-28 -23 -64 -23z" />
    <glyph glyph-name="u" unicode="u" horiz-adv-x="450" 
d="M124 483h50l-78 -355q-5 -23 -5 -31q0 -64 74 -64q35 0 71.5 24.5t64.5 60.5l80 365h51l-107 -483h-51l16 70q-69 -82 -145 -82q-49 0 -78 24.5t-29 69.5q0 14 5 37z" />
    <glyph glyph-name="v" unicode="v" horiz-adv-x="392" 
d="M170 0h-57l-50 483h54l35 -423l225 423h58z" />
    <glyph glyph-name="w" unicode="w" horiz-adv-x="616" 
d="M415 0h-50l-20 414l-202 -414h-50l-23 483h52l11 -411l201 411h49l19 -411l194 411h56z" />
    <glyph glyph-name="x" unicode="x" horiz-adv-x="393" 
d="M322 0h-56l-75 208l-168 -208h-61l204 246l-88 237h55l69 -198l158 198h61l-195 -237z" />
    <glyph glyph-name="y" unicode="y" horiz-adv-x="392" 
d="M-55 -186l19 45q11 -8 35 -8q18 0 32 11.5t31 40.5l49 88l-48 492h54l36 -421l224 421h58l-327 -593q-48 -86 -114 -86q-29 0 -49 10z" />
    <glyph glyph-name="z" unicode="z" horiz-adv-x="379" 
d="M278 0h-285l8 42l306 396h-217l10 45h281l-9 -41l-307 -397h222z" />
    <glyph glyph-name="braceleft" unicode="{" horiz-adv-x="222" 
d="M108 -190h-38q-35 0 -61 24t-26 62q0 15 4 27l51 231q2 10 2 18q0 23 -10 38t-29 15l9 39q53 0 68 70l51 233q26 111 125 111h47l-10 -42h-46q-57 0 -72 -69l-54 -240q-15 -70 -64 -88q29 -14 29 -53q0 -18 -4 -34l-50 -230q-3 -18 -3 -19q0 -23 13.5 -37t33.5 -14h43z
" />
    <glyph glyph-name="bar" unicode="|" horiz-adv-x="192" 
d="M137 -20h-42v707h42v-707z" />
    <glyph glyph-name="braceright" unicode="}" horiz-adv-x="222" 
d="M113 678h38q35 0 61 -24t26 -63q0 -6 -4 -26l-51 -231q-2 -10 -2 -19q0 -23 10 -37t28 -14l-9 -39q-52 0 -67 -71l-52 -233q-25 -111 -125 -111h-46l10 42h46q27 0 46 18t26 51l53 240q15 69 65 88q-29 15 -29 53q0 18 4 34l50 230q2 12 2 19q0 23 -13.5 37t-32.5 14h-44
z" />
    <glyph glyph-name="asciitilde" unicode="~" horiz-adv-x="442" 
d="M466 667l41 -4q-53 -234 -161 -234q-33 0 -51 20t-22 49t-6 58t-11 49t-31 20q-67 0 -115 -198l-41 6q53 232 160 232q33 0 51 -20.5t22 -49.5t6 -57.5t11 -49t31 -20.5q69 0 116 199z" />
    <glyph glyph-name="nbspace" unicode="&#xa0;" horiz-adv-x="218" 
 />
    <glyph glyph-name="exclamdown" unicode="&#xa1;" horiz-adv-x="218" 
d="M104 310h39l-96 -494h-66zM158 493q16 0 27.5 -11.5t11.5 -28.5q0 -19 -13.5 -32.5t-33.5 -13.5q-16 0 -27.5 11.5t-11.5 27.5q0 20 13.5 33.5t33.5 13.5z" />
    <glyph glyph-name="cent" unicode="&#xa2;" horiz-adv-x="400" 
d="M135 -100l21 94q-55 14 -87 60t-32 121q0 73 27.5 144.5t81.5 122t121 52.5l16 71h44l-17 -74q61 -11 95 -65l-36 -32q-24 42 -69 53l-92 -414h2q55 0 98 48l24 -36q-55 -57 -127 -57h-7l-19 -88h-44zM91 173q0 -106 75 -133l91 409q-75 -10 -120.5 -97t-45.5 -179z" />
    <glyph glyph-name="sterling" unicode="&#xa3;" horiz-adv-x="433" 
d="M29 268l9 41h106l-18.5 37t-22 53.5t-6.5 49.5q0 91 61 159.5t144 68.5q59 0 103 -30.5t54 -81.5l-50 -20q-7 37 -35.5 60.5t-70.5 23.5q-58 0 -102 -52t-44 -131q0 -26 7 -48.5t20 -49t18 -39.5h111l-8 -41h-95q1 -4 1 -11q0 -56 -34.5 -108.5t-77.5 -80.5q24 9 41 9
q29 0 71.5 -19.5t64.5 -19.5q47 0 82 39l15 -45q-47 -45 -103 -45q-40 0 -85 22t-77 22q-38 0 -96 -38l-13 45q65 30 112 89t47 118q0 7 -2 23h-127z" />
    <glyph glyph-name="currency" unicode="&#xa4;" horiz-adv-x="478" 
d="M212 101q-63 6 -99 47l-92 -75l-31 38l96 78q-31 69 -9 164q19 84 68 141l-58 74l38 31l55 -72q59 44 133 37q61 -7 99 -47l94 77l30 -38l-97 -80q30 -69 10 -163q-21 -87 -69 -143l58 -72l-38 -31l-55 70q-61 -44 -133 -36zM222 150q65 -8 111.5 42.5t62.5 126.5
q16 75 -6 132t-87 64q-65 8 -111 -42t-62 -126q-17 -75 5 -132.5t87 -64.5z" />
    <glyph glyph-name="yen" unicode="&#xa5;" horiz-adv-x="483" 
d="M218 0h-55l28 126h-197l9 40h196l27 120h-196l9 40h174l-109 341h60l98 -325l242 325h67l-260 -341h168l-9 -40h-189l-27 -120h190l-10 -40h-188z" />
    <glyph glyph-name="brokenbar" unicode="&#xa6;" horiz-adv-x="192" 
d="M137 -20h-42v316h42v-316zM137 371h-42v316h42v-316z" />
    <glyph glyph-name="section" unicode="&#xa7;" horiz-adv-x="377" 
d="M351 318q0 -49 -29 -86.5t-86 -54.5q60 -41 60 -104q0 -62 -43.5 -108t-114.5 -46q-111 0 -163 71l36 32q38 -62 126 -62q45 0 76 31t31 75q0 27 -19.5 48.5t-47 37l-55.5 32.5t-47.5 44.5t-19.5 62.5q0 51 35 88t98 45q-78 46 -78 114q0 57 42 98t106 41q103 0 150 -66
l-34 -28q-36 54 -114 54q-42 0 -71 -27t-29 -65q0 -27 19.5 -49t48 -37.5t56.5 -32.5t47.5 -44.5t19.5 -63.5zM300 308q0 56 -71 93q-64 -8 -94 -36.5t-30 -65.5q0 -30 24 -53.5t71 -47.5q100 32 100 110z" />
    <glyph glyph-name="dieresis" unicode="&#xa8;" horiz-adv-x="260" 
d="M329 605q0 -17 -12.5 -29t-28.5 -12q-14 0 -23 9.5t-9 23.5q0 16 12 28t29 12q13 0 22.5 -9.5t9.5 -22.5zM161 605q0 -17 -12 -29t-28 -12q-14 0 -23.5 9.5t-9.5 23.5q0 16 12 28t29 12q13 0 22.5 -9.5t9.5 -22.5z" />
    <glyph glyph-name="copyright" unicode="&#xa9;" horiz-adv-x="778" 
d="M754 334q0 -143 -101.5 -244t-244.5 -101q-142 0 -243 101t-101 244t100.5 244t243.5 101t244.5 -101t101.5 -244zM726 334q0 130 -93.5 223.5t-224.5 93.5q-130 0 -223 -93t-93 -224t93 -224t223 -93q131 0 224.5 93.5t93.5 223.5zM505 197l17 -25q-60 -52 -133 -52
q-88 0 -140 53.5t-52 133.5q0 101 72 171.5t164 70.5q106 0 155 -80l-27 -19q-37 69 -128 69q-77 0 -140 -61.5t-63 -150.5q0 -66 44.5 -111.5t114.5 -45.5q67 0 116 47z" />
    <glyph glyph-name="ordfeminine" unicode="&#xaa;" horiz-adv-x="346" 
d="M240 614q-46 0 -79 -56.5t-33 -117.5q0 -42 18.5 -64.5t50.5 -22.5q48 0 87 57l33 150q-8 24 -29 39t-48 15zM334 640h42l-69 -314h-42l10 47q-39 -55 -93 -55q-43 0 -70 30t-27 89q0 77 42.5 144t106.5 67q29 0 53.5 -15t36.5 -40z" />
    <glyph glyph-name="guillemotleft" unicode="&#xab;" horiz-adv-x="350" 
d="M162 63h-48l-85 180l165 177h54l-168 -181zM276 63h-48l-85 180l165 177h54l-168 -181z" />
    <glyph glyph-name="logicalnot" unicode="&#xac;" horiz-adv-x="437" 
d="M453 452l-53 -236h-42l43 196h-335l9 40h378z" />
    <glyph glyph-name="uni00AD" unicode="&#xad;" horiz-adv-x="266" 
d="M230 219h-206l10 46h206z" />
    <glyph glyph-name="registered" unicode="&#xae;" horiz-adv-x="494" 
d="M508 465q0 -88 -62.5 -150t-150.5 -62t-149.5 62t-61.5 150t62 150t150 62t150 -61.5t62 -150.5zM481 465q0 77 -54.5 131t-131.5 54t-130.5 -54t-53.5 -131q0 -76 54 -130.5t130 -54.5t131 54.5t55 130.5zM366 343h-36l-42 96h-48l-21 -96h-30l53 243h91q29 0 49 -17.5
t20 -46.5q0 -35 -25 -58.5t-55 -23.5zM370 518q0 19 -12 29.5t-30 10.5h-62l-20 -90h69q23 0 39 14.5t16 35.5z" />
    <glyph glyph-name="macron" unicode="&#xaf;" horiz-adv-x="304" 
d="M376 577h-302l8 37h302z" />
    <glyph glyph-name="degree" unicode="&#xb0;" horiz-adv-x="281" 
d="M326 561q0 -48 -34 -81.5t-82 -33.5t-81.5 33.5t-33.5 81.5t33.5 82t81.5 34t82 -34t34 -82zM288 561q0 31 -23 54.5t-55 23.5q-31 0 -54 -23t-23 -55t22 -54.5t54 -22.5t55.5 22.5t23.5 54.5z" />
    <glyph glyph-name="plusminus" unicode="&#xb1;" horiz-adv-x="436" 
d="M424 320h-168l-41 -188h-44l42 188h-167l9 40h167l40 182h43l-39 -182h167zM359 26h-378l8 40h378z" />
    <glyph glyph-name="twosuperior" unicode="&#xb2;" horiz-adv-x="318" 
d="M319 421h-238l8 36q155 129 189 163q62 62 62 109q0 30 -21 45.5t-50 15.5q-56 0 -94 -49l-24 29q49 57 119 57q47 0 81 -24.5t34 -71.5q0 -61 -86 -143q-28 -27 -151 -130h178z" />
    <glyph glyph-name="threesuperior" unicode="&#xb3;" horiz-adv-x="318" 
d="M346 540q0 -47 -35.5 -86.5t-93.5 -39.5q-45 0 -78.5 19t-47.5 53l33 23q27 -58 92 -58q40 0 62.5 29.5t22.5 67.5q0 28 -21.5 44.5t-54.5 16.5q-21 0 -27 -1l8 38q20 -2 44 -2q38 0 63 23t25 62q0 27 -21 44t-53 17q-48 0 -92 -46l-22 27q49 56 117 56q51 0 83 -24
t32 -69q0 -42 -27.5 -73.5t-71.5 -37.5q27 -6 45 -28.5t18 -54.5z" />
    <glyph glyph-name="acute" unicode="&#xb4;" horiz-adv-x="174" 
d="M275 700l-167 -144h-41l148 144h60z" />
    <glyph glyph-name="mu" unicode="&#xb5;" horiz-adv-x="461" 
d="M74 29l-48 -213h-51l149 667h51l-79 -355q-11 -48 7.5 -72t56.5 -24q36 0 74.5 24.5t65.5 59.5l81 367h51l-86 -390q-15 -60 27 -60q6 0 18 2l-6 -44q-11 -3 -29 -3q-74 0 -63 84q-70 -84 -145 -84q-54 0 -74 41z" />
    <glyph glyph-name="paragraph" unicode="&#xb6;" horiz-adv-x="449" 
d="M290 -100h-37l162 730h-94l-162 -730h-37l94 423q-57 0 -97 44.5t-40 111.5q0 73 56.5 130.5t137.5 57.5h187z" />
    <glyph glyph-name="periodcentered" unicode="&#xb7;" horiz-adv-x="218" 
d="M105 202q-17 0 -28 11t-11 28q0 19 14 33t33 14q16 0 27.5 -11.5t11.5 -28.5q0 -19 -13.5 -32.5t-33.5 -13.5z" />
    <glyph glyph-name="cedilla" unicode="&#xb8;" horiz-adv-x="178" 
d="M1 -189q-58 0 -90 37l22 29q26 -33 71 -33q28 0 43.5 15t15.5 38q0 30 -33 30q-20 0 -33 -16l-24 16l50 84h37l-41 -68q12 11 29 11q23 0 37.5 -15.5t14.5 -40.5q0 -37 -28 -62t-71 -25z" />
    <glyph glyph-name="onesuperior" unicode="&#xb9;" horiz-adv-x="208" 
d="M189 421h-44l74 338l-74 -64l-22 29l115 97h39z" />
    <glyph glyph-name="ordmasculine" unicode="&#xba;" horiz-adv-x="343" 
d="M202 318q-55 0 -85.5 33.5t-30.5 91.5q0 73 44.5 139t113.5 66q55 0 86 -33.5t31 -91.5q0 -73 -45 -139t-114 -66zM203 354q51 0 83 56.5t32 113.5q0 40 -20 63.5t-55 23.5q-51 0 -82.5 -55.5t-31.5 -113.5q0 -41 20 -64.5t54 -23.5z" />
    <glyph glyph-name="guillemotright" unicode="&#xbb;" horiz-adv-x="350" 
d="M75 420h48l85 -180l-165 -177h-54l169 182zM189 420h48l85 -180l-165 -177h-54l168 182z" />
    <glyph glyph-name="onequarter" unicode="&#xbc;" horiz-adv-x="644" 
d="M155 267h-44l74 338l-74 -64l-22 29l115 97h39zM584 107h-49l-23 -107h-43l23 107h-167l8 36l210 257h57l-57 -256h48zM500 144l46 206l-171 -206h125zM589 667l-496 -667h-41l496 667h41z" />
    <glyph glyph-name="onehalf" unicode="&#xbd;" horiz-adv-x="678" 
d="M155 267h-44l74 338l-74 -64l-22 29l115 97h39zM586 0h-238l8 36q155 129 189 163q62 62 62 109q0 30 -21 45.5t-50 15.5q-56 0 -94 -49l-24 29q49 57 119 57q47 0 81 -24.5t34 -71.5q0 -61 -86 -143q-28 -27 -151 -130h178zM589 667l-496 -667h-41l496 667h41z" />
    <glyph glyph-name="threequarters" unicode="&#xbe;" horiz-adv-x="720" 
d="M661 107h-49l-23 -107h-43l23 107h-167l8 36l210 257h57l-57 -256h48zM577 144l46 206l-171 -206h125zM665 667l-496 -667h-41l496 667h41zM312 386q0 -47 -35.5 -86.5t-93.5 -39.5q-45 0 -78.5 19t-47.5 53l33 23q27 -58 92 -58q40 0 62.5 29.5t22.5 67.5
q0 28 -21.5 44.5t-54.5 16.5q-21 0 -27 -1l8 38q20 -2 44 -2q38 0 63 23t25 62q0 27 -21 44t-53 17q-48 0 -92 -46l-22 27q49 56 117 56q51 0 83 -24t32 -69q0 -42 -27.5 -73.5t-71.5 -37.5q27 -6 45 -28.5t18 -54.5z" />
    <glyph glyph-name="questiondown" unicode="&#xbf;" horiz-adv-x="328" 
d="M176 284l46 23q19 -31 19 -67q0 -39 -22 -71t-54 -55l-64 -45t-54 -53.5t-22 -69.5q0 -39 28.5 -65t77.5 -26q67 0 119 49l23 -39q-66 -60 -149 -60q-71 0 -115 38t-44 94q0 46 23 83.5t56.5 62.5l66.5 47.5t56 49.5t23 57q0 27 -14 47zM245 492q17 0 28 -11t11 -28
q0 -19 -13.5 -32.5t-33.5 -13.5q-17 0 -28.5 11.5t-11.5 27.5q0 19 14 32.5t34 13.5z" />
    <glyph glyph-name="Agrave" unicode="&#xc0;" horiz-adv-x="492" 
d="M426 0h-58l-12 165h-251l-84 -165h-63l348 667h66zM355 215l-28 387l-198 -387h226zM395 723h-39l-103 144h58z" />
    <glyph glyph-name="Aacute" unicode="&#xc1;" horiz-adv-x="492" 
d="M426 0h-58l-12 165h-251l-84 -165h-63l348 667h66zM355 215l-28 387l-198 -387h226zM514 867l-167 -144h-41l148 144h60z" />
    <glyph glyph-name="Acircumflex" unicode="&#xc2;" horiz-adv-x="492" 
d="M462 723h-34l-51 112l-96 -112h-38l114 144h52zM426 0h-58l-12 165h-251l-84 -165h-63l348 667h66zM355 215l-28 387l-198 -387h226z" />
    <glyph glyph-name="Atilde" unicode="&#xc3;" horiz-adv-x="492" 
d="M426 0h-58l-12 165h-251l-84 -165h-63l348 667h66zM355 215l-28 387l-198 -387h226zM409 721q-23 0 -36.5 16t-17 35.5t-12.5 35.5t-25 16q-40 0 -61 -97h-34q29 134 102 134q23 0 36 -16t16.5 -35.5t13 -35.5t25.5 -16q38 0 61 97h34q-29 -134 -102 -134z" />
    <glyph glyph-name="Adieresis" unicode="&#xc4;" horiz-adv-x="492" 
d="M482 772q0 -16 -12 -28.5t-29 -12.5q-14 0 -23 9.5t-9 23.5q0 16 12 28t29 12q14 0 23 -9t9 -23zM314 772q0 -17 -12 -29t-28 -12q-14 0 -23.5 9.5t-9.5 23.5q0 16 12 28t29 12q14 0 23 -9t9 -23zM426 0h-58l-12 165h-251l-84 -165h-63l348 667h66zM355 215l-28 387
l-198 -387h226z" />
    <glyph glyph-name="Aring" unicode="&#xc5;" horiz-adv-x="492" 
d="M426 0h-58l-12 165h-251l-84 -165h-63l348 667h66zM355 215l-28 387l-198 -387h226zM355 692q-35 0 -57 22.5t-22 57.5q0 39 29 68t68 29q34 0 56.5 -22.5t22.5 -57.5q0 -40 -29 -68.5t-68 -28.5zM357 723q26 0 45 18.5t19 44.5q0 23 -13.5 37.5t-35.5 14.5
q-26 0 -45.5 -19t-19.5 -45q0 -22 14 -36.5t36 -14.5z" />
    <glyph glyph-name="AE" unicode="&#xc6;" horiz-adv-x="735" 
d="M627 0h-325l36 165h-200l-113 -165h-63l464 667h348l-10 -50h-270l-56 -250h263l-11 -50h-263l-59 -267h270zM349 215l84 381l-262 -381h178z" />
    <glyph glyph-name="Ccedilla" unicode="&#xc7;" horiz-adv-x="523" 
d="M212 -189q-58 0 -90 37l22 29q26 -33 71 -33q28 0 43.5 15t15.5 38q0 30 -33 30q-20 0 -33 -16l-24 16l38 65q-77 13 -122 73t-45 157q0 106 38.5 210t111 175t158.5 71q70 0 118.5 -37.5t70.5 -103.5l-53 -17q-38 107 -141 107q-65 0 -122.5 -64t-89.5 -157t-32 -184
q0 -87 41 -135t114 -48t143 81l42 -29q-81 -103 -189 -103h-8l-27 -45q12 11 29 11q23 0 37.5 -15.5t14.5 -40.5q0 -37 -28 -62t-71 -25z" />
    <glyph glyph-name="Egrave" unicode="&#xc8;" horiz-adv-x="452" 
d="M347 0h-326l147 667h326l-11 -50h-270l-55 -250h263l-12 -50h-263l-59 -267h271zM387 723h-39l-103 144h58z" />
    <glyph glyph-name="Eacute" unicode="&#xc9;" horiz-adv-x="452" 
d="M505 867l-167 -144h-41l148 144h60zM347 0h-326l147 667h326l-11 -50h-270l-55 -250h263l-12 -50h-263l-59 -267h271z" />
    <glyph glyph-name="Ecircumflex" unicode="&#xca;" horiz-adv-x="452" 
d="M453 723h-34l-51 112l-96 -112h-38l114 144h52zM347 0h-326l147 667h326l-11 -50h-270l-55 -250h263l-12 -50h-263l-59 -267h271z" />
    <glyph glyph-name="Edieresis" unicode="&#xcb;" horiz-adv-x="452" 
d="M473 772q0 -16 -12.5 -28.5t-28.5 -12.5q-14 0 -23 9.5t-9 23.5q0 16 12 28t29 12q13 0 22.5 -9t9.5 -23zM305 772q0 -17 -12 -29t-28 -12q-14 0 -23.5 9.5t-9.5 23.5q0 16 12 28t29 12q13 0 22.5 -9t9.5 -23zM347 0h-326l147 667h326l-11 -50h-270l-55 -250h263l-12 -50
h-263l-59 -267h271z" />
    <glyph glyph-name="Igrave" unicode="&#xcc;" horiz-adv-x="206" 
d="M77 0h-56l147 667h56zM252 723h-39l-103 144h58z" />
    <glyph glyph-name="Iacute" unicode="&#xcd;" horiz-adv-x="206" 
d="M77 0h-56l147 667h56zM371 867l-167 -144h-41l148 144h60z" />
    <glyph glyph-name="Icircumflex" unicode="&#xce;" horiz-adv-x="206" 
d="M319 723h-34l-51 112l-96 -112h-38l114 144h52zM77 0h-56l147 667h56z" />
    <glyph glyph-name="Idieresis" unicode="&#xcf;" horiz-adv-x="206" 
d="M339 772q0 -16 -12.5 -28.5t-28.5 -12.5q-14 0 -23 9.5t-9 23.5q0 16 12 28t29 12q13 0 22.5 -9t9.5 -23zM171 772q0 -17 -12 -29t-28 -12q-14 0 -23.5 9.5t-9.5 23.5q0 16 12 28t29 12q13 0 22.5 -9t9.5 -23zM77 0h-56l147 667h56z" />
    <glyph glyph-name="Eth" unicode="&#xd0;" horiz-adv-x="573" 
d="M207 0h-162l68 310h-82l11 48h82l68 309h158q83 0 141 -64t58 -174q0 -49 -11.5 -104t-38 -113.5t-64.5 -105t-97.5 -76.5t-130.5 -30zM303 310h-134l-58 -260h105q65 0 119.5 38.5t87 97t50.5 122t18 120.5q0 87 -43 138t-109 51h-102l-58 -259h135z" />
    <glyph glyph-name="Ntilde" unicode="&#xd1;" horiz-adv-x="557" 
d="M441 721q-23 0 -36.5 16t-17 35.5t-12.5 35.5t-25 16q-40 0 -61 -97h-34q29 134 102 134q23 0 36 -16t16.5 -35.5t13 -35.5t25.5 -16q38 0 61 97h34q-29 -134 -102 -134zM428 0h-54l-175 555l-122 -555h-56l147 667h56l174 -546l121 546h56z" />
    <glyph glyph-name="Ograve" unicode="&#xd2;" horiz-adv-x="590" 
d="M444 723h-39l-103 144h58zM265 -12q-95 0 -152.5 64t-57.5 170q0 100 36.5 203t109.5 178t162 75q95 0 152.5 -64.5t57.5 -170.5q0 -75 -22 -154t-60.5 -146.5t-98 -111t-127.5 -43.5zM269 39q66 0 124 63t89.5 156t31.5 186q0 86 -43 134.5t-113 48.5
q-67 0 -124.5 -63.5t-88.5 -156t-31 -185.5q0 -87 42.5 -135t112.5 -48z" />
    <glyph glyph-name="Oacute" unicode="&#xd3;" horiz-adv-x="590" 
d="M563 867l-167 -144h-41l148 144h60zM265 -12q-95 0 -152.5 64t-57.5 170q0 100 36.5 203t109.5 178t162 75q95 0 152.5 -64.5t57.5 -170.5q0 -75 -22 -154t-60.5 -146.5t-98 -111t-127.5 -43.5zM269 39q66 0 124 63t89.5 156t31.5 186q0 86 -43 134.5t-113 48.5
q-67 0 -124.5 -63.5t-88.5 -156t-31 -185.5q0 -87 42.5 -135t112.5 -48z" />
    <glyph glyph-name="Ocircumflex" unicode="&#xd4;" horiz-adv-x="590" 
d="M511 723h-34l-51 112l-96 -112h-38l114 144h52zM265 -12q-95 0 -152.5 64t-57.5 170q0 100 36.5 203t109.5 178t162 75q95 0 152.5 -64.5t57.5 -170.5q0 -75 -22 -154t-60.5 -146.5t-98 -111t-127.5 -43.5zM269 39q66 0 124 63t89.5 156t31.5 186q0 86 -43 134.5
t-113 48.5q-67 0 -124.5 -63.5t-88.5 -156t-31 -185.5q0 -87 42.5 -135t112.5 -48z" />
    <glyph glyph-name="Otilde" unicode="&#xd5;" horiz-adv-x="590" 
d="M265 -12q-95 0 -152.5 64t-57.5 170q0 100 36.5 203t109.5 178t162 75q95 0 152.5 -64.5t57.5 -170.5q0 -75 -22 -154t-60.5 -146.5t-98 -111t-127.5 -43.5zM269 39q66 0 124 63t89.5 156t31.5 186q0 86 -43 134.5t-113 48.5q-67 0 -124.5 -63.5t-88.5 -156t-31 -185.5
q0 -87 42.5 -135t112.5 -48zM458 721q-23 0 -36.5 16t-17 35.5t-12.5 35.5t-25 16q-40 0 -61 -97h-34q29 134 102 134q23 0 36 -16t16.5 -35.5t13 -35.5t25.5 -16q38 0 61 97h34q-29 -134 -102 -134z" />
    <glyph glyph-name="Odieresis" unicode="&#xd6;" horiz-adv-x="590" 
d="M531 772q0 -16 -12.5 -28.5t-28.5 -12.5q-14 0 -23 9.5t-9 23.5q0 16 12 28t29 12q13 0 22.5 -9t9.5 -23zM363 772q0 -17 -12 -29t-28 -12q-14 0 -23.5 9.5t-9.5 23.5q0 16 12 28t29 12q13 0 22.5 -9t9.5 -23zM265 -12q-95 0 -152.5 64t-57.5 170q0 100 36.5 203
t109.5 178t162 75q95 0 152.5 -64.5t57.5 -170.5q0 -75 -22 -154t-60.5 -146.5t-98 -111t-127.5 -43.5zM269 39q66 0 124 63t89.5 156t31.5 186q0 86 -43 134.5t-113 48.5q-67 0 -124.5 -63.5t-88.5 -156t-31 -185.5q0 -87 42.5 -135t112.5 -48z" />
    <glyph glyph-name="multiply" unicode="&#xd7;" horiz-adv-x="436" 
d="M335 176l-101 130l-161 -133l-25 32l162 132l-101 129l32 26l100 -129l161 132l25 -32l-161 -132l101 -129z" />
    <glyph glyph-name="Oslash" unicode="&#xd8;" horiz-adv-x="590" 
d="M265 -12q-86 0 -142 53l-30 -41h-47l51 70q-42 61 -42 152q0 100 36.5 203t109.5 178t162 75q85 0 140 -53l31 42h47l-52 -71q44 -63 44 -153q0 -75 -22 -154t-60.5 -146.5t-98 -111t-127.5 -43.5zM269 39q66 0 124 63t89.5 156t31.5 186q0 58 -22 102l-336 -459
q42 -48 113 -48zM114 222q0 -59 20 -101l336 458q-43 48 -112 48q-67 0 -124.5 -63.5t-88.5 -156t-31 -185.5z" />
    <glyph glyph-name="Ugrave" unicode="&#xd9;" horiz-adv-x="551" 
d="M249 -12q-86 0 -136 46t-50 127q0 27 5 49l100 457h56l-101 -458q-5 -17 -5 -42q0 -59 36 -94t97 -35q66 0 104 41.5t58 129.5l100 458h56l-101 -457q-25 -112 -76 -167t-143 -55zM424 723h-39l-103 144h58z" />
    <glyph glyph-name="Uacute" unicode="&#xda;" horiz-adv-x="551" 
d="M544 867l-167 -144h-41l148 144h60zM249 -12q-86 0 -136 46t-50 127q0 27 5 49l100 457h56l-101 -458q-5 -17 -5 -42q0 -59 36 -94t97 -35q66 0 104 41.5t58 129.5l100 458h56l-101 -457q-25 -112 -76 -167t-143 -55z" />
    <glyph glyph-name="Ucircumflex" unicode="&#xdb;" horiz-adv-x="551" 
d="M491 723h-34l-51 112l-96 -112h-38l114 144h52zM249 -12q-86 0 -136 46t-50 127q0 27 5 49l100 457h56l-101 -458q-5 -17 -5 -42q0 -59 36 -94t97 -35q66 0 104 41.5t58 129.5l100 458h56l-101 -457q-25 -112 -76 -167t-143 -55z" />
    <glyph glyph-name="Udieresis" unicode="&#xdc;" horiz-adv-x="551" 
d="M511 772q0 -16 -12.5 -28.5t-28.5 -12.5q-14 0 -23 9.5t-9 23.5q0 16 12 28t29 12q13 0 22.5 -9t9.5 -23zM343 772q0 -17 -12 -29t-28 -12q-14 0 -23.5 9.5t-9.5 23.5q0 16 12 28t29 12q13 0 22.5 -9t9.5 -23zM249 -12q-86 0 -136 46t-50 127q0 27 5 49l100 457h56
l-101 -458q-5 -17 -5 -42q0 -59 36 -94t97 -35q66 0 104 41.5t58 129.5l100 458h56l-101 -457q-25 -112 -76 -167t-143 -55z" />
    <glyph glyph-name="Yacute" unicode="&#xdd;" horiz-adv-x="483" 
d="M215 0h-55l63 286l-122 381h60l98 -325l242 325h67l-290 -381zM509 867l-167 -144h-41l148 144h60z" />
    <glyph glyph-name="Thorn" unicode="&#xde;" horiz-adv-x="468" 
d="M77 0h-56l147 667h56l-27 -124h116q63 0 104 -44.5t41 -111.5q0 -89 -56.5 -161t-164.5 -72h-127zM243 204q74 0 115 54t41 126q0 47 -27.5 77.5t-70.5 30.5h-116l-63 -288h121z" />
    <glyph glyph-name="germandbls" unicode="&#xdf;" horiz-adv-x="501" 
d="M460 137q0 -59 -43 -104t-115 -45q-102 0 -159 77l35 33q47 -67 123 -67q46 0 76 29.5t30 71.5q0 25 -19 45.5t-46.5 35.5l-54.5 31t-46 42t-19 60q0 36 18 63t43.5 43l51 30.5t43.5 33.5t18 44q0 33 -26 52.5t-64 19.5q-42 0 -74 -29t-44 -83l-115 -520h-51l115 520
q16 72 61.5 114.5t110.5 42.5q57 0 98 -30.5t41 -79.5q0 -35 -18 -60.5t-44 -41l-51.5 -29.5t-43.5 -34.5t-18 -47.5q0 -25 19.5 -45.5t46.5 -35.5l54.5 -31.5t47 -43t19.5 -61.5z" />
    <glyph glyph-name="agrave" unicode="&#xe0;" 
d="M255 495q43 0 77.5 -23.5t51.5 -65.5l17 77h50l-107 -483h-50l15 69q-53 -81 -133 -81q-64 0 -102 44.5t-38 123.5q0 74 25 150t77 132.5t117 56.5zM260 450q-50 0 -90.5 -50t-60 -115t-19.5 -123q0 -62 27 -95.5t76 -33.5q36 0 71.5 27t57.5 65l52 235q-11 38 -42 64
t-72 26zM341 556h-39l-103 144h58z" />
    <glyph glyph-name="aacute" unicode="&#xe1;" 
d="M255 495q43 0 77.5 -23.5t51.5 -65.5l17 77h50l-107 -483h-50l15 69q-53 -81 -133 -81q-64 0 -102 44.5t-38 123.5q0 74 25 150t77 132.5t117 56.5zM260 450q-50 0 -90.5 -50t-60 -115t-19.5 -123q0 -62 27 -95.5t76 -33.5q36 0 71.5 27t57.5 65l52 235q-11 38 -42 64
t-72 26zM459 700l-167 -144h-41l148 144h60z" />
    <glyph glyph-name="acircumflex" unicode="&#xe2;" 
d="M255 495q43 0 77.5 -23.5t51.5 -65.5l17 77h50l-107 -483h-50l15 69q-53 -81 -133 -81q-64 0 -102 44.5t-38 123.5q0 74 25 150t77 132.5t117 56.5zM260 450q-50 0 -90.5 -50t-60 -115t-19.5 -123q0 -62 27 -95.5t76 -33.5q36 0 71.5 27t57.5 65l52 235q-11 38 -42 64
t-72 26zM407 556h-34l-51 112l-96 -112h-38l114 144h52z" />
    <glyph glyph-name="atilde" unicode="&#xe3;" 
d="M255 495q43 0 77.5 -23.5t51.5 -65.5l17 77h50l-107 -483h-50l15 69q-53 -81 -133 -81q-64 0 -102 44.5t-38 123.5q0 74 25 150t77 132.5t117 56.5zM260 450q-50 0 -90.5 -50t-60 -115t-19.5 -123q0 -62 27 -95.5t76 -33.5q36 0 71.5 27t57.5 65l52 235q-11 38 -42 64
t-72 26zM354 554q-23 0 -36.5 16t-17 35.5t-12.5 35.5t-25 16q-40 0 -61 -97h-34q29 134 102 134q23 0 36 -16t16.5 -35.5t13 -35.5t25.5 -16q38 0 61 97h34q-29 -134 -102 -134z" />
    <glyph glyph-name="adieresis" unicode="&#xe4;" 
d="M255 495q43 0 77.5 -23.5t51.5 -65.5l17 77h50l-107 -483h-50l15 69q-53 -81 -133 -81q-64 0 -102 44.5t-38 123.5q0 74 25 150t77 132.5t117 56.5zM260 450q-50 0 -90.5 -50t-60 -115t-19.5 -123q0 -62 27 -95.5t76 -33.5q36 0 71.5 27t57.5 65l52 235q-11 38 -42 64
t-72 26zM427 605q0 -17 -12.5 -29t-28.5 -12q-14 0 -23 9.5t-9 23.5q0 16 12 28t29 12q13 0 22.5 -9.5t9.5 -22.5zM259 605q0 -17 -12 -29t-28 -12q-14 0 -23.5 9.5t-9.5 23.5q0 16 12 28t29 12q13 0 22.5 -9.5t9.5 -22.5z" />
    <glyph glyph-name="aring" unicode="&#xe5;" 
d="M255 495q43 0 77.5 -23.5t51.5 -65.5l17 77h50l-107 -483h-50l15 69q-53 -81 -133 -81q-64 0 -102 44.5t-38 123.5q0 74 25 150t77 132.5t117 56.5zM260 450q-50 0 -90.5 -50t-60 -115t-19.5 -123q0 -62 27 -95.5t76 -33.5q36 0 71.5 27t57.5 65l52 235q-11 38 -42 64
t-72 26zM305 543q-35 0 -57 22.5t-22 57.5q0 39 29 68t68 29q34 0 56.5 -22.5t22.5 -57.5q0 -40 -29 -68.5t-68 -28.5zM307 574q26 0 45 18.5t19 44.5q0 23 -13.5 37.5t-35.5 14.5q-26 0 -45.5 -19t-19.5 -45q0 -22 14 -36.5t36 -14.5z" />
    <glyph glyph-name="ae" unicode="&#xe6;" horiz-adv-x="761" 
d="M260 450q-50 0 -90.5 -50t-60 -115t-19.5 -123q0 -62 27 -95.5t76 -33.5q36 0 71.5 27t57.5 65l52 235q-11 38 -42 64t-72 26zM371 119l-27 -119h-50l15 69q-53 -81 -133 -81q-64 0 -102 44.5t-38 123.5q0 74 25 150t77 132.5t117 56.5q43 0 77.5 -23.5t51.5 -65.5l17 77
h50l-17 -82q25 40 63.5 67t83.5 27q69 0 107 -45t38 -129q0 -48 -13 -96h-317q-5 -28 -5 -53q0 -62 34 -101t97 -39q61 0 114 56l23 -36q-64 -64 -135 -64q-64 0 -103.5 34t-49.5 97zM403 265h268q6 34 6 54q0 59 -28 96t-82 37q-59 0 -105 -57.5t-59 -129.5z" />
    <glyph glyph-name="ccedilla" unicode="&#xe7;" horiz-adv-x="400" 
d="M154 -189q-58 0 -90 37l22 29q26 -33 71 -33q28 0 43.5 15t15.5 38q0 30 -33 30q-20 0 -33 -16l-24 16l38 65q-59 12 -93 59t-34 124q0 74 28 146.5t84 123t124 50.5q90 0 132 -69l-36 -32q-31 56 -96 56q-55 0 -98.5 -46.5t-63.5 -108.5t-20 -122q0 -69 32.5 -104.5
t86.5 -35.5q55 0 98 48l24 -36q-55 -57 -127 -57h-6l-27 -45q12 11 29 11q23 0 37.5 -15.5t14.5 -40.5q0 -37 -28 -62t-71 -25z" />
    <glyph glyph-name="egrave" unicode="&#xe8;" horiz-adv-x="463" 
d="M216 -12q-84 0 -131.5 49t-47.5 137q0 66 26 138t81 127.5t125 55.5q73 0 115.5 -46.5t42.5 -129.5q0 -48 -13 -94h-320q-5 -28 -5 -53q0 -63 33.5 -102t96.5 -39t117 56l24 -34q-65 -65 -144 -65zM101 265h271q7 30 7 54q0 58 -30 95.5t-85 37.5q-59 0 -105 -58
t-58 -129zM350 556h-39l-103 144h58z" />
    <glyph glyph-name="eacute" unicode="&#xe9;" horiz-adv-x="463" 
d="M468 700l-167 -144h-41l148 144h60zM216 -12q-84 0 -131.5 49t-47.5 137q0 66 26 138t81 127.5t125 55.5q73 0 115.5 -46.5t42.5 -129.5q0 -48 -13 -94h-320q-5 -28 -5 -53q0 -63 33.5 -102t96.5 -39t117 56l24 -34q-65 -65 -144 -65zM101 265h271q7 30 7 54
q0 58 -30 95.5t-85 37.5q-59 0 -105 -58t-58 -129z" />
    <glyph glyph-name="ecircumflex" unicode="&#xea;" horiz-adv-x="463" 
d="M415 556h-34l-51 112l-96 -112h-38l114 144h52zM216 -12q-84 0 -131.5 49t-47.5 137q0 66 26 138t81 127.5t125 55.5q73 0 115.5 -46.5t42.5 -129.5q0 -48 -13 -94h-320q-5 -28 -5 -53q0 -63 33.5 -102t96.5 -39t117 56l24 -34q-65 -65 -144 -65zM101 265h271q7 30 7 54
q0 58 -30 95.5t-85 37.5q-59 0 -105 -58t-58 -129z" />
    <glyph glyph-name="edieresis" unicode="&#xeb;" horiz-adv-x="463" 
d="M436 605q0 -17 -12 -29t-29 -12q-14 0 -23 9.5t-9 23.5q0 16 12 28t29 12q14 0 23 -9.5t9 -22.5zM268 605q0 -17 -12 -29t-28 -12q-14 0 -23.5 9.5t-9.5 23.5q0 16 12 28t29 12q14 0 23 -9.5t9 -22.5zM216 -12q-84 0 -131.5 49t-47.5 137q0 66 26 138t81 127.5t125 55.5
q73 0 115.5 -46.5t42.5 -129.5q0 -48 -13 -94h-320q-5 -28 -5 -53q0 -63 33.5 -102t96.5 -39t117 56l24 -34q-65 -65 -144 -65zM101 265h271q7 30 7 54q0 58 -30 95.5t-85 37.5q-59 0 -105 -58t-58 -129z" />
    <glyph glyph-name="igrave" unicode="&#xec;" horiz-adv-x="192" 
d="M67 0h-50l107 483h50zM209 556h-39l-103 144h58z" />
    <glyph glyph-name="iacute" unicode="&#xed;" horiz-adv-x="192" 
d="M327 700l-167 -144h-41l148 144h60zM67 0h-50l107 483h50z" />
    <glyph glyph-name="icircumflex" unicode="&#xee;" horiz-adv-x="192" 
d="M275 556h-34l-51 112l-96 -112h-38l114 144h52zM67 0h-50l107 483h50z" />
    <glyph glyph-name="idieresis" unicode="&#xef;" horiz-adv-x="192" 
d="M295 605q0 -17 -12.5 -29t-28.5 -12q-14 0 -23 9.5t-9 23.5q0 16 12 28t29 12q13 0 22.5 -9.5t9.5 -22.5zM127 605q0 -17 -12 -29t-28 -12q-14 0 -23.5 9.5t-9.5 23.5q0 16 12 28t29 12q13 0 22.5 -9.5t9.5 -22.5zM67 0h-50l107 483h50z" />
    <glyph glyph-name="eth" unicode="&#xf0;" 
d="M180 523l-8 32l128 38q-23 36 -51 67l45 29q36 -46 58 -80l96 29l8 -32l-86 -26q65 -113 65 -224q0 -85 -26 -168t-81 -141.5t-125 -58.5q-78 0 -122 48t-44 131q0 118 64.5 219.5t156.5 101.5q40 0 73.5 -22t49.5 -66q-20 86 -64 164zM203 33q48 0 89 47t62 110.5
t21 121.5q0 52 -28 91t-85 39q-48 0 -88.5 -46t-61.5 -108t-21 -119q0 -66 29.5 -101t82.5 -35z" />
    <glyph glyph-name="ntilde" unicode="&#xf1;" horiz-adv-x="450" 
d="M325 0h-51l79 355q5 22 5 31q0 64 -73 64q-69 0 -138 -87l-80 -363h-50l107 483h50l-15 -70q69 82 144 82q49 0 78.5 -24.5t29.5 -69.5q0 -14 -5 -37zM352 554q-23 0 -36.5 16t-17 35.5t-12.5 35.5t-25 16q-40 0 -61 -97h-34q29 134 102 134q23 0 36 -16t16.5 -35.5
t13 -35.5t25.5 -16q38 0 61 97h34q-29 -134 -102 -134z" />
    <glyph glyph-name="ograve" unicode="&#xf2;" 
d="M199 -12q-75 0 -118.5 47t-43.5 133q0 75 27.5 149t82 126t121.5 52q75 0 119 -47t44 -133q0 -75 -27.5 -149t-82.5 -126t-122 -52zM201 33q50 0 92 47.5t63 111t21 122.5q0 67 -29 101.5t-82 34.5q-50 0 -92 -47.5t-63 -111.5t-21 -122q0 -67 29.5 -101.5t81.5 -34.5z
M348 556h-39l-103 144h58z" />
    <glyph glyph-name="oacute" unicode="&#xf3;" 
d="M465 700l-167 -144h-41l148 144h60zM199 -12q-75 0 -118.5 47t-43.5 133q0 75 27.5 149t82 126t121.5 52q75 0 119 -47t44 -133q0 -75 -27.5 -149t-82.5 -126t-122 -52zM201 33q50 0 92 47.5t63 111t21 122.5q0 67 -29 101.5t-82 34.5q-50 0 -92 -47.5t-63 -111.5
t-21 -122q0 -67 29.5 -101.5t81.5 -34.5z" />
    <glyph glyph-name="ocircumflex" unicode="&#xf4;" 
d="M414 556h-34l-51 112l-96 -112h-38l114 144h52zM199 -12q-75 0 -118.5 47t-43.5 133q0 75 27.5 149t82 126t121.5 52q75 0 119 -47t44 -133q0 -75 -27.5 -149t-82.5 -126t-122 -52zM201 33q50 0 92 47.5t63 111t21 122.5q0 67 -29 101.5t-82 34.5q-50 0 -92 -47.5
t-63 -111.5t-21 -122q0 -67 29.5 -101.5t81.5 -34.5z" />
    <glyph glyph-name="otilde" unicode="&#xf5;" 
d="M199 -12q-75 0 -118.5 47t-43.5 133q0 75 27.5 149t82 126t121.5 52q75 0 119 -47t44 -133q0 -75 -27.5 -149t-82.5 -126t-122 -52zM201 33q50 0 92 47.5t63 111t21 122.5q0 67 -29 101.5t-82 34.5q-50 0 -92 -47.5t-63 -111.5t-21 -122q0 -67 29.5 -101.5t81.5 -34.5z
M361 554q-23 0 -36.5 16t-17 35.5t-12.5 35.5t-25 16q-40 0 -61 -97h-34q29 134 102 134q23 0 36 -16t16.5 -35.5t13 -35.5t25.5 -16q38 0 61 97h34q-29 -134 -102 -134z" />
    <glyph glyph-name="odieresis" unicode="&#xf6;" 
d="M434 605q0 -17 -12 -29t-29 -12q-14 0 -23 9.5t-9 23.5q0 16 12 28t29 12q14 0 23 -9.5t9 -22.5zM266 605q0 -17 -12 -29t-28 -12q-14 0 -23.5 9.5t-9.5 23.5q0 16 12 28t29 12q14 0 23 -9.5t9 -22.5zM199 -12q-75 0 -118.5 47t-43.5 133q0 75 27.5 149t82 126t121.5 52
q75 0 119 -47t44 -133q0 -75 -27.5 -149t-82.5 -126t-122 -52zM201 33q50 0 92 47.5t63 111t21 122.5q0 67 -29 101.5t-82 34.5q-50 0 -92 -47.5t-63 -111.5t-21 -122q0 -67 29.5 -101.5t81.5 -34.5z" />
    <glyph glyph-name="divide" unicode="&#xf7;" horiz-adv-x="443" 
d="M429 317h-384l9 40h385zM201 127q-15 0 -25.5 10.5t-10.5 25.5q0 17 12.5 29.5t30.5 12.5q15 0 25 -10.5t10 -25.5q0 -18 -12.5 -30t-29.5 -12zM276 465q-15 0 -25.5 10.5t-10.5 25.5q0 17 12.5 29t30.5 12q15 0 25 -10t10 -25q0 -18 -12.5 -30t-29.5 -12z" />
    <glyph glyph-name="oslash" unicode="&#xf8;" 
d="M51 0h-43l52 63q-23 43 -23 105q0 75 27.5 149t82 126t121.5 52q74 0 117 -45l28 33h43l-51 -60q26 -43 26 -108q0 -75 -27.5 -149t-82.5 -126t-122 -52q-77 0 -119 47zM201 33q50 0 92 47.5t63 111t21 122.5q0 37 -9 64l-254 -303q28 -42 87 -42zM90 169q0 -34 8 -61
l254 302q-29 40 -86 40q-50 0 -92 -47.5t-63 -111.5t-21 -122z" />
    <glyph glyph-name="ugrave" unicode="&#xf9;" horiz-adv-x="450" 
d="M124 483h50l-78 -355q-5 -23 -5 -31q0 -64 74 -64q35 0 71.5 24.5t64.5 60.5l80 365h51l-107 -483h-51l16 70q-69 -82 -145 -82q-49 0 -78 24.5t-29 69.5q0 14 5 37zM339 556h-39l-103 144h58z" />
    <glyph glyph-name="uacute" unicode="&#xfa;" horiz-adv-x="450" 
d="M456 700l-167 -144h-41l148 144h60zM124 483h50l-78 -355q-5 -23 -5 -31q0 -64 74 -64q35 0 71.5 24.5t64.5 60.5l80 365h51l-107 -483h-51l16 70q-69 -82 -145 -82q-49 0 -78 24.5t-29 69.5q0 14 5 37z" />
    <glyph glyph-name="ucircumflex" unicode="&#xfb;" horiz-adv-x="450" 
d="M404 556h-34l-51 112l-96 -112h-38l114 144h52zM124 483h50l-78 -355q-5 -23 -5 -31q0 -64 74 -64q35 0 71.5 24.5t64.5 60.5l80 365h51l-107 -483h-51l16 70q-69 -82 -145 -82q-49 0 -78 24.5t-29 69.5q0 14 5 37z" />
    <glyph glyph-name="udieresis" unicode="&#xfc;" horiz-adv-x="450" 
d="M424 605q0 -17 -12 -29t-29 -12q-14 0 -23 9.5t-9 23.5q0 16 12 28t29 12q14 0 23 -9.5t9 -22.5zM256 605q0 -17 -12 -29t-28 -12q-14 0 -23.5 9.5t-9.5 23.5q0 16 12 28t29 12q14 0 23 -9.5t9 -22.5zM124 483h50l-78 -355q-5 -23 -5 -31q0 -64 74 -64q35 0 71.5 24.5
t64.5 60.5l80 365h51l-107 -483h-51l16 70q-69 -82 -145 -82q-49 0 -78 24.5t-29 69.5q0 14 5 37z" />
    <glyph glyph-name="yacute" unicode="&#xfd;" horiz-adv-x="392" 
d="M-55 -186l19 45q11 -8 35 -8q18 0 32 11.5t31 40.5l49 88l-48 492h54l36 -421l224 421h58l-327 -593q-48 -86 -114 -86q-29 0 -49 10zM424 700l-167 -144h-41l148 144h60z" />
    <glyph glyph-name="thorn" unicode="&#xfe;" horiz-adv-x="467" 
d="M213 -12q-43 0 -77 23.5t-52 65.5l-58 -261h-50l188 851h50l-55 -253q53 81 133 81q64 0 102 -44.5t38 -123.5q0 -73 -25 -149.5t-77 -133t-117 -56.5zM209 33q49 0 89.5 50t60 115t19.5 123q0 62 -27 95.5t-75 33.5q-37 0 -72 -26.5t-58 -65.5l-52 -235q11 -38 42.5 -64
t72.5 -26z" />
    <glyph glyph-name="ydieresis" unicode="&#xff;" horiz-adv-x="392" 
d="M-55 -186l19 45q11 -8 35 -8q18 0 32 11.5t31 40.5l49 88l-48 492h54l36 -421l224 421h58l-327 -593q-48 -86 -114 -86q-29 0 -49 10zM393 605q0 -17 -12.5 -29t-28.5 -12q-14 0 -23 9.5t-9 23.5q0 16 12 28t29 12q13 0 22.5 -9.5t9.5 -22.5zM225 605q0 -17 -12 -29
t-28 -12q-14 0 -23.5 9.5t-9.5 23.5q0 16 12 28t29 12q13 0 22.5 -9.5t9.5 -22.5z" />
    <glyph glyph-name="Amacron" unicode="&#x100;" horiz-adv-x="492" 
d="M426 0h-58l-12 165h-251l-84 -165h-63l348 667h66zM355 215l-28 387l-198 -387h226zM508 744h-302l8 37h302z" />
    <glyph glyph-name="amacron" unicode="&#x101;" 
d="M255 495q43 0 77.5 -23.5t51.5 -65.5l17 77h50l-107 -483h-50l15 69q-53 -81 -133 -81q-64 0 -102 44.5t-38 123.5q0 74 25 150t77 132.5t117 56.5zM260 450q-50 0 -90.5 -50t-60 -115t-19.5 -123q0 -62 27 -95.5t76 -33.5q36 0 71.5 27t57.5 65l52 235q-11 38 -42 64
t-72 26zM453 577h-302l8 37h302z" />
    <glyph glyph-name="Abreve" unicode="&#x102;" horiz-adv-x="492" 
d="M426 0h-58l-12 165h-251l-84 -165h-63l348 667h66zM355 215l-28 387l-198 -387h226zM507 789q-71 -74 -162 -74q-44 0 -78.5 20t-52.5 54l32 24q30 -61 105 -61q74 0 130 61z" />
    <glyph glyph-name="abreve" unicode="&#x103;" 
d="M255 495q43 0 77.5 -23.5t51.5 -65.5l17 77h50l-107 -483h-50l15 69q-53 -81 -133 -81q-64 0 -102 44.5t-38 123.5q0 74 25 150t77 132.5t117 56.5zM260 450q-50 0 -90.5 -50t-60 -115t-19.5 -123q0 -62 27 -95.5t76 -33.5q36 0 71.5 27t57.5 65l52 235q-11 38 -42 64
t-72 26zM453 622q-71 -74 -162 -74q-44 0 -78.5 20t-52.5 54l32 24q30 -61 105 -61q74 0 130 61z" />
    <glyph glyph-name="Aogonek" unicode="&#x104;" horiz-adv-x="492" 
d="M412 -114l26 -19q-29 -53 -80 -53q-31 0 -49 16.5t-18 46.5q0 68 77 123l-12 165h-251l-84 -165h-63l348 667h66l54 -667q-100 -51 -100 -118q0 -35 37 -35q31 0 49 39zM355 215l-28 387l-198 -387h226z" />
    <glyph glyph-name="aogonek" unicode="&#x105;" 
d="M330 -114l26 -19q-29 -53 -80 -53q-31 0 -49 16.5t-18 46.5q0 74 86 129l14 63q-53 -81 -133 -81q-64 0 -102 44.5t-38 123.5q0 74 25 150t77 132.5t117 56.5q43 0 77.5 -23.5t51.5 -65.5l17 77h50l-107 -483q-100 -51 -100 -118q0 -35 37 -35q31 0 49 39zM260 450
q-50 0 -90.5 -50t-60 -115t-19.5 -123q0 -62 27 -95.5t76 -33.5q36 0 71.5 27t57.5 65l52 235q-11 38 -42 64t-72 26z" />
    <glyph glyph-name="Cacute" unicode="&#x106;" horiz-adv-x="523" 
d="M564 872l-167 -144h-41l148 144h60zM265 -12q-95 0 -152.5 62t-57.5 172q0 106 38.5 210t111 175t158.5 71q70 0 118.5 -37.5t70.5 -103.5l-53 -17q-38 107 -141 107q-65 0 -122.5 -64t-89.5 -157t-32 -184q0 -87 41 -135t114 -48t143 81l42 -29q-81 -103 -189 -103z" />
    <glyph glyph-name="cacute" unicode="&#x107;" horiz-adv-x="400" 
d="M471 700l-167 -144h-41l148 144h60zM205 -12q-76 0 -122 48.5t-46 138.5q0 74 28 146.5t84 123t124 50.5q90 0 132 -69l-36 -32q-31 56 -96 56q-55 0 -98.5 -46.5t-63.5 -108.5t-20 -122q0 -69 32.5 -104.5t86.5 -35.5q55 0 98 48l24 -36q-55 -57 -127 -57z" />
    <glyph glyph-name="Ccircumflex" unicode="&#x108;" horiz-adv-x="523" 
d="M510 723h-34l-51 112l-96 -112h-38l114 144h52zM265 -12q-95 0 -152.5 62t-57.5 172q0 106 38.5 210t111 175t158.5 71q70 0 118.5 -37.5t70.5 -103.5l-53 -17q-38 107 -141 107q-65 0 -122.5 -64t-89.5 -157t-32 -184q0 -87 41 -135t114 -48t143 81l42 -29
q-81 -103 -189 -103z" />
    <glyph glyph-name="ccircumflex" unicode="&#x109;" horiz-adv-x="400" 
d="M419 556h-34l-51 112l-96 -112h-38l114 144h52zM205 -12q-76 0 -122 48.5t-46 138.5q0 74 28 146.5t84 123t124 50.5q90 0 132 -69l-36 -32q-31 56 -96 56q-55 0 -98.5 -46.5t-63.5 -108.5t-20 -122q0 -69 32.5 -104.5t86.5 -35.5q55 0 98 48l24 -36q-55 -57 -127 -57z
" />
    <glyph glyph-name="Cdotaccent" unicode="&#x10a;" horiz-adv-x="523" 
d="M265 -12q-95 0 -152.5 62t-57.5 172q0 106 38.5 210t111 175t158.5 71q70 0 118.5 -37.5t70.5 -103.5l-53 -17q-38 107 -141 107q-65 0 -122.5 -64t-89.5 -157t-32 -184q0 -87 41 -135t114 -48t143 81l42 -29q-81 -103 -189 -103zM447 769q0 -16 -12.5 -28.5t-29.5 -12.5
q-14 0 -23.5 9.5t-9.5 23.5q0 17 12 29.5t29 12.5q14 0 24 -10t10 -24z" />
    <glyph glyph-name="cdotaccent" unicode="&#x10b;" horiz-adv-x="400" 
d="M205 -12q-76 0 -122 48.5t-46 138.5q0 74 28 146.5t84 123t124 50.5q90 0 132 -69l-36 -32q-31 56 -96 56q-55 0 -98.5 -46.5t-63.5 -108.5t-20 -122q0 -69 32.5 -104.5t86.5 -35.5q55 0 98 48l24 -36q-55 -57 -127 -57zM357 602q0 -16 -12.5 -28.5t-29.5 -12.5
q-14 0 -23.5 9.5t-9.5 23.5q0 17 12 29.5t29 12.5q14 0 24 -10t10 -24z" />
    <glyph glyph-name="Ccaron" unicode="&#x10c;" horiz-adv-x="523" 
d="M429 723h-52l-53 144h34l50 -112l97 112h38zM265 -12q-95 0 -152.5 62t-57.5 172q0 106 38.5 210t111 175t158.5 71q70 0 118.5 -37.5t70.5 -103.5l-53 -17q-38 107 -141 107q-65 0 -122.5 -64t-89.5 -157t-32 -184q0 -87 41 -135t114 -48t143 81l42 -29
q-81 -103 -189 -103z" />
    <glyph glyph-name="ccaron" unicode="&#x10d;" horiz-adv-x="400" 
d="M336 556h-52l-53 144h34l50 -112l97 112h38zM205 -12q-76 0 -122 48.5t-46 138.5q0 74 28 146.5t84 123t124 50.5q90 0 132 -69l-36 -32q-31 56 -96 56q-55 0 -98.5 -46.5t-63.5 -108.5t-20 -122q0 -69 32.5 -104.5t86.5 -35.5q55 0 98 48l24 -36q-55 -57 -127 -57z" />
    <glyph glyph-name="Dcaron" unicode="&#x10e;" horiz-adv-x="549" 
d="M415 723h-52l-53 144h34l50 -112l97 112h38zM183 0h-162l147 667h158q83 0 141 -64t58 -174q0 -49 -11.5 -104t-38 -113.5t-64.5 -105t-97.5 -76.5t-130.5 -30zM87 50h105q65 0 119.5 38.5t87 97t50.5 122t18 120.5q0 87 -43 138t-109 51h-102z" />
    <glyph glyph-name="dcaron" unicode="&#x10f;" horiz-adv-x="531" 
d="M617 636q0 -38 -29 -77t-67 -59l-21 23q60 33 73 81h-6q-13 0 -22 9.5t-9 23.5q0 18 12.5 30.5t29.5 12.5t28 -11.5t11 -32.5zM255 495q43 0 77.5 -23.5t51.5 -65.5l58 261h50l-148 -667h-50l15 69q-53 -81 -133 -81q-64 0 -102 44.5t-38 123.5q0 74 25 150t77 132.5
t117 56.5zM260 450q-50 0 -90.5 -50t-60 -115t-19.5 -123q0 -62 27 -95.5t76 -33.5q36 0 71.5 27t57.5 65l52 235q-11 38 -42 64t-72 26z" />
    <glyph glyph-name="Dcroat" unicode="&#x110;" horiz-adv-x="573" 
d="M207 0h-162l68 310h-82l11 48h82l68 309h158q83 0 141 -64t58 -174q0 -49 -11.5 -104t-38 -113.5t-64.5 -105t-97.5 -76.5t-130.5 -30zM303 310h-134l-58 -260h105q65 0 119.5 38.5t87 97t50.5 122t18 120.5q0 87 -43 138t-109 51h-102l-58 -259h135z" />
    <glyph glyph-name="dcroat" unicode="&#x111;" horiz-adv-x="476" 
d="M255 495q43 0 77.5 -23.5t51.5 -65.5l29 132h-152l7 37h153l21 92h50l-21 -92h51l-6 -37h-53l-119 -538h-50l15 69q-53 -81 -133 -81q-64 0 -102 44.5t-38 123.5q0 74 25 150t77 132.5t117 56.5zM260 450q-50 0 -90.5 -50t-60 -115t-19.5 -123q0 -62 27 -95.5t76 -33.5
q36 0 71.5 27t57.5 65l52 235q-11 38 -42 64t-72 26z" />
    <glyph glyph-name="Emacron" unicode="&#x112;" horiz-adv-x="452" 
d="M347 0h-326l147 667h326l-11 -50h-270l-55 -250h263l-12 -50h-263l-59 -267h271zM498 744h-302l8 37h302z" />
    <glyph glyph-name="emacron" unicode="&#x113;" horiz-adv-x="463" 
d="M216 -12q-84 0 -131.5 49t-47.5 137q0 66 26 138t81 127.5t125 55.5q73 0 115.5 -46.5t42.5 -129.5q0 -48 -13 -94h-320q-5 -28 -5 -53q0 -63 33.5 -102t96.5 -39t117 56l24 -34q-65 -65 -144 -65zM101 265h271q7 30 7 54q0 58 -30 95.5t-85 37.5q-59 0 -105 -58
t-58 -129zM462 577h-302l8 37h302z" />
    <glyph glyph-name="Ebreve" unicode="&#x114;" horiz-adv-x="452" 
d="M347 0h-326l147 667h326l-11 -50h-270l-55 -250h263l-12 -50h-263l-59 -267h271zM499 789q-71 -74 -162 -74q-44 0 -78.5 20t-52.5 54l32 24q30 -61 105 -61q74 0 130 61z" />
    <glyph glyph-name="ebreve" unicode="&#x115;" horiz-adv-x="463" 
d="M216 -12q-84 0 -131.5 49t-47.5 137q0 66 26 138t81 127.5t125 55.5q73 0 115.5 -46.5t42.5 -129.5q0 -48 -13 -94h-320q-5 -28 -5 -53q0 -63 33.5 -102t96.5 -39t117 56l24 -34q-65 -65 -144 -65zM101 265h271q7 30 7 54q0 58 -30 95.5t-85 37.5q-59 0 -105 -58
t-58 -129zM462 622q-71 -74 -162 -74q-44 0 -78.5 20t-52.5 54l32 24q30 -61 105 -61q74 0 130 61z" />
    <glyph glyph-name="Edotaccent" unicode="&#x116;" horiz-adv-x="452" 
d="M347 0h-326l147 667h326l-11 -50h-270l-55 -250h263l-12 -50h-263l-59 -267h271zM391 770q0 -16 -12.5 -28.5t-29.5 -12.5q-14 0 -23.5 9.5t-9.5 23.5q0 17 12 29.5t29 12.5q14 0 24 -10t10 -24z" />
    <glyph glyph-name="edotaccent" unicode="&#x117;" horiz-adv-x="463" 
d="M216 -12q-84 0 -131.5 49t-47.5 137q0 66 26 138t81 127.5t125 55.5q73 0 115.5 -46.5t42.5 -129.5q0 -48 -13 -94h-320q-5 -28 -5 -53q0 -63 33.5 -102t96.5 -39t117 56l24 -34q-65 -65 -144 -65zM101 265h271q7 30 7 54q0 58 -30 95.5t-85 37.5q-59 0 -105 -58
t-58 -129zM354 602q0 -16 -12.5 -28.5t-29.5 -12.5q-14 0 -23.5 9.5t-9.5 23.5q0 17 12 29.5t29 12.5q14 0 24 -10t10 -24z" />
    <glyph glyph-name="Eogonek" unicode="&#x118;" horiz-adv-x="452" 
d="M347 0q-100 -51 -100 -118q0 -35 37 -35q31 0 49 39l26 -19q-29 -53 -80 -53q-31 0 -49 16.5t-18 46.5q0 68 77 123h-268l147 667h326l-11 -50h-270l-55 -250h263l-12 -50h-263l-59 -267h271z" />
    <glyph glyph-name="eogonek" unicode="&#x119;" horiz-adv-x="463" 
d="M266 -114l26 -19q-29 -53 -80 -53q-31 0 -49 16.5t-18 46.5q0 62 61 111q-80 3 -124.5 52t-44.5 134q0 66 26 138t81 127.5t125 55.5q73 0 115.5 -46.5t42.5 -129.5q0 -48 -13 -94h-320q-5 -28 -5 -53q0 -63 33.5 -102t96.5 -39t117 56l24 -34q-36 -37 -80 -53
q-100 -51 -100 -118q0 -35 37 -35q31 0 49 39zM101 265h271q7 30 7 54q0 58 -30 95.5t-85 37.5q-59 0 -105 -58t-58 -129z" />
    <glyph glyph-name="Ecaron" unicode="&#x11a;" horiz-adv-x="452" 
d="M371 723h-52l-53 144h34l50 -112l97 112h38zM347 0h-326l147 667h326l-11 -50h-270l-55 -250h263l-12 -50h-263l-59 -267h271z" />
    <glyph glyph-name="ecaron" unicode="&#x11b;" horiz-adv-x="463" 
d="M334 556h-52l-53 144h34l50 -112l97 112h38zM216 -12q-84 0 -131.5 49t-47.5 137q0 66 26 138t81 127.5t125 55.5q73 0 115.5 -46.5t42.5 -129.5q0 -48 -13 -94h-320q-5 -28 -5 -53q0 -63 33.5 -102t96.5 -39t117 56l24 -34q-65 -65 -144 -65zM101 265h271q7 30 7 54
q0 58 -30 95.5t-85 37.5q-59 0 -105 -58t-58 -129z" />
    <glyph glyph-name="Gcircumflex" unicode="&#x11c;" horiz-adv-x="552" 
d="M511 723h-34l-51 112l-96 -112h-38l114 144h52zM265 -12q-96 0 -153 62.5t-57 171.5q0 107 37.5 210.5t110.5 174.5t161 71q136 0 186 -136l-49 -18q-38 103 -143 103q-66 0 -123.5 -63.5t-89 -156.5t-31.5 -185q0 -89 41 -136t114 -47q75 0 139 70l38 172h-174l11 50
h227l-54 -245q-85 -98 -191 -98z" />
    <glyph glyph-name="gcircumflex" unicode="&#x11d;" 
d="M402 550h-34l-51 112l-96 -112h-38l114 144h52zM151 -196q-112 0 -165 68l35 38q40 -62 130 -62q108 0 139 139l20 86q-54 -81 -136 -81q-62 0 -100 43t-38 126q0 71 24 146t75.5 131.5t118.5 56.5q39 0 76 -25t54 -64l17 77h50l-109 -494q-42 -185 -191 -185zM192 37
q35 0 70.5 25.5t58.5 62.5l53 234q-13 39 -46 65t-72 26q-49 0 -88.5 -49t-59 -113t-19.5 -122q0 -64 27.5 -96.5t75.5 -32.5z" />
    <glyph glyph-name="Gbreve" unicode="&#x11e;" horiz-adv-x="552" 
d="M265 -12q-96 0 -153 62.5t-57 171.5q0 107 37.5 210.5t110.5 174.5t161 71q136 0 186 -136l-49 -18q-38 103 -143 103q-66 0 -123.5 -63.5t-89 -156.5t-31.5 -185q0 -89 41 -136t114 -47q75 0 139 70l38 172h-174l11 50h227l-54 -245q-85 -98 -191 -98zM558 789
q-71 -74 -162 -74q-44 0 -78.5 20t-52.5 54l32 24q30 -61 105 -61q74 0 130 61z" />
    <glyph glyph-name="gbreve" unicode="&#x11f;" 
d="M151 -196q-112 0 -165 68l35 38q40 -62 130 -62q108 0 139 139l20 86q-54 -81 -136 -81q-62 0 -100 43t-38 126q0 71 24 146t75.5 131.5t118.5 56.5q39 0 76 -25t54 -64l17 77h50l-109 -494q-42 -185 -191 -185zM192 37q35 0 70.5 25.5t58.5 62.5l53 234q-13 39 -46 65
t-72 26q-49 0 -88.5 -49t-59 -113t-19.5 -122q0 -64 27.5 -96.5t75.5 -32.5zM450 622q-71 -74 -162 -74q-44 0 -78.5 20t-52.5 54l32 24q30 -61 105 -61q74 0 130 61z" />
    <glyph glyph-name="Gdotaccent" unicode="&#x120;" horiz-adv-x="552" 
d="M265 -12q-96 0 -153 62.5t-57 171.5q0 107 37.5 210.5t110.5 174.5t161 71q136 0 186 -136l-49 -18q-38 103 -143 103q-66 0 -123.5 -63.5t-89 -156.5t-31.5 -185q0 -89 41 -136t114 -47q75 0 139 70l38 172h-174l11 50h227l-54 -245q-85 -98 -191 -98zM448 769
q0 -16 -12.5 -28.5t-29.5 -12.5q-14 0 -23.5 9.5t-9.5 23.5q0 17 12 29.5t29 12.5q14 0 24 -10t10 -24z" />
    <glyph glyph-name="gdotaccent" unicode="&#x121;" 
d="M151 -196q-112 0 -165 68l35 38q40 -62 130 -62q108 0 139 139l20 86q-54 -81 -136 -81q-62 0 -100 43t-38 126q0 71 24 146t75.5 131.5t118.5 56.5q39 0 76 -25t54 -64l17 77h50l-109 -494q-42 -185 -191 -185zM192 37q35 0 70.5 25.5t58.5 62.5l53 234q-13 39 -46 65
t-72 26q-49 0 -88.5 -49t-59 -113t-19.5 -122q0 -64 27.5 -96.5t75.5 -32.5zM342 602q0 -16 -12.5 -28.5t-29.5 -12.5q-14 0 -23.5 9.5t-9.5 23.5q0 17 12 29.5t29 12.5q14 0 24 -10t10 -24z" />
    <glyph glyph-name="Gcommaaccent" unicode="&#x122;" horiz-adv-x="552" 
d="M256 -122q0 -38 -29 -77t-67 -59l-21 23q60 33 73 81h-6q-13 0 -22 9.5t-9 23.5q0 18 12.5 30.5t29.5 12.5t28 -11.5t11 -32.5zM265 -12q-96 0 -153 62.5t-57 171.5q0 107 37.5 210.5t110.5 174.5t161 71q136 0 186 -136l-49 -18q-38 103 -143 103q-66 0 -123.5 -63.5
t-89 -156.5t-31.5 -185q0 -89 41 -136t114 -47q75 0 139 70l38 172h-174l11 50h227l-54 -245q-85 -98 -191 -98z" />
    <glyph glyph-name="gcommaaccent" unicode="&#x123;" 
d="M266 605q0 38 28.5 77.5t67.5 59.5l22 -24q-27 -13 -47.5 -35.5t-26.5 -45.5h6q13 0 22 -9.5t9 -23.5q0 -18 -12.5 -30.5t-29.5 -12.5t-28 11.5t-11 32.5zM151 -196q-112 0 -165 68l35 38q40 -62 130 -62q108 0 139 139l20 86q-54 -81 -136 -81q-62 0 -100 43t-38 126
q0 71 24 146t75.5 131.5t118.5 56.5q39 0 76 -25t54 -64l17 77h50l-109 -494q-42 -185 -191 -185zM192 37q35 0 70.5 25.5t58.5 62.5l53 234q-13 39 -46 65t-72 26q-49 0 -88.5 -49t-59 -113t-19.5 -122q0 -64 27.5 -96.5t75.5 -32.5z" />
    <glyph glyph-name="Hcircumflex" unicode="&#x124;" horiz-adv-x="559" 
d="M495 723h-34l-51 112l-96 -112h-38l114 144h52zM430 0h-55l70 318h-298l-70 -318h-56l147 667h56l-66 -299h298l66 299h55z" />
    <glyph glyph-name="hcircumflex" unicode="&#x125;" horiz-adv-x="450" 
d="M443 723h-34l-51 112l-96 -112h-38l114 144h52zM325 0h-50l78 355q5 20 5 31q0 64 -74 64q-69 0 -137 -88l-80 -362h-50l147 667h50l-55 -254q69 82 144 82q50 0 79 -24.5t29 -69.5q0 -12 -5 -37z" />
    <glyph glyph-name="Hbar" unicode="&#x126;" horiz-adv-x="593" 
d="M447 0h-55l70 318h-298l-70 -318h-56l110 501h-74l9 37h73l29 129h56l-29 -129h298l29 129h55l-29 -129h74l-9 -37h-73zM175 368h298l29 133h-298z" />
    <glyph glyph-name="hbar" unicode="&#x127;" horiz-adv-x="456" 
d="M331 0h-50l78 355q5 20 5 31q0 64 -74 64q-69 0 -137 -88l-80 -362h-50l118 538h-61l8 37h61l21 92h50l-20 -92h140l-8 -37h-140l-27 -125q69 82 144 82q50 0 79 -24.5t29 -69.5q0 -12 -5 -37z" />
    <glyph glyph-name="Itilde" unicode="&#x128;" horiz-adv-x="206" 
d="M77 0h-56l147 667h56zM266 721q-23 0 -36.5 16t-17 35.5t-12.5 35.5t-25 16q-40 0 -61 -97h-34q29 134 102 134q23 0 36 -16t16.5 -35.5t13 -35.5t25.5 -16q38 0 61 97h34q-29 -134 -102 -134z" />
    <glyph glyph-name="itilde" unicode="&#x129;" horiz-adv-x="192" 
d="M67 0h-50l107 483h50zM222 554q-23 0 -36.5 16t-17 35.5t-12.5 35.5t-25 16q-40 0 -61 -97h-34q29 134 102 134q23 0 36 -16t16.5 -35.5t13 -35.5t25.5 -16q38 0 61 97h34q-29 -134 -102 -134z" />
    <glyph glyph-name="Imacron" unicode="&#x12a;" horiz-adv-x="206" 
d="M77 0h-56l147 667h56zM364 744h-302l8 37h302z" />
    <glyph glyph-name="imacron" unicode="&#x12b;" horiz-adv-x="192" 
d="M67 0h-50l107 483h50zM321 577h-302l8 37h302z" />
    <glyph glyph-name="Ibreve" unicode="&#x12c;" horiz-adv-x="206" 
d="M77 0h-56l147 667h56zM364 789q-71 -74 -162 -74q-44 0 -78.5 20t-52.5 54l32 24q30 -61 105 -61q74 0 130 61z" />
    <glyph glyph-name="ibreve" unicode="&#x12d;" horiz-adv-x="192" 
d="M67 0h-50l107 483h50zM321 622q-71 -74 -162 -74q-44 0 -78.5 20t-52.5 54l32 24q30 -61 105 -61q74 0 130 61z" />
    <glyph glyph-name="Iogonek" unicode="&#x12e;" horiz-adv-x="206" 
d="M63 -114l26 -19q-29 -53 -80 -53q-31 0 -49 16.5t-18 46.5q0 69 79 124l147 666h56l-147 -667q-100 -51 -100 -118q0 -35 37 -35q31 0 49 39z" />
    <glyph glyph-name="iogonek" unicode="&#x12f;" horiz-adv-x="192" 
d="M53 -114l26 -19q-29 -53 -80 -53q-31 0 -49 16.5t-18 46.5q0 73 86 129l106 477h50l-107 -483q-100 -51 -100 -118q0 -35 37 -35q31 0 49 39zM169 559q-15 0 -25 10.5t-10 24.5q0 18 14 30.5t30 12.5q15 0 25.5 -10t10.5 -24q0 -19 -14 -31.5t-31 -12.5z" />
    <glyph glyph-name="Idotaccent" unicode="&#x130;" horiz-adv-x="206" 
d="M77 0h-56l147 667h56zM256 769q0 -16 -12.5 -28.5t-29.5 -12.5q-14 0 -23.5 9.5t-9.5 23.5q0 17 12 29.5t29 12.5q14 0 24 -10t10 -24z" />
    <glyph glyph-name="dotlessi" unicode="&#x131;" horiz-adv-x="192" 
d="M67 0h-50l107 483h50z" />
    <glyph glyph-name="IJ" unicode="&#x132;" horiz-adv-x="596" 
d="M77 0h-56l147 667h56zM320 -12q-99 0 -141 71l34 39q33 -59 104 -59q102 0 130 124l111 504h56l-112 -505q-38 -174 -182 -174z" />
    <glyph glyph-name="ij" unicode="&#x133;" horiz-adv-x="384" 
d="M169 559q-15 0 -25 10.5t-10 24.5q0 18 14 30.5t30 12.5q15 0 25.5 -10t10.5 -24q0 -19 -14 -31.5t-31 -12.5zM67 0h-50l107 483h50zM126 -196q-59 0 -84 39l31 34q15 -29 49 -29q52 0 70 79l124 556h50l-123 -556q-15 -65 -42.5 -94t-74.5 -29zM361 559q-15 0 -25 10.5
t-10 24.5q0 18 14 30.5t30 12.5q15 0 25.5 -10t10.5 -24q0 -19 -14 -31.5t-31 -12.5z" />
    <glyph glyph-name="Jcircumflex" unicode="&#x134;" horiz-adv-x="390" 
d="M503 723h-34l-51 112l-96 -112h-38l114 144h52zM114 -12q-99 0 -141 71l34 39q33 -59 104 -59q102 0 130 124l111 504h56l-112 -505q-38 -174 -182 -174z" />
    <glyph glyph-name="jcircumflex" unicode="&#x135;" horiz-adv-x="192" 
d="M276 556h-34l-51 112l-96 -112h-38l114 144h52zM-66 -196q-59 0 -84 39l31 34q15 -29 49 -29q52 0 70 79l124 556h50l-123 -556q-15 -65 -42.5 -94t-74.5 -29z" />
    <glyph glyph-name="Kcommaaccent" unicode="&#x136;" horiz-adv-x="490" 
d="M221 -122q0 -38 -29 -77t-67 -59l-21 23q60 33 73 81h-6q-13 0 -22 9.5t-9 23.5q0 18 12.5 30.5t29.5 12.5t28 -11.5t11 -32.5zM417 0h-63l-148 312l-80 -87l-49 -225h-56l147 667h56l-79 -356l328 356h71l-297 -318z" />
    <glyph glyph-name="kcommaaccent" unicode="&#x137;" horiz-adv-x="424" 
d="M186 -122q0 -38 -29 -77t-67 -59l-21 23q60 33 73 81h-6q-13 0 -22 9.5t-9 23.5q0 18 12.5 30.5t29.5 12.5t28 -11.5t11 -32.5zM350 0h-57l-97 233l-99 -97l-30 -136h-50l147 667h50l-101 -461l282 277h64l-224 -218z" />
    <glyph glyph-name="kgreenlandic" unicode="&#x138;" horiz-adv-x="424" 
d="M350 0h-57l-97 233l-99 -97l-30 -136h-50l107 483h50l-61 -277l282 277h64l-224 -218z" />
    <glyph glyph-name="Lacute" unicode="&#x139;" horiz-adv-x="418" 
d="M497 867l-167 -144h-41l148 144h60zM326 0h-305l147 667h56l-137 -617h249z" />
    <glyph glyph-name="lacute" unicode="&#x13a;" horiz-adv-x="192" 
d="M364 867l-167 -144h-41l148 144h60zM67 0h-50l147 667h50z" />
    <glyph glyph-name="Lcommaaccent" unicode="&#x13b;" horiz-adv-x="418" 
d="M188 -122q0 -38 -29 -77t-67 -59l-21 23q60 33 73 81h-6q-13 0 -22 9.5t-9 23.5q0 18 12.5 30.5t29.5 12.5t28 -11.5t11 -32.5zM326 0h-305l147 667h56l-137 -617h249z" />
    <glyph glyph-name="lcommaaccent" unicode="&#x13c;" horiz-adv-x="192" 
d="M56 -122q0 -38 -29 -77t-67 -59l-21 23q60 33 73 81h-6q-13 0 -22 9.5t-9 23.5q0 18 12.5 30.5t29.5 12.5t28 -11.5t11 -32.5zM67 0h-50l147 667h50z" />
    <glyph glyph-name="Lcaron" unicode="&#x13d;" horiz-adv-x="418" 
d="M376 635q0 -38 -29 -77t-67 -59l-21 23q60 33 73 81h-6q-13 0 -22 9.5t-9 23.5q0 18 12.5 30.5t29.5 12.5t28 -11.5t11 -32.5zM326 0h-305l147 667h56l-137 -617h249z" />
    <glyph glyph-name="lcaron" unicode="&#x13e;" horiz-adv-x="251" 
d="M355 635q0 -38 -29 -77t-67 -59l-21 23q60 33 73 81h-6q-13 0 -22 9.5t-9 23.5q0 18 12.5 30.5t29.5 12.5t28 -11.5t11 -32.5zM67 0h-50l147 667h50z" />
    <glyph glyph-name="Ldot" unicode="&#x13f;" horiz-adv-x="426" 
d="M326 0h-305l147 667h56l-137 -617h249zM326 299q-16 0 -27.5 11.5t-11.5 27.5q0 20 13.5 33.5t33.5 13.5q16 0 27.5 -11.5t11.5 -28.5q0 -19 -13.5 -32.5t-33.5 -13.5z" />
    <glyph glyph-name="ldot" unicode="&#x140;" horiz-adv-x="266" 
d="M67 0h-50l147 667h50zM225 202q-17 0 -28 11t-11 28q0 19 14 33t33 14q16 0 27.5 -11.5t11.5 -28.5q0 -19 -13.5 -32.5t-33.5 -13.5z" />
    <glyph glyph-name="Lslash" unicode="&#x141;" horiz-adv-x="443" 
d="M24 247l12 51l85 44l72 325h56l-65 -293l94 49l-11 -52l-95 -48l-60 -273h249l-10 -50h-305l64 291z" />
    <glyph glyph-name="lslash" unicode="&#x142;" horiz-adv-x="246" 
d="M19 256l11 45l90 46l71 320h50l-65 -292l91 46l-10 -45l-91 -46l-72 -330h-50l66 302z" />
    <glyph glyph-name="Nacute" unicode="&#x143;" horiz-adv-x="557" 
d="M547 867l-167 -144h-41l148 144h60zM428 0h-54l-175 555l-122 -555h-56l147 667h56l174 -546l121 546h56z" />
    <glyph glyph-name="nacute" unicode="&#x144;" horiz-adv-x="450" 
d="M457 700l-167 -144h-41l148 144h60zM325 0h-51l79 355q5 22 5 31q0 64 -73 64q-69 0 -138 -87l-80 -363h-50l107 483h50l-15 -70q69 82 144 82q49 0 78.5 -24.5t29.5 -69.5q0 -14 -5 -37z" />
    <glyph glyph-name="Ncommaaccent" unicode="&#x145;" horiz-adv-x="557" 
d="M239 -122q0 -38 -29 -77t-67 -59l-21 23q60 33 73 81h-6q-13 0 -22 9.5t-9 23.5q0 18 12.5 30.5t29.5 12.5t28 -11.5t11 -32.5zM428 0h-54l-175 555l-122 -555h-56l147 667h56l174 -546l121 546h56z" />
    <glyph glyph-name="ncommaaccent" unicode="&#x146;" horiz-adv-x="450" 
d="M187 -122q0 -38 -29 -77t-67 -59l-21 23q60 33 73 81h-6q-13 0 -22 9.5t-9 23.5q0 18 12.5 30.5t29.5 12.5t28 -11.5t11 -32.5zM325 0h-51l79 355q5 22 5 31q0 64 -73 64q-69 0 -138 -87l-80 -363h-50l107 483h50l-15 -70q69 82 144 82q49 0 78.5 -24.5t29.5 -69.5
q0 -14 -5 -37z" />
    <glyph glyph-name="Ncaron" unicode="&#x147;" horiz-adv-x="557" 
d="M413 723h-52l-53 144h34l50 -112l97 112h38zM428 0h-54l-175 555l-122 -555h-56l147 667h56l174 -546l121 546h56z" />
    <glyph glyph-name="ncaron" unicode="&#x148;" horiz-adv-x="450" 
d="M322 556h-52l-53 144h34l50 -112l97 112h38zM325 0h-51l79 355q5 22 5 31q0 64 -73 64q-69 0 -138 -87l-80 -363h-50l107 483h50l-15 -70q69 82 144 82q49 0 78.5 -24.5t29.5 -69.5q0 -14 -5 -37z" />
    <glyph glyph-name="napostrophe" unicode="&#x149;" horiz-adv-x="450" 
d="M238 690q0 -38 -29 -77t-67 -59l-21 23q60 33 73 81h-6q-13 0 -22 9.5t-9 23.5q0 18 12.5 30.5t29.5 12.5t28 -11.5t11 -32.5zM325 0h-51l79 355q5 22 5 31q0 64 -73 64q-69 0 -138 -87l-80 -363h-50l107 483h50l-15 -70q69 82 144 82q49 0 78.5 -24.5t29.5 -69.5
q0 -14 -5 -37z" />
    <glyph glyph-name="Eng" unicode="&#x14a;" horiz-adv-x="557" 
d="M240 -196q-98 0 -140 71l34 37q32 -59 104 -59q104 0 129 122l6 29l-174 551l-122 -555h-56l147 667h56l174 -546l121 546h56l-152 -691q-37 -172 -183 -172z" />
    <glyph glyph-name="eng" unicode="&#x14b;" horiz-adv-x="450" 
d="M406 364l-97 -436q-15 -65 -42.5 -94.5t-74.5 -29.5q-59 0 -84 39l32 35q15 -29 48 -29q52 0 70 79l95 427q5 28 5 32q0 32 -20 47.5t-53 15.5q-69 0 -138 -87l-80 -363h-50l107 483h50l-16 -71q73 83 145 83q49 0 78.5 -24t29.5 -70q0 -7 -5 -37z" />
    <glyph glyph-name="Omacron" unicode="&#x14c;" horiz-adv-x="590" 
d="M556 744h-302l8 37h302zM265 -12q-95 0 -152.5 64t-57.5 170q0 100 36.5 203t109.5 178t162 75q95 0 152.5 -64.5t57.5 -170.5q0 -75 -22 -154t-60.5 -146.5t-98 -111t-127.5 -43.5zM269 39q66 0 124 63t89.5 156t31.5 186q0 86 -43 134.5t-113 48.5q-67 0 -124.5 -63.5
t-88.5 -156t-31 -185.5q0 -87 42.5 -135t112.5 -48z" />
    <glyph glyph-name="omacron" unicode="&#x14d;" 
d="M460 577h-302l8 37h302zM199 -12q-75 0 -118.5 47t-43.5 133q0 75 27.5 149t82 126t121.5 52q75 0 119 -47t44 -133q0 -75 -27.5 -149t-82.5 -126t-122 -52zM201 33q50 0 92 47.5t63 111t21 122.5q0 67 -29 101.5t-82 34.5q-50 0 -92 -47.5t-63 -111.5t-21 -122
q0 -67 29.5 -101.5t81.5 -34.5z" />
    <glyph glyph-name="Obreve" unicode="&#x14e;" horiz-adv-x="590" 
d="M265 -12q-95 0 -152.5 64t-57.5 170q0 100 36.5 203t109.5 178t162 75q95 0 152.5 -64.5t57.5 -170.5q0 -75 -22 -154t-60.5 -146.5t-98 -111t-127.5 -43.5zM269 39q66 0 124 63t89.5 156t31.5 186q0 86 -43 134.5t-113 48.5q-67 0 -124.5 -63.5t-88.5 -156t-31 -185.5
q0 -87 42.5 -135t112.5 -48zM557 789q-71 -74 -162 -74q-44 0 -78.5 20t-52.5 54l32 24q30 -61 105 -61q74 0 130 61z" />
    <glyph glyph-name="obreve" unicode="&#x14f;" 
d="M199 -12q-75 0 -118.5 47t-43.5 133q0 75 27.5 149t82 126t121.5 52q75 0 119 -47t44 -133q0 -75 -27.5 -149t-82.5 -126t-122 -52zM201 33q50 0 92 47.5t63 111t21 122.5q0 67 -29 101.5t-82 34.5q-50 0 -92 -47.5t-63 -111.5t-21 -122q0 -67 29.5 -101.5t81.5 -34.5z
M460 622q-71 -74 -162 -74q-44 0 -78.5 20t-52.5 54l32 24q30 -61 105 -61q74 0 130 61z" />
    <glyph glyph-name="Ohungarumlaut" unicode="&#x150;" horiz-adv-x="590" 
d="M469 867l-128 -144h-35l109 144h54zM594 867l-128 -144h-35l109 144h54zM265 -12q-95 0 -152.5 64t-57.5 170q0 100 36.5 203t109.5 178t162 75q95 0 152.5 -64.5t57.5 -170.5q0 -75 -22 -154t-60.5 -146.5t-98 -111t-127.5 -43.5zM269 39q66 0 124 63t89.5 156t31.5 186
q0 86 -43 134.5t-113 48.5q-67 0 -124.5 -63.5t-88.5 -156t-31 -185.5q0 -87 42.5 -135t112.5 -48z" />
    <glyph glyph-name="ohungarumlaut" unicode="&#x151;" 
d="M373 700l-128 -144h-35l109 144h54zM498 700l-128 -144h-35l109 144h54zM199 -12q-75 0 -118.5 47t-43.5 133q0 75 27.5 149t82 126t121.5 52q75 0 119 -47t44 -133q0 -75 -27.5 -149t-82.5 -126t-122 -52zM201 33q50 0 92 47.5t63 111t21 122.5q0 67 -29 101.5t-82 34.5
q-50 0 -92 -47.5t-63 -111.5t-21 -122q0 -67 29.5 -101.5t81.5 -34.5z" />
    <glyph glyph-name="OE" unicode="&#x152;" horiz-adv-x="846" 
d="M738 0h-326l20 93q-70 -105 -185 -105q-88 0 -140 64.5t-52 169.5q0 72 23 151t62.5 147t100 112.5t128.5 44.5q132 0 165 -127l25 117h326l-10 -50h-270l-56 -250h263l-11 -50h-263l-59 -267h270zM453 183l61 277q-7 81 -45.5 123.5t-103.5 42.5q-70 0 -129.5 -66.5
t-90.5 -159t-31 -178.5q0 -83 39.5 -133t108.5 -50q56 0 106.5 38.5t84.5 105.5z" />
    <glyph glyph-name="oe" unicode="&#x153;" horiz-adv-x="782" 
d="M734 225h-316q-5 -20 -5 -53q0 -65 33.5 -103t94.5 -38q62 0 115 56l23 -34q-62 -65 -141 -65q-72 0 -114.5 40.5t-47.5 94.5q-32 -60 -73.5 -97.5t-105.5 -37.5q-74 0 -117 47t-43 133q0 78 27.5 152t81 124.5t120.5 50.5q66 0 103.5 -40t42.5 -93q68 133 179 133
q72 0 114 -46.5t42 -129.5q0 -51 -13 -94zM424 265h268q6 26 6 54q0 61 -29 97t-83 36q-62 0 -106 -58.5t-56 -128.5zM373 314q0 68 -30 102t-79 34q-72 0 -123 -92.5t-51 -188.5q0 -64 28 -100t81 -36q49 0 90.5 47.5t62.5 111t21 122.5z" />
    <glyph glyph-name="Racute" unicode="&#x154;" horiz-adv-x="491" 
d="M519 867l-167 -144h-41l148 144h60zM387 0h-60l-79 278h-110l-61 -278h-56l147 667h167q63 0 107.5 -43t44.5 -112q0 -91 -51.5 -155t-132.5 -74zM149 328h123q73 0 114 54t41 127q0 49 -28.5 78.5t-69.5 29.5h-116z" />
    <glyph glyph-name="racute" unicode="&#x155;" horiz-adv-x="278" 
d="M393 700l-167 -144h-41l148 144h60zM67 0h-50l107 483h50l-16 -74q32 43 67.5 63.5t89.5 20.5l-12 -55q-9 3 -28 3q-37 0 -72 -25t-58 -64z" />
    <glyph glyph-name="Rcommaaccent" unicode="&#x156;" horiz-adv-x="491" 
d="M212 -122q0 -38 -29 -77t-67 -59l-21 23q60 33 73 81h-6q-13 0 -22 9.5t-9 23.5q0 18 12.5 30.5t29.5 12.5t28 -11.5t11 -32.5zM387 0h-60l-79 278h-110l-61 -278h-56l147 667h167q63 0 107.5 -43t44.5 -112q0 -91 -51.5 -155t-132.5 -74zM149 328h123q73 0 114 54
t41 127q0 49 -28.5 78.5t-69.5 29.5h-116z" />
    <glyph glyph-name="rcommaaccent" unicode="&#x157;" horiz-adv-x="278" 
d="M123 -122q0 -38 -29 -77t-67 -59l-21 23q60 33 73 81h-6q-13 0 -22 9.5t-9 23.5q0 18 12.5 30.5t29.5 12.5t28 -11.5t11 -32.5zM67 0h-50l107 483h50l-16 -74q32 43 67.5 63.5t89.5 20.5l-12 -55q-9 3 -28 3q-37 0 -72 -25t-58 -64z" />
    <glyph glyph-name="Rcaron" unicode="&#x158;" horiz-adv-x="491" 
d="M384 723h-52l-53 144h34l50 -112l97 112h38zM387 0h-60l-79 278h-110l-61 -278h-56l147 667h167q63 0 107.5 -43t44.5 -112q0 -91 -51.5 -155t-132.5 -74zM149 328h123q73 0 114 54t41 127q0 49 -28.5 78.5t-69.5 29.5h-116z" />
    <glyph glyph-name="rcaron" unicode="&#x159;" horiz-adv-x="278" 
d="M260 556h-52l-53 144h34l50 -112l97 112h38zM67 0h-50l107 483h50l-16 -74q32 43 67.5 63.5t89.5 20.5l-12 -55q-9 3 -28 3q-37 0 -72 -25t-58 -64z" />
    <glyph glyph-name="Sacute" unicode="&#x15a;" horiz-adv-x="459" 
d="M498 867l-167 -144h-41l148 144h60zM196 -12q-61 0 -113.5 25.5t-77.5 65.5l40 40q24 -37 65 -58.5t89 -21.5q65 0 103.5 42.5t38.5 104.5q0 30 -17.5 57t-43.5 45.5l-56 40.5l-56 42.5t-43.5 52.5t-17.5 69q0 77 57.5 131t136.5 54q54 0 99.5 -21t70.5 -57l-38 -39
q-45 66 -135 66q-55 0 -93.5 -38.5t-38.5 -89.5q0 -32 24 -60.5t58.5 -52l69 -49t58.5 -63t24 -82.5q0 -84 -56.5 -144t-147.5 -60z" />
    <glyph glyph-name="sacute" unicode="&#x15b;" horiz-adv-x="377" 
d="M418 700l-167 -144h-41l148 144h60zM151 -12q-107 0 -154 75l35 33q17 -28 49 -46.5t72 -18.5q47 0 77.5 29t30.5 69q0 27 -20 49.5t-48 39l-56 34.5t-48 44.5t-20 59.5q0 58 41.5 98.5t111.5 40.5q46 0 84 -19t56 -49l-33 -32q-13 25 -43.5 41t-66.5 16
q-44 0 -71.5 -24.5t-27.5 -61.5q0 -25 20 -46t48 -37.5t56 -35t48 -46t20 -61.5q0 -63 -44.5 -107.5t-116.5 -44.5z" />
    <glyph glyph-name="Scircumflex" unicode="&#x15c;" horiz-adv-x="459" 
d="M446 723h-34l-51 112l-96 -112h-38l114 144h52zM196 -12q-61 0 -113.5 25.5t-77.5 65.5l40 40q24 -37 65 -58.5t89 -21.5q65 0 103.5 42.5t38.5 104.5q0 30 -17.5 57t-43.5 45.5l-56 40.5l-56 42.5t-43.5 52.5t-17.5 69q0 77 57.5 131t136.5 54q54 0 99.5 -21t70.5 -57
l-38 -39q-45 66 -135 66q-55 0 -93.5 -38.5t-38.5 -89.5q0 -32 24 -60.5t58.5 -52l69 -49t58.5 -63t24 -82.5q0 -84 -56.5 -144t-147.5 -60z" />
    <glyph glyph-name="scircumflex" unicode="&#x15d;" horiz-adv-x="377" 
d="M366 556h-34l-51 112l-96 -112h-38l114 144h52zM151 -12q-107 0 -154 75l35 33q17 -28 49 -46.5t72 -18.5q47 0 77.5 29t30.5 69q0 27 -20 49.5t-48 39l-56 34.5t-48 44.5t-20 59.5q0 58 41.5 98.5t111.5 40.5q46 0 84 -19t56 -49l-33 -32q-13 25 -43.5 41t-66.5 16
q-44 0 -71.5 -24.5t-27.5 -61.5q0 -25 20 -46t48 -37.5t56 -35t48 -46t20 -61.5q0 -63 -44.5 -107.5t-116.5 -44.5z" />
    <glyph glyph-name="Scedilla" unicode="&#x15e;" horiz-adv-x="459" 
d="M133 -189q-58 0 -90 37l22 29q26 -33 71 -33q28 0 43.5 15t15.5 38q0 30 -33 30q-20 0 -33 -16l-24 16l39 66q-45 9 -82 32t-57 54l40 40q24 -37 65 -58.5t89 -21.5q65 0 103.5 42.5t38.5 104.5q0 30 -17.5 57t-43.5 45.5l-56 40.5l-56 42.5t-43.5 52.5t-17.5 69
q0 77 57.5 131t136.5 54q54 0 99.5 -21t70.5 -57l-38 -39q-45 66 -135 66q-55 0 -93.5 -38.5t-38.5 -89.5q0 -32 24 -60.5t58.5 -52l69 -49t58.5 -63t24 -82.5q0 -84 -56.5 -144t-147.5 -60q-12 0 -18 1l-27 -46q12 11 29 11q23 0 37.5 -15.5t14.5 -40.5q0 -37 -28 -62
t-71 -25z" />
    <glyph glyph-name="scedilla" unicode="&#x15f;" horiz-adv-x="377" 
d="M96 -189q-58 0 -90 37l22 29q26 -33 71 -33q28 0 43.5 15t15.5 38q0 30 -33 30q-20 0 -33 -16l-24 16l38 65q-74 14 -109 71l35 33q17 -28 49 -46.5t72 -18.5q47 0 77.5 29t30.5 69q0 27 -20 49.5t-48 39l-56 34.5t-48 44.5t-20 59.5q0 58 41.5 98.5t111.5 40.5
q46 0 84 -19t56 -49l-33 -32q-13 25 -43.5 41t-66.5 16q-44 0 -71.5 -24.5t-27.5 -61.5q0 -25 20 -46t48 -37.5t56 -35t48 -46t20 -61.5q0 -63 -44.5 -107.5t-116.5 -44.5h-10l-27 -45q12 11 29 11q23 0 37.5 -15.5t14.5 -40.5q0 -37 -28 -62t-71 -25z" />
    <glyph glyph-name="Scaron" unicode="&#x160;" horiz-adv-x="459" 
d="M364 723h-52l-53 144h34l50 -112l97 112h38zM196 -12q-61 0 -113.5 25.5t-77.5 65.5l40 40q24 -37 65 -58.5t89 -21.5q65 0 103.5 42.5t38.5 104.5q0 30 -17.5 57t-43.5 45.5l-56 40.5l-56 42.5t-43.5 52.5t-17.5 69q0 77 57.5 131t136.5 54q54 0 99.5 -21t70.5 -57
l-38 -39q-45 66 -135 66q-55 0 -93.5 -38.5t-38.5 -89.5q0 -32 24 -60.5t58.5 -52l69 -49t58.5 -63t24 -82.5q0 -84 -56.5 -144t-147.5 -60z" />
    <glyph glyph-name="scaron" unicode="&#x161;" horiz-adv-x="377" 
d="M284 556h-52l-53 144h34l50 -112l97 112h38zM151 -12q-107 0 -154 75l35 33q17 -28 49 -46.5t72 -18.5q47 0 77.5 29t30.5 69q0 27 -20 49.5t-48 39l-56 34.5t-48 44.5t-20 59.5q0 58 41.5 98.5t111.5 40.5q46 0 84 -19t56 -49l-33 -32q-13 25 -43.5 41t-66.5 16
q-44 0 -71.5 -24.5t-27.5 -61.5q0 -25 20 -46t48 -37.5t56 -35t48 -46t20 -61.5q0 -63 -44.5 -107.5t-116.5 -44.5z" />
    <glyph glyph-name="Tcommaaccent" unicode="&#x162;" horiz-adv-x="435" 
d="M180 -122q0 -38 -29 -77t-67 -59l-21 23q60 33 73 81h-6q-13 0 -22 9.5t-9 23.5q0 18 12.5 30.5t29.5 12.5t28 -11.5t11 -32.5zM191 0h-56l137 617h-163l11 50h381l-11 -50h-163z" />
    <glyph glyph-name="tcommaaccent" unicode="&#x163;" horiz-adv-x="249" 
d="M77 -122q0 -38 -29 -77t-67 -59l-21 23q60 33 73 81h-6q-13 0 -22 9.5t-9 23.5q0 18 12.5 30.5t29.5 12.5t28 -11.5t11 -32.5zM127 -12q-83 0 -83 72q0 15 4 30l78 348h-66l11 45h65l29 132h51l-29 -132h83l-11 -45h-82l-77 -342q-3 -12 -3 -25q0 -38 40 -38q22 0 42 18
l12 -40q-28 -23 -64 -23z" />
    <glyph glyph-name="Tcaron" unicode="&#x164;" horiz-adv-x="435" 
d="M345 723h-52l-53 144h34l50 -112l97 112h38zM191 0h-56l137 617h-163l11 50h381l-11 -50h-163z" />
    <glyph glyph-name="tcaron" unicode="&#x165;" horiz-adv-x="259" 
d="M373 690q0 -38 -29 -77t-67 -59l-21 23q60 33 73 81h-6q-13 0 -22 9.5t-9 23.5q0 18 12.5 30.5t29.5 12.5t28 -11.5t11 -32.5zM127 -12q-83 0 -83 72q0 15 4 30l78 348h-66l11 45h65l29 132h51l-29 -132h83l-11 -45h-82l-77 -342q-3 -12 -3 -25q0 -38 40 -38q22 0 42 18
l12 -40q-28 -23 -64 -23z" />
    <glyph glyph-name="Tbar" unicode="&#x166;" horiz-adv-x="435" 
d="M191 0h-56l68 309h-117l8 36h117l61 272h-163l11 50h381l-11 -50h-163l-60 -272h117l-8 -36h-117z" />
    <glyph glyph-name="tbar" unicode="&#x167;" horiz-adv-x="249" 
d="M127 -12q-83 0 -83 72q0 15 4 30l32 145h-65l8 37h66l37 166h-66l11 45h65l29 132h51l-29 -132h83l-11 -45h-82l-37 -166h53l-8 -37h-54l-31 -139q-3 -12 -3 -25q0 -38 40 -38q22 0 42 18l12 -40q-28 -23 -64 -23z" />
    <glyph glyph-name="Utilde" unicode="&#x168;" horiz-adv-x="551" 
d="M249 -12q-86 0 -136 46t-50 127q0 27 5 49l100 457h56l-101 -458q-5 -17 -5 -42q0 -59 36 -94t97 -35q66 0 104 41.5t58 129.5l100 458h56l-101 -457q-25 -112 -76 -167t-143 -55zM439 721q-23 0 -36.5 16t-17 35.5t-12.5 35.5t-25 16q-40 0 -61 -97h-34q29 134 102 134
q23 0 36 -16t16.5 -35.5t13 -35.5t25.5 -16q38 0 61 97h34q-29 -134 -102 -134z" />
    <glyph glyph-name="utilde" unicode="&#x169;" horiz-adv-x="450" 
d="M124 483h50l-78 -355q-5 -23 -5 -31q0 -64 74 -64q35 0 71.5 24.5t64.5 60.5l80 365h51l-107 -483h-51l16 70q-69 -82 -145 -82q-49 0 -78 24.5t-29 69.5q0 14 5 37zM351 554q-23 0 -36.5 16t-17 35.5t-12.5 35.5t-25 16q-40 0 -61 -97h-34q29 134 102 134q23 0 36 -16
t16.5 -35.5t13 -35.5t25.5 -16q38 0 61 97h34q-29 -134 -102 -134z" />
    <glyph glyph-name="Umacron" unicode="&#x16a;" horiz-adv-x="551" 
d="M249 -12q-86 0 -136 46t-50 127q0 27 5 49l100 457h56l-101 -458q-5 -17 -5 -42q0 -59 36 -94t97 -35q66 0 104 41.5t58 129.5l100 458h56l-101 -457q-25 -112 -76 -167t-143 -55zM537 744h-302l8 37h302z" />
    <glyph glyph-name="umacron" unicode="&#x16b;" horiz-adv-x="450" 
d="M124 483h50l-78 -355q-5 -23 -5 -31q0 -64 74 -64q35 0 71.5 24.5t64.5 60.5l80 365h51l-107 -483h-51l16 70q-69 -82 -145 -82q-49 0 -78 24.5t-29 69.5q0 14 5 37zM450 577h-302l8 37h302z" />
    <glyph glyph-name="Ubreve" unicode="&#x16c;" horiz-adv-x="551" 
d="M249 -12q-86 0 -136 46t-50 127q0 27 5 49l100 457h56l-101 -458q-5 -17 -5 -42q0 -59 36 -94t97 -35q66 0 104 41.5t58 129.5l100 458h56l-101 -457q-25 -112 -76 -167t-143 -55zM537 789q-71 -74 -162 -74q-44 0 -78.5 20t-52.5 54l32 24q30 -61 105 -61q74 0 130 61z
" />
    <glyph glyph-name="ubreve" unicode="&#x16d;" horiz-adv-x="450" 
d="M124 483h50l-78 -355q-5 -23 -5 -31q0 -64 74 -64q35 0 71.5 24.5t64.5 60.5l80 365h51l-107 -483h-51l16 70q-69 -82 -145 -82q-49 0 -78 24.5t-29 69.5q0 14 5 37zM450 622q-71 -74 -162 -74q-44 0 -78.5 20t-52.5 54l32 24q30 -61 105 -61q74 0 130 61z" />
    <glyph glyph-name="Uring" unicode="&#x16e;" horiz-adv-x="551" 
d="M384 692q-35 0 -57 22.5t-22 57.5q0 39 29 68t68 29q34 0 56.5 -22.5t22.5 -57.5q0 -40 -29 -68.5t-68 -28.5zM386 723q26 0 45 18.5t19 44.5q0 23 -13.5 37.5t-35.5 14.5q-26 0 -45.5 -19t-19.5 -45q0 -22 14 -36.5t36 -14.5zM249 -12q-86 0 -136 46t-50 127q0 27 5 49
l100 457h56l-101 -458q-5 -17 -5 -42q0 -59 36 -94t97 -35q66 0 104 41.5t58 129.5l100 458h56l-101 -457q-25 -112 -76 -167t-143 -55z" />
    <glyph glyph-name="uring" unicode="&#x16f;" horiz-adv-x="450" 
d="M303 549q-35 0 -57 22.5t-22 57.5q0 39 29 68t68 29q34 0 56.5 -22.5t22.5 -57.5q0 -40 -29 -68.5t-68 -28.5zM305 580q26 0 45 18.5t19 44.5q0 23 -13.5 37.5t-35.5 14.5q-26 0 -45.5 -19t-19.5 -45q0 -22 14 -36.5t36 -14.5zM124 483h50l-78 -355q-5 -23 -5 -31
q0 -64 74 -64q35 0 71.5 24.5t64.5 60.5l80 365h51l-107 -483h-51l16 70q-69 -82 -145 -82q-49 0 -78 24.5t-29 69.5q0 14 5 37z" />
    <glyph glyph-name="Uhungarumlaut" unicode="&#x170;" horiz-adv-x="551" 
d="M249 -12q-86 0 -136 46t-50 127q0 27 5 49l100 457h56l-101 -458q-5 -17 -5 -42q0 -59 36 -94t97 -35q66 0 104 41.5t58 129.5l100 458h56l-101 -457q-25 -112 -76 -167t-143 -55zM451 867l-128 -144h-35l109 144h54zM576 867l-128 -144h-35l109 144h54z" />
    <glyph glyph-name="uhungarumlaut" unicode="&#x171;" horiz-adv-x="450" 
d="M124 483h50l-78 -355q-5 -23 -5 -31q0 -64 74 -64q35 0 71.5 24.5t64.5 60.5l80 365h51l-107 -483h-51l16 70q-69 -82 -145 -82q-49 0 -78 24.5t-29 69.5q0 14 5 37zM363 700l-128 -144h-35l109 144h54zM488 700l-128 -144h-35l109 144h54z" />
    <glyph glyph-name="Uogonek" unicode="&#x172;" horiz-adv-x="551" 
d="M249 -12q-86 0 -136 46t-50 127q0 27 5 49l100 457h56l-101 -458q-5 -17 -5 -42q0 -59 36 -94t97 -35q66 0 104 41.5t58 129.5l100 458h56l-101 -457q-19 -88 -54.5 -140.5t-93.5 -70.5q-96 -51 -96 -117q0 -35 37 -35q31 0 49 39l26 -19q-29 -53 -80 -53q-31 0 -49 16.5
t-18 46.5q0 62 61 111h-1z" />
    <glyph glyph-name="uogonek" unicode="&#x173;" horiz-adv-x="450" 
d="M124 483h50l-78 -355q-5 -23 -5 -31q0 -64 74 -64q35 0 71.5 24.5t64.5 60.5l80 365h51l-107 -483q-100 -51 -100 -118q0 -35 37 -35q31 0 49 39l26 -19q-29 -53 -80 -53q-31 0 -49 16.5t-18 46.5q0 72 85 128l15 65q-69 -82 -145 -82q-49 0 -78 24.5t-29 69.5q0 14 5 37
z" />
    <glyph glyph-name="Wcircumflex" unicode="&#x174;" horiz-adv-x="693" 
d="M561 723h-34l-51 112l-96 -112h-38l114 144h52zM472 0h-61l6 562l-243 -562h-61v667h59l-9 -578l250 578h51l-6 -578l247 578h61z" />
    <glyph glyph-name="wcircumflex" unicode="&#x175;" horiz-adv-x="616" 
d="M486 556h-34l-51 112l-96 -112h-38l114 144h52zM415 0h-50l-20 414l-202 -414h-50l-23 483h52l11 -411l201 411h49l19 -411l194 411h56z" />
    <glyph glyph-name="Ycircumflex" unicode="&#x176;" horiz-adv-x="483" 
d="M457 723h-34l-51 112l-96 -112h-38l114 144h52zM215 0h-55l63 286l-122 381h60l98 -325l242 325h67l-290 -381z" />
    <glyph glyph-name="ycircumflex" unicode="&#x177;" horiz-adv-x="392" 
d="M-55 -186l19 45q11 -8 35 -8q18 0 32 11.5t31 40.5l49 88l-48 492h54l36 -421l224 421h58l-327 -593q-48 -86 -114 -86q-29 0 -49 10zM373 556h-34l-51 112l-96 -112h-38l114 144h52z" />
    <glyph glyph-name="Ydieresis" unicode="&#x178;" horiz-adv-x="483" 
d="M479 772q0 -16 -12.5 -28.5t-28.5 -12.5q-14 0 -23 9.5t-9 23.5q0 16 12 28t29 12q13 0 22.5 -9t9.5 -23zM311 772q0 -17 -12 -29t-28 -12q-14 0 -23.5 9.5t-9.5 23.5q0 16 12 28t29 12q13 0 22.5 -9t9.5 -23zM215 0h-55l63 286l-122 381h60l98 -325l242 325h67
l-290 -381z" />
    <glyph glyph-name="Zacute" unicode="&#x179;" horiz-adv-x="453" 
d="M491 867l-167 -144h-41l148 144h60zM356 0h-368l11 49l417 568h-291l10 50h361l-10 -48l-419 -569h300z" />
    <glyph glyph-name="zacute" unicode="&#x17a;" horiz-adv-x="379" 
d="M418 700l-167 -144h-41l148 144h60zM278 0h-285l8 42l306 396h-217l10 45h281l-9 -41l-307 -397h222z" />
    <glyph glyph-name="Zdotaccent" unicode="&#x17b;" horiz-adv-x="453" 
d="M356 0h-368l11 49l417 568h-291l10 50h361l-10 -48l-419 -569h300zM377 769q0 -16 -12.5 -28.5t-29.5 -12.5q-14 0 -23.5 9.5t-9.5 23.5q0 17 12 29.5t29 12.5q14 0 24 -10t10 -24z" />
    <glyph glyph-name="zdotaccent" unicode="&#x17c;" horiz-adv-x="379" 
d="M278 0h-285l8 42l306 396h-217l10 45h281l-9 -41l-307 -397h222zM304 602q0 -16 -12.5 -28.5t-29.5 -12.5q-14 0 -23.5 9.5t-9.5 23.5q0 17 12 29.5t29 12.5q14 0 24 -10t10 -24z" />
    <glyph glyph-name="Zcaron" unicode="&#x17d;" horiz-adv-x="453" 
d="M358 723h-52l-53 144h34l50 -112l97 112h38zM356 0h-368l11 49l417 568h-291l10 50h361l-10 -48l-419 -569h300z" />
    <glyph glyph-name="zcaron" unicode="&#x17e;" horiz-adv-x="379" 
d="M283 556h-52l-53 144h34l50 -112l97 112h38zM278 0h-285l8 42l306 396h-217l10 45h281l-9 -41l-307 -397h222z" />
    <glyph glyph-name="longs" unicode="&#x17f;" horiz-adv-x="239" 
d="M83 0h-51l97 438h-64l10 45h64l15 69q27 125 127 125q50 0 80 -33l-30 -35q-18 24 -49 24q-60 0 -77 -81z" />
    <glyph glyph-name="florin" unicode="&#x192;" horiz-adv-x="386" 
d="M31 -161h-56l93 422h-61v47h72l55 247q26 122 126 122q51 0 82 -32l-28 -39q-17 21 -48 21q-59 0 -78 -80l-52 -239h122v-47h-133z" />
    <glyph glyph-name="Ohorn" unicode="&#x1a0;" horiz-adv-x="590" 
d="M265 -12q-95 0 -152.5 64t-57.5 170q0 100 36.5 203t109.5 178t162 75q122 0 178 -102q46 30 58 72h-6q-12 0 -21 9.5t-9 22.5q0 17 12 29t29 12q16 0 26.5 -11t10.5 -31q0 -36 -25.5 -73t-61.5 -58q19 -49 19 -105q0 -75 -22 -154t-60.5 -146.5t-98 -111t-127.5 -43.5z
M269 39q66 0 124 63t89.5 156t31.5 186q0 86 -43 134.5t-113 48.5q-67 0 -124.5 -63.5t-88.5 -156t-31 -185.5q0 -87 42.5 -135t112.5 -48z" />
    <glyph glyph-name="ohorn" unicode="&#x1a1;" 
d="M487 545q0 -34 -23.5 -69t-56.5 -57q24 -45 24 -104q0 -75 -27.5 -149t-82.5 -126t-122 -52q-75 0 -118.5 47t-43.5 133q0 75 27.5 149t82 126t121.5 52q79 0 122 -51q44 31 55 70h-6q-12 0 -21 9.5t-9 22.5q0 17 12 29t29 12q16 0 26.5 -11t10.5 -31zM201 33
q50 0 92 47.5t63 111t21 122.5q0 67 -29 101.5t-82 34.5q-50 0 -92 -47.5t-63 -111.5t-21 -122q0 -67 29.5 -101.5t81.5 -34.5z" />
    <glyph glyph-name="Uhorn" unicode="&#x1af;" horiz-adv-x="551" 
d="M679 744q0 -44 -36.5 -86t-90.5 -65l-84 -383q-25 -112 -76 -167t-143 -55q-86 0 -136 46t-50 127q0 29 5 49l100 457h56l-101 -458q-5 -17 -5 -42q0 -59 36 -94t97 -35q66 0 104 41.5t58 129.5l100 458h56l-8 -36q64 35 77 83q-1 -1 -7 -1q-12 0 -20.5 9.5t-8.5 22.5
q0 17 12 29.5t29 12.5q16 0 26 -11.5t10 -31.5z" />
    <glyph glyph-name="uhorn" unicode="&#x1b0;" horiz-adv-x="450" 
d="M531 547q0 -42 -34 -83t-84 -64l-88 -400h-51l16 69q-70 -81 -145 -81q-49 0 -78 24.5t-29 69.5q0 14 5 37l80 364h51l-78 -355q-5 -23 -5 -31q0 -64 74 -64q35 0 71.5 24.5t63.5 60.5l81 365h51l-10 -45q57 35 68 78h-6q-12 0 -21 9.5t-9 22.5q0 17 12 29t29 12
q36 0 36 -42z" />
    <glyph glyph-name="AEacute" unicode="&#x1fc;" horiz-adv-x="735" 
d="M652 867l-167 -144h-41l148 144h60zM627 0h-325l36 165h-200l-113 -165h-63l464 667h348l-10 -50h-270l-56 -250h263l-11 -50h-263l-59 -267h270zM349 215l84 381l-262 -381h178z" />
    <glyph glyph-name="aeacute" unicode="&#x1fd;" horiz-adv-x="761" 
d="M605 700l-167 -144h-41l148 144h60zM260 450q-50 0 -90.5 -50t-60 -115t-19.5 -123q0 -62 27 -95.5t76 -33.5q36 0 71.5 27t57.5 65l52 235q-11 38 -42 64t-72 26zM371 119l-27 -119h-50l15 69q-53 -81 -133 -81q-64 0 -102 44.5t-38 123.5q0 74 25 150t77 132.5
t117 56.5q43 0 77.5 -23.5t51.5 -65.5l17 77h50l-17 -82q25 40 63.5 67t83.5 27q69 0 107 -45t38 -129q0 -48 -13 -96h-317q-5 -28 -5 -53q0 -62 34 -101t97 -39q61 0 114 56l23 -36q-64 -64 -135 -64q-64 0 -103.5 34t-49.5 97zM403 265h268q6 34 6 54q0 59 -28 96t-82 37
q-59 0 -105 -57.5t-59 -129.5z" />
    <glyph glyph-name="Oslashacute" unicode="&#x1fe;" horiz-adv-x="590" 
d="M563 867l-167 -144h-41l148 144h60zM265 -12q-86 0 -142 53l-30 -41h-47l51 70q-42 61 -42 152q0 100 36.5 203t109.5 178t162 75q85 0 140 -53l31 42h47l-52 -71q44 -63 44 -153q0 -75 -22 -154t-60.5 -146.5t-98 -111t-127.5 -43.5zM269 39q66 0 124 63t89.5 156
t31.5 186q0 58 -22 102l-336 -459q42 -48 113 -48zM114 222q0 -59 20 -101l336 458q-43 48 -112 48q-67 0 -124.5 -63.5t-88.5 -156t-31 -185.5z" />
    <glyph glyph-name="oslashacute" unicode="&#x1ff;" 
d="M466 700l-167 -144h-41l148 144h60zM51 0h-43l52 63q-23 43 -23 105q0 75 27.5 149t82 126t121.5 52q74 0 117 -45l28 33h43l-51 -60q26 -43 26 -108q0 -75 -27.5 -149t-82.5 -126t-122 -52q-77 0 -119 47zM201 33q50 0 92 47.5t63 111t21 122.5q0 37 -9 64l-254 -303
q28 -42 87 -42zM90 169q0 -34 8 -61l254 302q-29 40 -86 40q-50 0 -92 -47.5t-63 -111.5t-21 -122z" />
    <glyph glyph-name="Scommaaccent" unicode="&#x218;" horiz-adv-x="459" 
d="M191 -122q0 -38 -29 -77t-67 -59l-21 23q60 33 73 81h-6q-13 0 -22 9.5t-9 23.5q0 18 12.5 30.5t29.5 12.5t28 -11.5t11 -32.5zM196 -12q-61 0 -113.5 25.5t-77.5 65.5l40 40q24 -37 65 -58.5t89 -21.5q65 0 103.5 42.5t38.5 104.5q0 30 -17.5 57t-43.5 45.5l-56 40.5
l-56 42.5t-43.5 52.5t-17.5 69q0 77 57.5 131t136.5 54q54 0 99.5 -21t70.5 -57l-38 -39q-45 66 -135 66q-55 0 -93.5 -38.5t-38.5 -89.5q0 -32 24 -60.5t58.5 -52l69 -49t58.5 -63t24 -82.5q0 -84 -56.5 -144t-147.5 -60z" />
    <glyph glyph-name="scommaaccent" unicode="&#x219;" horiz-adv-x="377" 
d="M147 -122q0 -38 -29 -77t-67 -59l-21 23q60 33 73 81h-6q-13 0 -22 9.5t-9 23.5q0 18 12.5 30.5t29.5 12.5t28 -11.5t11 -32.5zM151 -12q-107 0 -154 75l35 33q17 -28 49 -46.5t72 -18.5q47 0 77.5 29t30.5 69q0 27 -20 49.5t-48 39l-56 34.5t-48 44.5t-20 59.5
q0 58 41.5 98.5t111.5 40.5q46 0 84 -19t56 -49l-33 -32q-13 25 -43.5 41t-66.5 16q-44 0 -71.5 -24.5t-27.5 -61.5q0 -25 20 -46t48 -37.5t56 -35t48 -46t20 -61.5q0 -63 -44.5 -107.5t-116.5 -44.5z" />
    <glyph glyph-name="uni021A" unicode="&#x21a;" horiz-adv-x="435" 
d="M180 -122q0 -38 -29 -77t-67 -59l-21 23q60 33 73 81h-6q-13 0 -22 9.5t-9 23.5q0 18 12.5 30.5t29.5 12.5t28 -11.5t11 -32.5zM191 0h-56l137 617h-163l11 50h381l-11 -50h-163z" />
    <glyph glyph-name="uni021B" unicode="&#x21b;" horiz-adv-x="249" 
d="M73 -122q0 -38 -29 -77t-67 -59l-21 23q60 33 73 81h-6q-13 0 -22 9.5t-9 23.5q0 18 12.5 30.5t29.5 12.5t28 -11.5t11 -32.5zM127 -12q-83 0 -83 72q0 15 4 30l78 348h-66l11 45h65l29 132h51l-29 -132h83l-11 -45h-82l-77 -342q-3 -12 -3 -25q0 -38 40 -38q22 0 42 18
l12 -40q-28 -23 -64 -23z" />
    <glyph glyph-name="uni0237" unicode="&#x237;" horiz-adv-x="192" 
d="M-66 -196q-59 0 -84 39l31 34q15 -29 49 -29q52 0 70 79l124 556h50l-123 -556q-15 -65 -42.5 -94t-74.5 -29z" />
    <glyph glyph-name="hsuperior" unicode="&#x2b0;" horiz-adv-x="335" 
d="M295 326h-41l49 223q2 8 2 20q0 44 -50 44q-42 0 -89 -56l-50 -231h-42l96 434h41l-36 -166q45 54 98 54q37 0 57 -17t20 -46q0 -13 -4 -31z" />
    <glyph glyph-name="uni02BC" unicode="&#x2bc;" horiz-adv-x="218" 
d="M241 630q0 -41 -30.5 -82.5t-71.5 -62.5l-24 25q28 15 49.5 38t28.5 46h-7q-14 0 -24 10.5t-10 25.5q0 19 14 33t33 14q18 0 30 -12.5t12 -34.5z" />
    <glyph glyph-name="circumflex" unicode="&#x2c6;" horiz-adv-x="219" 
d="M288 556h-34l-51 112l-96 -112h-38l114 144h52z" />
    <glyph glyph-name="caron" unicode="&#x2c7;" horiz-adv-x="219" 
d="M206 556h-52l-53 144h34l50 -112l97 112h38z" />
    <glyph glyph-name="uni02C9" unicode="&#x2c9;" horiz-adv-x="304" 
d="M380 591h-303l8 37h303z" />
    <glyph glyph-name="uni02CB" unicode="&#x2cb;" horiz-adv-x="174" 
d="M243 556h-39l-103 144h58z" />
    <glyph glyph-name="breve" unicode="&#x2d8;" horiz-adv-x="293" 
d="M376 622q-71 -74 -162 -74q-44 0 -78.5 20t-52.5 54l32 24q30 -61 105 -61q74 0 130 61z" />
    <glyph glyph-name="dotaccent" unicode="&#x2d9;" horiz-adv-x="83" 
d="M158 602q0 -16 -12.5 -28.5t-29.5 -12.5q-14 0 -23.5 9.5t-9.5 23.5q0 17 12 29.5t29 12.5q14 0 24 -10t10 -24z" />
    <glyph glyph-name="ring" unicode="&#x2da;" horiz-adv-x="175" 
d="M165 549q-35 0 -57 22.5t-22 57.5q0 39 29 68t68 29q34 0 56.5 -22.5t22.5 -57.5q0 -40 -29 -68.5t-68 -28.5zM167 580q26 0 45 18.5t19 44.5q0 23 -13.5 37.5t-35.5 14.5q-26 0 -45.5 -19t-19.5 -45q0 -22 14 -36.5t36 -14.5z" />
    <glyph glyph-name="ogonek" unicode="&#x2db;" horiz-adv-x="151" 
d="M42 -114l26 -19q-29 -53 -80 -53q-31 0 -49 16.5t-18 46.5q0 83 110 143l25 -20q-100 -51 -100 -118q0 -35 37 -35q31 0 49 39z" />
    <glyph glyph-name="tilde" unicode="&#x2dc;" horiz-adv-x="260" 
d="M256 554q-23 0 -36.5 16t-17 35.5t-12.5 35.5t-25 16q-40 0 -61 -97h-34q29 134 102 134q23 0 36 -16t16.5 -35.5t13 -35.5t25.5 -16q38 0 61 97h34q-29 -134 -102 -134z" />
    <glyph glyph-name="hungarumlaut" unicode="&#x2dd;" horiz-adv-x="254" 
d="M230 700l-128 -144h-35l109 144h54zM355 700l-128 -144h-35l109 144h54z" />
    <glyph glyph-name="hookabovecomb" unicode="&#x309;" horiz-adv-x="151" 
d="M207 735l-24 12q23 43 64 43q25 0 40 -14t15 -38q0 -39 -34 -71h-34q39 34 39 68q0 13 -8 21t-20 8q-23 0 -38 -29z" />
    <glyph glyph-name="uni037E" unicode="&#x37e;" horiz-adv-x="218" 
d="M107 29q0 -41 -30 -82.5t-71 -62.5l-24 26q28 14 49.5 37.5t28.5 46.5h-7q-14 0 -24 10t-10 25q0 19 14 33t32 14q19 0 30.5 -12t11.5 -35zM150 404q-16 0 -27.5 11.5t-11.5 28.5q0 19 13.5 32.5t33.5 13.5q16 0 27.5 -11t11.5 -28q0 -20 -13.5 -33.5t-33.5 -13.5z" />
    <glyph glyph-name="tonos" unicode="&#x384;" horiz-adv-x="450" 
d="M202 570h-30l62 195h64z" />
    <glyph glyph-name="dieresistonos" unicode="&#x385;" horiz-adv-x="450" 
d="M305 570h-29l62 195h63zM460 605q0 -17 -12 -29t-28 -12q-14 0 -23.5 9.5t-9.5 23.5q0 16 12 28t29 12q14 0 23 -9.5t9 -22.5zM227 605q0 -17 -12.5 -29t-28.5 -12q-14 0 -23.5 9.5t-9.5 23.5q0 16 12 28t29 12q14 0 23.5 -9.5t9.5 -22.5z" />
    <glyph glyph-name="Alphatonos" unicode="&#x386;" horiz-adv-x="492" 
d="M169 570h-30l62 195h64zM426 0h-58l-12 165h-251l-84 -165h-63l348 667h66zM355 215l-28 387l-198 -387h226z" />
    <glyph glyph-name="Epsilontonos" unicode="&#x388;" horiz-adv-x="462" 
d="M95 570h-30l62 195h64zM357 0h-326l147 667h326l-11 -50h-270l-55 -250h263l-12 -50h-263l-59 -267h271z" />
    <glyph glyph-name="Etatonos" unicode="&#x389;" horiz-adv-x="570" 
d="M95 570h-30l62 195h64zM440 0h-55l70 318h-298l-70 -318h-56l147 667h56l-66 -299h298l66 299h55z" />
    <glyph glyph-name="Iotatonos" unicode="&#x38a;" horiz-adv-x="216" 
d="M95 570h-30l62 195h64zM87 0h-56l147 667h56z" />
    <glyph glyph-name="Omicrontonos" unicode="&#x38c;" horiz-adv-x="592" 
d="M127 570h-30l62 195h64zM268 -12q-95 0 -152.5 64t-57.5 170q0 100 36.5 203t109.5 178t162 75q95 0 152.5 -64.5t57.5 -170.5q0 -75 -22 -154t-60.5 -146.5t-98 -111t-127.5 -43.5zM272 39q66 0 124 63t89.5 156t31.5 186q0 86 -43 134.5t-113 48.5q-67 0 -124.5 -63.5
t-88.5 -156t-31 -185.5q0 -87 42.5 -135t112.5 -48z" />
    <glyph glyph-name="Upsilontonos" unicode="&#x38e;" horiz-adv-x="532" 
d="M90 570h-30l62 195h64zM264 0h-55l63 286l-122 381h60l98 -325l242 325h67l-290 -381z" />
    <glyph glyph-name="Omegatonos" unicode="&#x38f;" horiz-adv-x="585" 
d="M127 570h-30l62 195h64zM23 50h117q-79 71 -79 198q0 66 21.5 140t58.5 139.5t95.5 108t125.5 42.5q96 0 153 -59.5t57 -173.5q0 -133 -57 -238.5t-136 -156.5h100l-10 -50h-172l11 50q83 35 143.5 155t60.5 238q0 88 -40 135.5t-111 47.5q-70 0 -128.5 -67t-88 -157
t-29.5 -172q0 -122 80 -180l-11 -50h-172z" />
    <glyph glyph-name="iotadieresistonos" unicode="&#x390;" horiz-adv-x="203" 
d="M182 570h-29l62 195h63zM337 605q0 -17 -12 -29t-28 -12q-14 0 -23.5 9.5t-9.5 23.5q0 16 12 28t29 12q13 0 22.5 -9.5t9.5 -22.5zM104 605q0 -17 -12 -29t-29 -12q-14 0 -23.5 9.5t-9.5 23.5q0 16 12 28t29 12q14 0 23.5 -9.5t9.5 -22.5zM98 -12q-83 0 -62 101l87 394
h51l-86 -390q-13 -60 27 -60q6 0 18 2l-6 -44q-10 -3 -29 -3z" />
    <glyph glyph-name="Alpha" unicode="&#x391;" horiz-adv-x="492" 
d="M426 0h-58l-12 165h-251l-84 -165h-63l348 667h66zM355 215l-28 387l-198 -387h226z" />
    <glyph glyph-name="Beta" unicode="&#x392;" horiz-adv-x="498" 
d="M232 0h-211l147 667h177q64 0 104.5 -38.5t40.5 -101.5q0 -70 -39 -125t-99 -65q36 -10 57.5 -47t21.5 -79q0 -85 -52.5 -148t-146.5 -63zM158 367h143q64 0 96.5 48t32.5 106q0 44 -27.5 70t-70.5 26h-119zM233 50q63 0 101.5 49.5t38.5 114.5q0 49 -27 76t-76 27h-124
l-59 -267h146z" />
    <glyph glyph-name="Gamma" unicode="&#x393;" horiz-adv-x="441" 
d="M77 0h-56l147 667h326l-11 -50h-270z" />
    <glyph glyph-name="uni0394" unicode="&#x394;" horiz-adv-x="492" 
d="M426 0h-468l348 667h66zM366 50l-39 552l-283 -552h322z" />
    <glyph glyph-name="Epsilon" unicode="&#x395;" horiz-adv-x="452" 
d="M347 0h-326l147 667h326l-11 -50h-270l-55 -250h263l-12 -50h-263l-59 -267h271z" />
    <glyph glyph-name="Zeta" unicode="&#x396;" horiz-adv-x="453" 
d="M356 0h-368l11 49l417 568h-291l10 50h361l-10 -48l-419 -569h300z" />
    <glyph glyph-name="Eta" unicode="&#x397;" horiz-adv-x="559" 
d="M430 0h-55l70 318h-298l-70 -318h-56l147 667h56l-66 -299h298l66 299h55z" />
    <glyph glyph-name="Theta" unicode="&#x398;" horiz-adv-x="590" 
d="M446 317h-275l11 50h275zM265 -12q-95 0 -152.5 64t-57.5 170q0 100 36.5 203t109.5 178t162 75q95 0 152.5 -64.5t57.5 -170.5q0 -75 -22 -154t-60.5 -146.5t-98 -111t-127.5 -43.5zM269 39q66 0 124 63t89.5 156t31.5 186q0 86 -43 134.5t-113 48.5q-67 0 -124.5 -63.5
t-88.5 -156t-31 -185.5q0 -87 42.5 -135t112.5 -48z" />
    <glyph glyph-name="Iota" unicode="&#x399;" horiz-adv-x="206" 
d="M77 0h-56l147 667h56z" />
    <glyph glyph-name="Kappa" unicode="&#x39a;" horiz-adv-x="490" 
d="M417 0h-63l-148 312l-80 -87l-49 -225h-56l147 667h56l-79 -356l328 356h71l-297 -318z" />
    <glyph glyph-name="Lambda" unicode="&#x39b;" horiz-adv-x="492" 
d="M426 0h-58l-41 602l-306 -602h-63l348 667h66z" />
    <glyph glyph-name="Mu" unicode="&#x39c;" horiz-adv-x="661" 
d="M532 0h-55l127 577l-316 -577h-23l-61 577l-127 -577h-56l147 667h79l57 -532l293 532h82z" />
    <glyph glyph-name="Nu" unicode="&#x39d;" horiz-adv-x="557" 
d="M428 0h-54l-175 555l-122 -555h-56l147 667h56l174 -546l121 546h56z" />
    <glyph glyph-name="Xi" unicode="&#x39e;" horiz-adv-x="485" 
d="M516 617h-382l11 50h381zM380 0h-382l11 50h381zM443 317h-368l10 50h369z" />
    <glyph glyph-name="Omicron" unicode="&#x39f;" horiz-adv-x="590" 
d="M265 -12q-95 0 -152.5 64t-57.5 170q0 100 36.5 203t109.5 178t162 75q95 0 152.5 -64.5t57.5 -170.5q0 -75 -22 -154t-60.5 -146.5t-98 -111t-127.5 -43.5zM269 39q66 0 124 63t89.5 156t31.5 186q0 86 -43 134.5t-113 48.5q-67 0 -124.5 -63.5t-88.5 -156t-31 -185.5
q0 -87 42.5 -135t112.5 -48z" />
    <glyph glyph-name="Pi" unicode="&#x3a0;" horiz-adv-x="559" 
d="M430 0h-55l135 617h-298l-135 -617h-56l147 667h409z" />
    <glyph glyph-name="Rho" unicode="&#x3a1;" horiz-adv-x="468" 
d="M77 0h-56l147 667h171q65 0 106 -44.5t41 -111.5q0 -92 -57 -162.5t-165 -70.5h-126zM149 328h122q74 0 115 53.5t41 126.5q0 49 -28 79t-71 30h-115z" />
    <glyph glyph-name="Sigma" unicode="&#x3a3;" horiz-adv-x="414" 
d="M188 617l120 -279l-242 -288h262l-11 -50h-326l11 54l245 293l-118 273l10 47h325l-10 -50h-266z" />
    <glyph glyph-name="Tau" unicode="&#x3a4;" horiz-adv-x="435" 
d="M191 0h-56l137 617h-163l11 50h381l-11 -50h-163z" />
    <glyph glyph-name="Upsilon" unicode="&#x3a5;" horiz-adv-x="483" 
d="M215 0h-55l63 286l-122 381h60l98 -325l242 325h67l-290 -381z" />
    <glyph glyph-name="Phi" unicode="&#x3a6;" horiz-adv-x="670" 
d="M309 0h-56l15 66q-101 9 -152 66t-51 147q0 120 89 218t236 104l15 66h56l-15 -67q100 -10 151 -67t51 -146q0 -76 -37 -147t-113 -121.5t-175 -54.5zM125 279q0 -67 39.5 -111.5t114.5 -51.5l99 434q-118 -10 -185.5 -90.5t-67.5 -180.5zM588 387q0 67 -39.5 111.5
t-114.5 51.5l-99 -434q116 10 184.5 90.5t68.5 180.5z" />
    <glyph glyph-name="Chi" unicode="&#x3a7;" horiz-adv-x="491" 
d="M425 0h-61l-106 292l-230 -292h-70l276 344l-118 323h62l97 -277l215 277h71l-261 -330z" />
    <glyph glyph-name="Psi" unicode="&#x3a8;" horiz-adv-x="661" 
d="M304 0h-55l28 125q-180 15 -180 174q0 34 9 77l67 291h56l-69 -301q-7 -30 -7 -64q0 -117 136 -127l112 492h55l-112 -492q174 14 215 191l68 301h56l-71 -313q-24 -105 -98 -165t-182 -65z" />
    <glyph glyph-name="uni03A9" unicode="&#x3a9;" horiz-adv-x="581" 
d="M19 50h117q-79 71 -79 198q0 66 21.5 140t58.5 139.5t95.5 108t125.5 42.5q96 0 153 -59.5t57 -173.5q0 -133 -57 -238.5t-136 -156.5h100l-10 -50h-172l11 50q83 35 143.5 155t60.5 238q0 88 -40 135.5t-111 47.5q-70 0 -128.5 -67t-88 -157t-29.5 -172q0 -122 80 -180
l-11 -50h-172z" />
    <glyph glyph-name="Iotadieresis" unicode="&#x3aa;" horiz-adv-x="206" 
d="M77 0h-56l147 667h56zM343 789q0 -17 -12.5 -29t-28.5 -12q-14 0 -23 9.5t-9 23.5q0 16 12 28t29 12q13 0 22.5 -9.5t9.5 -22.5zM175 789q0 -17 -12 -29t-28 -12q-14 0 -23.5 9.5t-9.5 23.5q0 16 12 28t29 12q13 0 22.5 -9.5t9.5 -22.5z" />
    <glyph glyph-name="Upsilondieresis" unicode="&#x3ab;" horiz-adv-x="483" 
d="M215 0h-55l63 286l-122 381h60l98 -325l242 325h67l-290 -381zM481 789q0 -17 -12.5 -29t-28.5 -12q-14 0 -23 9.5t-9 23.5q0 16 12 28t29 12q13 0 22.5 -9.5t9.5 -22.5zM313 789q0 -17 -12 -29t-28 -12q-14 0 -23.5 9.5t-9.5 23.5q0 16 12 28t29 12q13 0 22.5 -9.5
t9.5 -22.5z" />
    <glyph glyph-name="alphatonos" unicode="&#x3ac;" horiz-adv-x="480" 
d="M315 570h-30l62 195h64zM410 35l-5 -44q-12 -3 -30 -3q-75 0 -64 86q-54 -86 -135 -86q-64 0 -102 45t-38 123q0 74 25 150t77 132.5t117 56.5q43 0 77.5 -23.5t51.5 -65.5l17 77h50l-86 -390q-13 -60 27 -60q8 0 18 2zM193 33q36 0 71.5 27t57.5 65l52 235
q-11 38 -42 64t-72 26q-50 0 -90.5 -50t-60 -115t-19.5 -123q0 -62 27 -95.5t76 -33.5z" />
    <glyph glyph-name="epsilontonos" unicode="&#x3ad;" horiz-adv-x="429" 
d="M306 570h-30l62 195h64zM180 -12q-80 0 -120.5 33t-40.5 86q0 58 46.5 96.5t99.5 44.5q-36 7 -60.5 33t-24.5 65q0 66 59 107.5t138 41.5q112 0 155 -78l-36 -27q-34 62 -119 62q-60 0 -102.5 -30t-42.5 -79q0 -36 29.5 -56t76.5 -20h89l-10 -43h-90q-64 0 -108.5 -26.5
t-44.5 -85.5q0 -37 28.5 -59t80.5 -22q85 0 154 69l25 -33q-81 -79 -182 -79z" />
    <glyph glyph-name="etatonos" unicode="&#x3ae;" horiz-adv-x="450" 
d="M309 570h-30l62 195h64zM284 -184h-51l120 539q5 22 5 31q0 64 -74 64q-68 0 -137 -87l-80 -363h-50l107 483h50l-15 -70q69 82 144 82q49 0 78.5 -24.5t29.5 -69.5q0 -12 -5 -37z" />
    <glyph glyph-name="iotatonos" unicode="&#x3af;" horiz-adv-x="203" 
d="M182 570h-30l62 195h64zM98 -12q-83 0 -62 101l87 394h51l-86 -390q-13 -60 27 -60q6 0 18 2l-6 -44q-10 -3 -29 -3z" />
    <glyph glyph-name="upsilondieresistonos" unicode="&#x3b0;" horiz-adv-x="459" 
d="M321 570h-29l62 195h63zM476 605q0 -17 -12 -29t-28 -12q-14 0 -23.5 9.5t-9.5 23.5q0 16 12 28t29 12q14 0 23 -9.5t9 -22.5zM243 605q0 -17 -12.5 -29t-28.5 -12q-14 0 -23.5 9.5t-9.5 23.5q0 16 12 28t29 12q14 0 23.5 -9.5t9.5 -22.5zM181 -12q-80 0 -112 52.5
t-12 141.5l68 301h50l-67 -303q-33 -147 75 -147q79 0 134 87.5t55 206.5q0 86 -29 147l49 19q32 -66 32 -164q0 -133 -68.5 -237t-174.5 -104z" />
    <glyph glyph-name="alpha" unicode="&#x3b1;" horiz-adv-x="480" 
d="M410 35l-5 -44q-12 -3 -30 -3q-75 0 -64 86q-54 -86 -135 -86q-64 0 -102 45t-38 123q0 74 25 150t77 132.5t117 56.5q43 0 77.5 -23.5t51.5 -65.5l17 77h50l-86 -390q-13 -60 27 -60q8 0 18 2zM193 33q36 0 71.5 27t57.5 65l52 235q-11 38 -42 64t-72 26
q-50 0 -90.5 -50t-60 -115t-19.5 -123q0 -62 27 -95.5t76 -33.5z" />
    <glyph glyph-name="beta" unicode="&#x3b2;" 
d="M208 -12q-47 0 -79.5 22.5t-45.5 60.5l-57 -255h-50l143 646q26 113 84 164t130 51q66 0 103 -34t37 -100q0 -73 -45.5 -128t-106.5 -70q36 -8 63 -42t27 -89q0 -94 -60 -160t-143 -66zM170 459l-76 -338q8 -37 36.5 -62.5t70.5 -25.5q69 0 113 55.5t44 126.5
q0 52 -29.5 79t-76.5 27h-25l10 45h24q65 0 110.5 47t45.5 125q0 44 -23.5 68.5t-64.5 24.5q-51 0 -95 -42t-64 -130z" />
    <glyph glyph-name="gamma" unicode="&#x3b3;" horiz-adv-x="392" 
d="M126 -184h-51l34 153q31 155 15.5 285t-70.5 229h60q41 -83 56.5 -188.5t-0.5 -219.5q65 82 119 193t78 215h51q-26 -117 -93 -244t-157 -236z" />
    <glyph glyph-name="delta" unicode="&#x3b4;" 
d="M200 -12q-79 0 -122.5 49.5t-43.5 124.5q0 87 49.5 156.5t135.5 115.5q-60 46 -60 105t49 99.5t119 40.5q93 0 132 -62l-34 -30q-28 49 -100 49q-49 0 -82 -27.5t-33 -66.5q0 -23 15.5 -43.5t39 -35t51 -35t51 -43t39 -59.5t15.5 -83q0 -90 -61.5 -172.5t-159.5 -82.5z
M371 240q0 32 -8.5 57.5t-28.5 46.5t-34 32t-42 31q-74 -32 -121.5 -96t-47.5 -146q0 -56 30 -94t84 -38q72 0 120 67.5t48 139.5z" />
    <glyph glyph-name="epsilon" unicode="&#x3b5;" horiz-adv-x="429" 
d="M180 -12q-80 0 -120.5 33t-40.5 86q0 58 46.5 96.5t99.5 44.5q-36 7 -60.5 33t-24.5 65q0 66 59 107.5t138 41.5q112 0 155 -78l-36 -27q-34 62 -119 62q-60 0 -102.5 -30t-42.5 -79q0 -36 29.5 -56t76.5 -20h89l-10 -43h-90q-64 0 -108.5 -26.5t-44.5 -85.5
q0 -37 28.5 -59t80.5 -22q85 0 154 69l25 -33q-81 -79 -182 -79z" />
    <glyph glyph-name="zeta" unicode="&#x3b6;" horiz-adv-x="398" 
d="M244 -40q0 28 -44 28q-80 0 -124.5 45t-44.5 118q0 108 86.5 229t265.5 242h-238l10 45h299l-10 -41q-169 -111 -263 -230.5t-94 -236.5q0 -55 34 -90.5t95 -35.5q83 0 83 -56q0 -47 -69 -134h-60q74 79 74 117z" />
    <glyph glyph-name="eta" unicode="&#x3b7;" horiz-adv-x="450" 
d="M284 -184h-51l120 539q5 22 5 31q0 64 -74 64q-68 0 -137 -87l-80 -363h-50l107 483h50l-15 -70q69 82 144 82q49 0 78.5 -24.5t29.5 -69.5q0 -12 -5 -37z" />
    <glyph glyph-name="theta" unicode="&#x3b8;" 
d="M201 -12q-74 0 -114.5 55.5t-40.5 158.5q0 75 19 157.5t51.5 154.5t84 118.5t110.5 46.5q74 0 114 -55.5t40 -159.5q0 -103 -30.5 -210.5t-93 -186.5t-140.5 -79zM204 33q62 0 111.5 82t75.5 198h-280q-12 -66 -12 -121q0 -159 105 -159zM307 634q-61 0 -110 -80.5
t-76 -195.5h280q11 66 11 116q0 160 -105 160z" />
    <glyph glyph-name="iota" unicode="&#x3b9;" horiz-adv-x="203" 
d="M98 -12q-83 0 -62 101l87 394h51l-86 -390q-13 -60 27 -60q6 0 18 2l-6 -44q-10 -3 -29 -3z" />
    <glyph glyph-name="kappa" unicode="&#x3ba;" horiz-adv-x="424" 
d="M350 0h-57l-97 233l-99 -97l-30 -136h-50l107 483h50l-61 -277l282 277h64l-224 -218z" />
    <glyph glyph-name="lambda" unicode="&#x3bb;" horiz-adv-x="392" 
d="M137 626l2 46q19 7 44 7q75 0 85 -86l60 -593h-54l-36 421l-225 -421h-57l270 493l-8 86q-4 31 -15 43t-32 12q-18 0 -34 -8z" />
    <glyph glyph-name="uni03BC" unicode="&#x3bc;" horiz-adv-x="461" 
d="M74 29l-48 -213h-51l149 667h51l-79 -355q-11 -48 7.5 -72t56.5 -24q36 0 74.5 24.5t65.5 59.5l81 367h51l-86 -390q-15 -60 27 -60q6 0 18 2l-6 -44q-11 -3 -29 -3q-74 0 -63 84q-70 -84 -145 -84q-54 0 -74 41z" />
    <glyph glyph-name="nu" unicode="&#x3bd;" horiz-adv-x="392" 
d="M165 0h-52l-49 483h56l36 -428q75 95 131 208.5t80 219.5h51q-27 -118 -94.5 -246.5t-158.5 -236.5z" />
    <glyph glyph-name="xi" unicode="&#x3be;" horiz-adv-x="398" 
d="M205 -12q-87 0 -132.5 41t-45.5 109q0 82 47 134.5t114 67.5q-34 9 -58 39t-24 75q0 52 35.5 97t90.5 71h-86l11 45h286l-10 -45h-146q-54 -21 -90 -65.5t-36 -94.5q0 -46 29.5 -71t75.5 -25h103l-10 -44h-100q-75 0 -125.5 -46.5t-50.5 -129.5q0 -49 34.5 -81t98.5 -32
q83 0 83 -56q0 -47 -69 -134h-55q69 79 69 117q0 28 -39 28z" />
    <glyph glyph-name="omicron" unicode="&#x3bf;" 
d="M199 -12q-75 0 -118.5 47t-43.5 133q0 75 27.5 149t82 126t121.5 52q75 0 119 -47t44 -133q0 -75 -27.5 -149t-82.5 -126t-122 -52zM201 33q50 0 92 47.5t63 111t21 122.5q0 67 -29 101.5t-82 34.5q-50 0 -92 -47.5t-63 -111.5t-21 -122q0 -67 29.5 -101.5t81.5 -34.5z
" />
    <glyph glyph-name="pi" unicode="&#x3c0;" horiz-adv-x="474" 
d="M338 0h-51l98 438h-208l-98 -438h-50l98 438h-66l10 45h440l-10 -45h-66z" />
    <glyph glyph-name="rho" unicode="&#x3c1;" horiz-adv-x="467" 
d="M213 -12q-43 0 -77 23.5t-52 65.5l-58 -261h-50l94 426q24 112 82.5 182.5t138.5 70.5q69 0 105 -48t36 -123q0 -52 -15 -110t-42 -109t-69.5 -84t-92.5 -33zM209 33q49 0 89.5 50t60 115t19.5 123q0 60 -23 94.5t-68 34.5q-58 0 -101.5 -58t-64.5 -150l-26 -119
q9 -37 41 -63.5t73 -26.5z" />
    <glyph glyph-name="sigma1" unicode="&#x3c2;" horiz-adv-x="388" 
d="M197 -12q-71 0 -115.5 48.5t-44.5 138.5q0 74 28 146.5t84 123t124 50.5q90 0 132 -69l-36 -32q-31 56 -96 56q-55 0 -98.5 -46.5t-63.5 -108.5t-20 -122q0 -69 33.5 -104.5t90.5 -35.5q81 0 81 -56q0 -49 -69 -134h-56q75 79 75 117q0 28 -49 28z" />
    <glyph glyph-name="sigma" unicode="&#x3c3;" 
d="M428 304q0 -70 -26.5 -141.5t-81 -123t-121.5 -51.5q-75 0 -118.5 47t-43.5 133q0 75 29.5 145.5t91.5 120t142 49.5h202l-11 -45h-106q43 -53 43 -134zM376 307q0 90 -47 131h-36q-47 0 -87 -26.5t-64 -67.5t-37.5 -87t-13.5 -88q0 -67 29 -101.5t81 -34.5q50 0 91.5 47
t62.5 109t21 118z" />
    <glyph glyph-name="tau" unicode="&#x3c4;" horiz-adv-x="358" 
d="M193 -12q-44 0 -64.5 25t-8.5 76l77 349h-131l10 45h314l-10 -45h-132l-76 -344q-13 -61 33 -61q26 0 45 19l12 -38q-31 -26 -69 -26z" />
    <glyph glyph-name="upsilon" unicode="&#x3c5;" horiz-adv-x="459" 
d="M181 -12q-80 0 -112 52.5t-12 141.5l68 301h50l-67 -303q-33 -147 75 -147q79 0 134 87.5t55 206.5q0 86 -29 147l49 19q32 -66 32 -164q0 -133 -68.5 -237t-174.5 -104z" />
    <glyph glyph-name="phi" unicode="&#x3c6;" horiz-adv-x="610" 
d="M571 295q0 -52 -18.5 -104t-53.5 -97.5t-94 -75t-132 -30.5l-38 -172h-51l39 175q-93 9 -138 62t-45 139q0 98 55.5 179t157.5 124l15 -41q-84 -37 -128.5 -106.5t-44.5 -154.5q0 -143 138 -158l103 460h25q105 0 157.5 -54.5t52.5 -145.5zM376 449l-93 -416
q51 3 93 23.5t67 49t42.5 64t24 66.5t6.5 58q0 147 -140 155z" />
    <glyph glyph-name="chi" unicode="&#x3c7;" horiz-adv-x="393" 
d="M281 -184h-53l-59 290l-190 -290h-58l226 340l-68 327h52l55 -276l178 276h58l-215 -327z" />
    <glyph glyph-name="psi" unicode="&#x3c8;" horiz-adv-x="610" 
d="M235 -184h-51l39 174q-167 14 -167 153q0 35 11 84l58 256h50l-58 -264q-10 -42 -10 -72q0 -102 126 -113l142 633h51l-143 -634q160 10 200 181l59 269h51l-62 -278q-23 -104 -89 -159.5t-169 -57.5z" />
    <glyph glyph-name="omega" unicode="&#x3c9;" horiz-adv-x="669" 
d="M633 321q0 -74 -24.5 -149.5t-72.5 -129.5t-107 -54q-115 0 -119 132q-25 -59 -64 -95.5t-87 -36.5q-62 0 -93 46.5t-31 122.5q0 97 47.5 195t125.5 143l28 -35q-68 -41 -108 -126.5t-40 -175.5q0 -125 78 -125q50 0 86.5 59.5t56.5 149.5l28 124h50l-27 -124
q-22 -79 -6.5 -144t72.5 -65q44 0 81 48.5t55.5 113.5t18.5 124q0 102 -45 146l38 30q29 -24 44 -72t15 -102z" />
    <glyph glyph-name="iotadieresis" unicode="&#x3ca;" horiz-adv-x="203" 
d="M296 605q0 -17 -12 -29t-29 -12q-14 0 -23 9.5t-9 23.5q0 16 12 28t29 12q14 0 23 -9.5t9 -22.5zM128 605q0 -17 -12 -29t-28 -12q-14 0 -23.5 9.5t-9.5 23.5q0 16 12 28t29 12q14 0 23 -9.5t9 -22.5zM98 -12q-83 0 -62 101l87 394h51l-86 -390q-13 -60 27 -60q6 0 18 2
l-6 -44q-10 -3 -29 -3z" />
    <glyph glyph-name="upsilondieresis" unicode="&#x3cb;" horiz-adv-x="459" 
d="M438 605q0 -17 -12 -29t-29 -12q-14 0 -23 9.5t-9 23.5q0 16 12 28t29 12q14 0 23 -9.5t9 -22.5zM270 605q0 -17 -12 -29t-28 -12q-14 0 -23.5 9.5t-9.5 23.5q0 16 12 28t29 12q14 0 23 -9.5t9 -22.5zM181 -12q-80 0 -112 52.5t-12 141.5l68 301h50l-67 -303
q-33 -147 75 -147q79 0 134 87.5t55 206.5q0 86 -29 147l49 19q32 -66 32 -164q0 -133 -68.5 -237t-174.5 -104z" />
    <glyph glyph-name="omicrontonos" unicode="&#x3cc;" 
d="M319 570h-30l62 195h64zM199 -12q-75 0 -118.5 47t-43.5 133q0 75 27.5 149t82 126t121.5 52q75 0 119 -47t44 -133q0 -75 -27.5 -149t-82.5 -126t-122 -52zM201 33q50 0 92 47.5t63 111t21 122.5q0 67 -29 101.5t-82 34.5q-50 0 -92 -47.5t-63 -111.5t-21 -122
q0 -67 29.5 -101.5t81.5 -34.5z" />
    <glyph glyph-name="upsilontonos" unicode="&#x3cd;" horiz-adv-x="459" 
d="M323 570h-30l62 195h64zM181 -12q-80 0 -112 52.5t-12 141.5l68 301h50l-67 -303q-33 -147 75 -147q79 0 134 87.5t55 206.5q0 86 -29 147l49 19q32 -66 32 -164q0 -133 -68.5 -237t-174.5 -104z" />
    <glyph glyph-name="omegatonos" unicode="&#x3ce;" horiz-adv-x="669" 
d="M420 570h-30l62 195h64zM633 321q0 -74 -24.5 -149.5t-72.5 -129.5t-107 -54q-115 0 -119 132q-25 -59 -64 -95.5t-87 -36.5q-62 0 -93 46.5t-31 122.5q0 97 47.5 195t125.5 143l28 -35q-68 -41 -108 -126.5t-40 -175.5q0 -125 78 -125q50 0 86.5 59.5t56.5 149.5l28 124
h50l-27 -124q-22 -79 -6.5 -144t72.5 -65q44 0 81 48.5t55.5 113.5t18.5 124q0 102 -45 146l38 30q29 -24 44 -72t15 -102z" />
    <glyph glyph-name="afii10023" unicode="&#x401;" horiz-adv-x="452" 
d="M473 772q0 -16 -12.5 -28.5t-28.5 -12.5q-14 0 -23 9.5t-9 23.5q0 16 12 28t29 12q13 0 22.5 -9t9.5 -23zM305 772q0 -17 -12 -29t-28 -12q-14 0 -23.5 9.5t-9.5 23.5q0 16 12 28t29 12q13 0 22.5 -9t9.5 -23zM347 0h-326l147 667h326l-11 -50h-270l-55 -250h263l-12 -50
h-263l-59 -267h271z" />
    <glyph glyph-name="afii10051" unicode="&#x402;" horiz-adv-x="610" 
d="M323 -12l10 51q116 0 148 145l10 42q17 76 -9.5 118t-93.5 42q-59 0 -116 -15l-81 -371h-56l136 617h-163l11 50h381l-10 -50h-164l-43 -196q64 15 119 15q93 0 129 -58t16 -152l-10 -42q-22 -100 -79.5 -148t-134.5 -48z" />
    <glyph glyph-name="afii10052" unicode="&#x403;" horiz-adv-x="441" 
d="M513 867l-167 -144h-41l148 144h60zM77 0h-56l147 667h326l-11 -50h-270z" />
    <glyph glyph-name="afii10053" unicode="&#x404;" horiz-adv-x="523" 
d="M265 -12q-95 0 -152.5 62t-57.5 172q0 106 38.5 210t111 175t158.5 71q70 0 118.5 -37.5t70.5 -103.5l-53 -17q-38 107 -141 107q-72 0 -133 -75.5t-91 -184.5h287l-12 -50h-286q-9 -48 -9 -95q0 -87 41 -135t114 -48t143 81l42 -29q-81 -103 -189 -103z" />
    <glyph glyph-name="afii10054" unicode="&#x405;" horiz-adv-x="459" 
d="M196 -12q-61 0 -113.5 25.5t-77.5 65.5l40 40q24 -37 65 -58.5t89 -21.5q65 0 103.5 42.5t38.5 104.5q0 30 -17.5 57t-43.5 45.5l-56 40.5l-56 42.5t-43.5 52.5t-17.5 69q0 77 57.5 131t136.5 54q54 0 99.5 -21t70.5 -57l-38 -39q-45 66 -135 66q-55 0 -93.5 -38.5
t-38.5 -89.5q0 -32 24 -60.5t58.5 -52l69 -49t58.5 -63t24 -82.5q0 -84 -56.5 -144t-147.5 -60z" />
    <glyph glyph-name="afii10055" unicode="&#x406;" horiz-adv-x="206" 
d="M77 0h-56l147 667h56z" />
    <glyph glyph-name="afii10056" unicode="&#x407;" horiz-adv-x="206" 
d="M340 772q0 -16 -12 -28.5t-29 -12.5q-14 0 -23 9.5t-9 23.5q0 16 12 28t29 12q14 0 23 -9t9 -23zM172 772q0 -17 -12 -29t-28 -12q-14 0 -23.5 9.5t-9.5 23.5q0 16 12 28t29 12q14 0 23 -9t9 -23zM77 0h-56l147 667h56z" />
    <glyph glyph-name="afii10057" unicode="&#x408;" horiz-adv-x="390" 
d="M114 -12q-99 0 -141 71l34 39q33 -59 104 -59q102 0 130 124l111 504h56l-112 -505q-38 -174 -182 -174z" />
    <glyph glyph-name="afii10058" unicode="&#x409;" horiz-adv-x="821" 
d="M-30 -12l11 51q37 0 64.5 19.5t60.5 82t69 177.5l109 349h293l-61 -278h122q79 0 115 -52t23 -131q-12 -86 -69.5 -146t-148.5 -60h-183l135 617h-186l-95 -303q-33 -104 -64.5 -171t-64 -100t-61.5 -44t-69 -11zM627 339h-122l-64 -289h123q60 0 101 43t52 110
q11 60 -13 98t-77 38z" />
    <glyph glyph-name="afii10059" unicode="&#x40a;" horiz-adv-x="821" 
d="M562 0h-189l70 318h-298l-70 -318h-55l146 667h55l-66 -299h298l66 299h56l-66 -299h128q76 0 111.5 -49.5t23.5 -124.5q-12 -81 -67 -137.5t-143 -56.5zM626 318h-128l-59 -268h129q56 0 95.5 40t49.5 101q11 57 -12 92t-75 35z" />
    <glyph glyph-name="afii10060" unicode="&#x40b;" horiz-adv-x="614" 
d="M440 0l50 230q16 73 -10 114.5t-92 41.5q-59 0 -116 -15l-81 -371h-56l136 617h-163l11 50h381l-10 -50h-164l-43 -196q64 15 119 15q93 0 128.5 -57.5t14.5 -149.5l-50 -229h-55z" />
    <glyph glyph-name="afii10061" unicode="&#x40c;" horiz-adv-x="490" 
d="M520 867l-167 -144h-41l148 144h60zM417 0h-63l-148 312l-80 -87l-49 -225h-56l147 667h56l-79 -356l328 356h71l-297 -318z" />
    <glyph glyph-name="afii10062" unicode="&#x40e;" horiz-adv-x="483" 
d="M49 -12q-60 0 -90 39l34 45q23 -33 64 -33q27 0 47.5 16t49.5 58l40 67l-94 487h58l79 -422l265 422h65l-363 -574q-36 -54 -71.5 -79.5t-83.5 -25.5zM499 789q-71 -74 -162 -74q-44 0 -78.5 20t-52.5 54l32 24q30 -61 105 -61q74 0 130 61z" />
    <glyph glyph-name="afii10145" unicode="&#x40f;" horiz-adv-x="559" 
d="M170 -128l28 128h-177l146 667h56l-136 -617h298l136 617h56l-147 -667h-177l-28 -128h-55z" />
    <glyph glyph-name="afii10017" unicode="&#x410;" horiz-adv-x="492" 
d="M426 0h-58l-12 165h-251l-84 -165h-63l348 667h66zM355 215l-28 387l-198 -387h226z" />
    <glyph glyph-name="afii10018" unicode="&#x411;" horiz-adv-x="468" 
d="M167 667h324l-11 -50h-268l-50 -228h115q65 0 106.5 -44t41.5 -111q0 -92 -57 -163t-164 -71h-183zM267 339h-116l-64 -289h123q73 0 114 54t41 127q0 48 -27.5 78t-70.5 30z" />
    <glyph glyph-name="afii10019" unicode="&#x412;" horiz-adv-x="498" 
d="M232 0h-211l147 667h177q64 0 104.5 -38.5t40.5 -101.5q0 -70 -39 -125t-99 -65q36 -10 57.5 -47t21.5 -79q0 -85 -52.5 -148t-146.5 -63zM158 367h143q64 0 96.5 48t32.5 106q0 44 -27.5 70t-70.5 26h-119zM233 50q63 0 101.5 49.5t38.5 114.5q0 49 -27 76t-76 27h-124
l-59 -267h146z" />
    <glyph glyph-name="afii10020" unicode="&#x413;" horiz-adv-x="441" 
d="M77 0h-56l147 667h326l-11 -50h-270z" />
    <glyph glyph-name="afii10021" unicode="&#x414;" horiz-adv-x="578" 
d="M-55 -123l37 169q39 4 64.5 21t59.5 78t70 177l108 345h292l-135 -617h61l-38 -173h-56l27 123h-408l-27 -123h-55zM324 617l-94 -300q-69 -213 -148 -267h303l125 567h-186z" />
    <glyph glyph-name="afii10022" unicode="&#x415;" horiz-adv-x="452" 
d="M347 0h-326l147 667h326l-11 -50h-270l-55 -250h263l-12 -50h-263l-59 -267h271z" />
    <glyph glyph-name="afii10024" unicode="&#x416;" horiz-adv-x="716" 
d="M33 0h-71l324 349l-158 318h63l158 -337l74 337h55l-71 -324l295 324h71l-298 -318l172 -349h-64l-146 313l-49 -54l-56 -259h-56l57 259l-21 47z" />
    <glyph glyph-name="afii10025" unicode="&#x417;" horiz-adv-x="471" 
d="M198 -12q-72 0 -125 36t-70 100l47 26q16 -53 54.5 -82t92.5 -29q68 0 110 52.5t42 122.5q0 50 -34 77t-91 27h-91l12 51h112q64 0 108.5 45t44.5 111q0 46 -32.5 73.5t-88.5 27.5q-81 0 -142 -73l-32 34q31 40 78.5 65t100.5 25q78 0 126.5 -38.5t48.5 -107.5
q0 -71 -49.5 -126.5t-115.5 -64.5q45 -11 73 -47.5t28 -84.5q0 -88 -58.5 -154t-148.5 -66z" />
    <glyph glyph-name="afii10026" unicode="&#x418;" horiz-adv-x="557" 
d="M75 0h-54l147 667h56l-121 -546l416 546h56l-147 -667h-56l122 555z" />
    <glyph glyph-name="afii10027" unicode="&#x419;" horiz-adv-x="557" 
d="M75 0h-54l147 667h56l-121 -546l416 546h56l-147 -667h-56l122 555zM540 789q-71 -74 -162 -74q-44 0 -78.5 20t-52.5 54l32 24q30 -61 105 -61q74 0 130 61z" />
    <glyph glyph-name="afii10028" unicode="&#x41a;" horiz-adv-x="490" 
d="M417 0h-63l-148 312l-80 -87l-49 -225h-56l147 667h56l-79 -356l328 356h71l-297 -318z" />
    <glyph glyph-name="afii10029" unicode="&#x41b;" horiz-adv-x="559" 
d="M-31 -12l11 51q38 0 65.5 19.5t60.5 82t69 178.5l109 348h292l-146 -667h-55l135 617h-186l-95 -303q-33 -104 -64.5 -171t-64.5 -100t-62 -44t-69 -11z" />
    <glyph glyph-name="afii10030" unicode="&#x41c;" horiz-adv-x="661" 
d="M532 0h-55l127 577l-316 -577h-23l-61 577l-127 -577h-56l147 667h79l57 -532l293 532h82z" />
    <glyph glyph-name="afii10031" unicode="&#x41d;" horiz-adv-x="559" 
d="M430 0h-55l70 318h-298l-70 -318h-56l147 667h56l-66 -299h298l66 299h55z" />
    <glyph glyph-name="afii10032" unicode="&#x41e;" horiz-adv-x="590" 
d="M265 -12q-95 0 -152.5 64t-57.5 170q0 100 36.5 203t109.5 178t162 75q95 0 152.5 -64.5t57.5 -170.5q0 -75 -22 -154t-60.5 -146.5t-98 -111t-127.5 -43.5zM269 39q66 0 124 63t89.5 156t31.5 186q0 86 -43 134.5t-113 48.5q-67 0 -124.5 -63.5t-88.5 -156t-31 -185.5
q0 -87 42.5 -135t112.5 -48z" />
    <glyph glyph-name="afii10033" unicode="&#x41f;" horiz-adv-x="559" 
d="M430 0h-55l135 617h-298l-135 -617h-56l147 667h409z" />
    <glyph glyph-name="afii10034" unicode="&#x420;" horiz-adv-x="468" 
d="M77 0h-56l147 667h171q65 0 106 -44.5t41 -111.5q0 -92 -57 -162.5t-165 -70.5h-126zM149 328h122q74 0 115 53.5t41 126.5q0 49 -28 79t-71 30h-115z" />
    <glyph glyph-name="afii10035" unicode="&#x421;" horiz-adv-x="523" 
d="M265 -12q-95 0 -152.5 62t-57.5 172q0 106 38.5 210t111 175t158.5 71q70 0 118.5 -37.5t70.5 -103.5l-53 -17q-38 107 -141 107q-65 0 -122.5 -64t-89.5 -157t-32 -184q0 -87 41 -135t114 -48t143 81l42 -29q-81 -103 -189 -103z" />
    <glyph glyph-name="afii10036" unicode="&#x422;" horiz-adv-x="435" 
d="M191 0h-56l137 617h-163l11 50h381l-11 -50h-163z" />
    <glyph glyph-name="afii10037" unicode="&#x423;" horiz-adv-x="483" 
d="M49 -12q-60 0 -90 39l34 45q23 -33 64 -33q27 0 47.5 16t49.5 58l40 67l-94 487h58l79 -422l265 422h65l-363 -574q-36 -54 -71.5 -79.5t-83.5 -25.5z" />
    <glyph glyph-name="afii10038" unicode="&#x424;" horiz-adv-x="670" 
d="M309 0h-56l15 66q-101 9 -152 66t-51 147q0 120 89 218t236 104l15 66h56l-15 -67q100 -10 151 -67t51 -146q0 -76 -37 -147t-113 -121.5t-175 -54.5zM125 279q0 -67 39.5 -111.5t114.5 -51.5l99 434q-118 -10 -185.5 -90.5t-67.5 -180.5zM588 387q0 67 -39.5 111.5
t-114.5 51.5l-99 -434q116 10 184.5 90.5t68.5 180.5z" />
    <glyph glyph-name="afii10039" unicode="&#x425;" horiz-adv-x="491" 
d="M425 0h-61l-106 292l-230 -292h-70l276 344l-118 323h62l97 -277l215 277h71l-261 -330z" />
    <glyph glyph-name="afii10040" unicode="&#x426;" horiz-adv-x="578" 
d="M408 -123l27 123h-414l146 667h56l-136 -617h298l136 617h56l-136 -617h61l-38 -173h-56z" />
    <glyph glyph-name="afii10041" unicode="&#x427;" horiz-adv-x="492" 
d="M204 667l-39 -183q-17 -73 9 -114.5t93 -41.5q58 0 115 15l71 324h56l-146 -667h-56l64 293q-64 -15 -120 -15q-92 0 -127.5 57.5t-14.5 149.5l40 182h55z" />
    <glyph glyph-name="afii10042" unicode="&#x428;" horiz-adv-x="785" 
d="M746 667h56l-147 -667h-633l146 667h56l-136 -617h234l135 617h56l-136 -617h234z" />
    <glyph glyph-name="afii10043" unicode="&#x429;" horiz-adv-x="803" 
d="M746 667h56l-136 -617h60l-38 -173h-55l26 123h-637l146 667h56l-136 -617h234l135 617h56l-136 -617h234z" />
    <glyph glyph-name="afii10044" unicode="&#x42a;" horiz-adv-x="581" 
d="M318 0h-183l136 617h-163l11 50h218l-61 -278h115q65 0 106.5 -44t41.5 -111q0 -92 -57 -163t-164 -71zM380 339h-115l-64 -289h122q74 0 115 54t41 127q0 48 -28 78t-71 30z" />
    <glyph glyph-name="afii10045" unicode="&#x42b;" horiz-adv-x="641" 
d="M512 0h-56l146 667h56zM167 667h56l-61 -278h115q65 0 106.5 -44t41.5 -111q0 -92 -57 -163t-164 -71h-183zM266 339h-115l-64 -289h122q74 0 115 54t41 127q0 48 -27.5 78t-71.5 30z" />
    <glyph glyph-name="afii10046" unicode="&#x42c;" horiz-adv-x="468" 
d="M167 667h56l-61 -278h115q65 0 106.5 -44t41.5 -111q0 -92 -57 -163t-164 -71h-183zM266 339h-115l-64 -289h122q74 0 115 54t41 127q0 48 -27.5 78t-71.5 30z" />
    <glyph glyph-name="afii10047" unicode="&#x42d;" horiz-adv-x="523" 
d="M296 678q95 0 152.5 -62t57.5 -172q0 -106 -38.5 -210t-111 -175t-158.5 -71q-70 0 -118.5 37.5t-70.5 103.5l53 17q38 -107 141 -107q75 0 137.5 81.5t90.5 196.5h-283l11 50h282q6 39 6 77q0 87 -41 135t-114 48t-143 -81l-42 29q81 103 189 103z" />
    <glyph glyph-name="afii10048" unicode="&#x42e;" horiz-adv-x="776" 
d="M448 -12q-95 0 -152.5 64t-57.5 170q0 46 9 96h-100l-70 -318h-56l146 667h56l-66 -299h101q34 129 110.5 219.5t177.5 90.5q95 0 152.5 -64.5t57.5 -170.5q0 -75 -22 -154t-60.5 -146.5t-98 -111t-127.5 -43.5zM452 39q66 0 124 63t89.5 156t31.5 186q0 86 -43 134.5
t-113 48.5q-67 0 -124.5 -63.5t-88.5 -156t-31 -185.5q0 -87 42.5 -135t112.5 -48z" />
    <glyph glyph-name="afii10049" unicode="&#x42f;" horiz-adv-x="491" 
d="M64 0h-69l212 287q-42 12 -72.5 49.5t-30.5 96.5q0 95 59 164.5t163 69.5h182l-147 -667h-56l61 278h-101zM266 328h111l64 289h-122q-72 0 -113.5 -54t-41.5 -127q0 -50 29 -79t73 -29z" />
    <glyph glyph-name="afii10065" unicode="&#x430;" 
d="M255 495q43 0 77.5 -23.5t51.5 -65.5l17 77h50l-107 -483h-50l15 69q-53 -81 -133 -81q-64 0 -102 44.5t-38 123.5q0 74 25 150t77 132.5t117 56.5zM260 450q-50 0 -90.5 -50t-60 -115t-19.5 -123q0 -62 27 -95.5t76 -33.5q36 0 71.5 27t57.5 65l52 235q-11 38 -42 64
t-72 26z" />
    <glyph glyph-name="afii10066" unicode="&#x431;" horiz-adv-x="472" 
d="M201 33q50 0 92 47.5t63 111t21 122.5q0 67 -29 101.5t-82 34.5q-50 0 -92 -47.5t-63 -111.5t-21 -122q0 -67 29.5 -101.5t81.5 -34.5zM199 -12q-75 0 -118.5 47t-43.5 133q0 84 44 219q37 105 98.5 159t168.5 73q96 16 102 48h49q-4 -22 -18.5 -38t-38 -27t-46.5 -17.5
t-55 -12.5q-96 -18 -142 -59.5t-76 -121.5q63 104 159 104q67 0 108 -47.5t41 -132.5q0 -75 -27.5 -149t-82.5 -126t-122 -52z" />
    <glyph glyph-name="afii10067" unicode="&#x432;" horiz-adv-x="435" 
d="M210 0h-193l106 483h159q54 0 88.5 -26t34.5 -74t-27 -86t-75 -51q27 -11 43.5 -35.5t16.5 -55.5q0 -64 -41 -109.5t-112 -45.5zM76 43h131q47 0 75.5 34t28.5 79q-1 33 -21 52t-56 19h-117zM126 270h132q42 0 67.5 32t25.5 72q0 66 -83 66h-104z" />
    <glyph glyph-name="afii10068" unicode="&#x433;" horiz-adv-x="354" 
d="M380 483l-10 -45h-207l-96 -438h-50l106 483h257z" />
    <glyph glyph-name="afii10069" unicode="&#x434;" horiz-adv-x="468" 
d="M-62 -123l35 164q37 7 66.5 45.5t65.5 148.5l80 248h246l-96 -438h57l-37 -168h-51l28 123h-316l-28 -123h-50zM222 438l-68 -209q-49 -147 -103 -184h234l86 393h-149z" />
    <glyph glyph-name="afii10070" unicode="&#x435;" horiz-adv-x="463" 
d="M216 -12q-84 0 -131.5 49t-47.5 137q0 66 26 138t81 127.5t125 55.5q73 0 115.5 -46.5t42.5 -129.5q0 -48 -13 -94h-320q-5 -28 -5 -53q0 -63 33.5 -102t96.5 -39t117 56l24 -34q-65 -65 -144 -65zM101 265h271q7 30 7 54q0 58 -30 95.5t-85 37.5q-59 0 -105 -58
t-58 -129z" />
    <glyph glyph-name="afii10072" unicode="&#x436;" horiz-adv-x="571" 
d="M30 0h-64l231 265l-127 218h58l133 -233l51 233h51l-49 -224l227 224h64l-223 -218l115 -265h-58l-97 232l-44 -43l-41 -189h-51l41 189l-22 39z" />
    <glyph glyph-name="afii10073" unicode="&#x437;" horiz-adv-x="429" 
d="M257 495q76 0 113.5 -31.5t37.5 -83.5q0 -59 -43 -95.5t-96 -42.5q37 -7 64 -35t27 -68q0 -68 -56.5 -109.5t-134.5 -41.5q-121 0 -167 83l35 27q40 -67 132 -67q58 0 98.5 30.5t40.5 80.5q0 37 -31.5 59.5t-79.5 22.5h-89l9 43h87q63 0 106.5 26.5t43.5 81.5
q0 37 -26 57t-74 20q-86 0 -155 -64l-26 32q78 75 184 75z" />
    <glyph glyph-name="afii10074" unicode="&#x438;" horiz-adv-x="450" 
d="M68 0h-51l106 483h50l-85 -387l290 387h53l-106 -483h-50l86 393z" />
    <glyph glyph-name="afii10075" unicode="&#x439;" horiz-adv-x="450" 
d="M68 0h-51l106 483h50l-85 -387l290 387h53l-106 -483h-50l86 393zM450 622q-71 -74 -162 -74q-44 0 -78.5 20t-52.5 54l32 24q30 -61 105 -61q74 0 130 61z" />
    <glyph glyph-name="afii10076" unicode="&#x43a;" horiz-adv-x="424" 
d="M350 0h-57l-97 233l-99 -97l-30 -136h-50l107 483h50l-61 -277l282 277h64l-224 -218z" />
    <glyph glyph-name="afii10077" unicode="&#x43b;" horiz-adv-x="450" 
d="M-38 -12l10 44q34 0 65 44.5t68 158.5l80 248h246l-106 -483h-50l96 438h-149l-68 -209q-43 -135 -88 -188t-104 -53z" />
    <glyph glyph-name="afii10078" unicode="&#x43c;" horiz-adv-x="537" 
d="M413 0h-51l88 401l-224 -401h-22l-49 401l-88 -401h-50l106 483h67l45 -377l212 377h72z" />
    <glyph glyph-name="afii10079" unicode="&#x43d;" horiz-adv-x="450" 
d="M67 0h-50l108 483h50l-46 -209h207l47 209h50l-108 -483h-50l51 229h-208z" />
    <glyph glyph-name="afii10080" unicode="&#x43e;" 
d="M199 -12q-75 0 -118.5 47t-43.5 133q0 75 27.5 149t82 126t121.5 52q75 0 119 -47t44 -133q0 -75 -27.5 -149t-82.5 -126t-122 -52zM201 33q50 0 92 47.5t63 111t21 122.5q0 67 -29 101.5t-82 34.5q-50 0 -92 -47.5t-63 -111.5t-21 -122q0 -67 29.5 -101.5t81.5 -34.5z
" />
    <glyph glyph-name="afii10081" unicode="&#x43f;" horiz-adv-x="450" 
d="M325 0h-50l98 438h-208l-98 -438h-50l108 483h308z" />
    <glyph glyph-name="afii10082" unicode="&#x440;" horiz-adv-x="467" 
d="M213 -12q-43 0 -77 23.5t-52 65.5l-58 -261h-50l148 667h50l-15 -69q53 81 133 81q64 0 102 -44.5t38 -123.5q0 -73 -25 -149.5t-77 -133t-117 -56.5zM209 33q49 0 89.5 50t60 115t19.5 123q0 62 -27 95.5t-75 33.5q-37 0 -72 -26.5t-58 -65.5l-52 -235q11 -38 42.5 -64
t72.5 -26z" />
    <glyph glyph-name="afii10083" unicode="&#x441;" horiz-adv-x="400" 
d="M205 -12q-76 0 -122 48.5t-46 138.5q0 74 28 146.5t84 123t124 50.5q90 0 132 -69l-36 -32q-31 56 -96 56q-55 0 -98.5 -46.5t-63.5 -108.5t-20 -122q0 -69 32.5 -104.5t86.5 -35.5q55 0 98 48l24 -36q-55 -57 -127 -57z" />
    <glyph glyph-name="afii10084" unicode="&#x442;" horiz-adv-x="329" 
d="M136 0h-51l96 438h-113l10 45h277l-10 -45h-113z" />
    <glyph glyph-name="afii10085" unicode="&#x443;" horiz-adv-x="392" 
d="M-55 -186l19 45q11 -8 35 -8q18 0 32 11.5t31 40.5l49 88l-48 492h54l36 -421l224 421h58l-327 -593q-48 -86 -114 -86q-29 0 -49 10z" />
    <glyph glyph-name="afii10086" unicode="&#x444;" horiz-adv-x="647" 
d="M229 495q79 0 105 -84l56 256h51l-55 -250q51 78 115 78q53 0 80 -43t27 -115t-23.5 -151.5t-69.5 -138.5t-100 -59q-79 0 -105 84l-56 -256h-51l55 251q-50 -79 -115 -79q-53 0 -80 43t-27 115t23.5 151.5t69.5 138.5t100 59zM239 450q-42 0 -78 -52.5t-54.5 -121
t-18.5 -126.5q0 -117 74 -117q29 0 58 25.5t51 63.5l52 237q-6 37 -29 64t-55 27zM405 33q42 0 78 52.5t54.5 121t18.5 126.5q0 117 -74 117q-29 0 -58 -25.5t-50 -63.5l-52 -237q5 -37 28 -64t55 -27z" />
    <glyph glyph-name="afii10087" unicode="&#x445;" horiz-adv-x="393" 
d="M322 0h-56l-75 208l-168 -208h-61l204 246l-88 237h55l69 -198l158 198h61l-195 -237z" />
    <glyph glyph-name="afii10088" unicode="&#x446;" horiz-adv-x="468" 
d="M304 -123l28 123h-315l106 483h50l-96 -438h207l97 438h50l-96 -438h57l-37 -168h-51z" />
    <glyph glyph-name="afii10089" unicode="&#x447;" horiz-adv-x="442" 
d="M115 483h51l-36 -162q-12 -54 6.5 -76t67.5 -22q66 0 118 31l51 229h51l-106 -483h-51l47 213q-61 -35 -131 -35q-72 0 -96.5 31t-9.5 102z" />
    <glyph glyph-name="afii10090" unicode="&#x448;" horiz-adv-x="649" 
d="M580 483h50l-106 -483h-507l106 483h50l-96 -438h177l97 438h51l-97 -438h178z" />
    <glyph glyph-name="afii10091" unicode="&#x449;" horiz-adv-x="668" 
d="M580 483h50l-96 -438h57l-37 -168h-51l28 123h-514l106 483h50l-96 -438h177l97 438h51l-97 -438h178z" />
    <glyph glyph-name="afii10092" unicode="&#x44a;" horiz-adv-x="495" 
d="M269 0h-184l96 438h-113l10 45h164l-44 -197h116q59 0 91 -33.5t28 -89.5q-5 -64 -49 -113.5t-115 -49.5zM304 242h-116l-43 -198h128q45 0 73.5 34.5t32.5 80.5q6 83 -75 83z" />
    <glyph glyph-name="afii10093" unicode="&#x44b;" horiz-adv-x="585" 
d="M460 0h-51l106 483h51zM123 483h50l-44 -197h110q58 0 92 -31t34 -85q0 -67 -43.5 -118.5t-117.5 -51.5h-187zM229 242h-109l-44 -198h132q46 0 74.5 37.5t28.5 85.5q0 36 -21.5 55.5t-60.5 19.5z" />
    <glyph glyph-name="afii10094" unicode="&#x44c;" horiz-adv-x="427" 
d="M123 483h50l-44 -197h110q58 0 92 -31t34 -85q0 -67 -43.5 -118.5t-117.5 -51.5h-187zM229 242h-109l-44 -198h132q46 0 74.5 37.5t28.5 85.5q0 36 -21.5 55.5t-60.5 19.5z" />
    <glyph glyph-name="afii10095" unicode="&#x44d;" horiz-adv-x="400" 
d="M209 495q76 0 122 -48.5t46 -138.5q0 -74 -28 -146.5t-84 -123t-124 -50.5q-90 0 -132 69l34 30q31 -56 97 -56q62 0 107 56t65 136h-206l10 45h204q3 21 3 42q0 69 -32.5 105.5t-86.5 36.5q-58 0 -99 -48l-24 35q58 56 128 56z" />
    <glyph glyph-name="afii10096" unicode="&#x44e;" horiz-adv-x="630" 
d="M359 -12q-75 0 -118.5 47t-43.5 133q0 25 5 60h-85l-50 -228h-50l106 483h50l-46 -210h84q24 93 82 157.5t135 64.5q75 0 119 -47t44 -133q0 -75 -27.5 -149t-82 -126t-122.5 -52zM361 33q50 0 92 47.5t63 111t21 122.5q0 66 -29 101t-81 35q-50 0 -92 -47.5
t-63.5 -111.5t-21.5 -122q0 -67 29.5 -101.5t81.5 -34.5z" />
    <glyph glyph-name="afii10097" unicode="&#x44f;" horiz-adv-x="449" 
d="M64 0h-62l157 205q-79 22 -79 108q0 67 43 118.5t117 51.5h190l-106 -483h-51l43 197h-107zM210 241h116l43 198h-132q-47 0 -75 -37.5t-28 -85.5q0 -36 20 -55.5t56 -19.5z" />
    <glyph glyph-name="afii10071" unicode="&#x451;" horiz-adv-x="463" 
d="M436 605q0 -17 -12 -29t-29 -12q-14 0 -23 9.5t-9 23.5q0 16 12 28t29 12q14 0 23 -9.5t9 -22.5zM268 605q0 -17 -12 -29t-28 -12q-14 0 -23.5 9.5t-9.5 23.5q0 16 12 28t29 12q14 0 23 -9.5t9 -22.5zM216 -12q-84 0 -131.5 49t-47.5 137q0 66 26 138t81 127.5t125 55.5
q73 0 115.5 -46.5t42.5 -129.5q0 -48 -13 -94h-320q-5 -28 -5 -53q0 -63 33.5 -102t96.5 -39t117 56l24 -34q-65 -65 -144 -65zM101 265h271q7 30 7 54q0 58 -30 95.5t-85 37.5q-59 0 -105 -58t-58 -129z" />
    <glyph glyph-name="afii10099" unicode="&#x452;" horiz-adv-x="458" 
d="M330 538h-137l-27 -126q30 34 73.5 58.5t83.5 24.5q119 0 90 -129l-96 -439q-27 -123 -133 -123q-48 0 -70 36l32 36q15 -28 44 -28q58 0 76 79l94 429q21 94 -62 94q-36 0 -76 -25t-67 -60l-80 -365h-50l117 538h-63l7 37h64l21 92h51l-21 -92h137z" />
    <glyph glyph-name="afii10100" unicode="&#x453;" horiz-adv-x="354" 
d="M438 700l-167 -144h-41l148 144h60zM380 483l-10 -45h-207l-96 -438h-50l106 483h257z" />
    <glyph glyph-name="afii10101" unicode="&#x454;" horiz-adv-x="400" 
d="M205 -12q-76 0 -122 48.5t-46 138.5q0 74 28 146.5t84 123t124 50.5q90 0 132 -69l-34 -30q-31 56 -97 56q-62 0 -106 -53.5t-64 -130.5h205l-10 -45h-204q-4 -24 -4 -50q0 -69 32.5 -105t86.5 -36q58 0 98 47l24 -35q-56 -56 -127 -56z" />
    <glyph glyph-name="afii10102" unicode="&#x455;" horiz-adv-x="377" 
d="M151 -12q-107 0 -154 75l35 33q17 -28 49 -46.5t72 -18.5q47 0 77.5 29t30.5 69q0 27 -20 49.5t-48 39l-56 34.5t-48 44.5t-20 59.5q0 58 41.5 98.5t111.5 40.5q46 0 84 -19t56 -49l-33 -32q-13 25 -43.5 41t-66.5 16q-44 0 -71.5 -24.5t-27.5 -61.5q0 -25 20 -46
t48 -37.5t56 -35t48 -46t20 -61.5q0 -63 -44.5 -107.5t-116.5 -44.5z" />
    <glyph glyph-name="afii10103" unicode="&#x456;" horiz-adv-x="192" 
d="M169 559q-15 0 -25 10.5t-10 24.5q0 18 14 30.5t30 12.5q15 0 25.5 -10t10.5 -24q0 -19 -14 -31.5t-31 -12.5zM67 0h-50l107 483h50z" />
    <glyph glyph-name="afii10104" unicode="&#x457;" horiz-adv-x="192" 
d="M295 605q0 -17 -12.5 -29t-28.5 -12q-14 0 -23 9.5t-9 23.5q0 16 12 28t29 12q13 0 22.5 -9.5t9.5 -22.5zM127 605q0 -17 -12 -29t-28 -12q-14 0 -23.5 9.5t-9.5 23.5q0 16 12 28t29 12q13 0 22.5 -9.5t9.5 -22.5zM67 0h-50l107 483h50z" />
    <glyph glyph-name="afii10105" unicode="&#x458;" horiz-adv-x="192" 
d="M-66 -196q-59 0 -84 39l31 34q15 -29 49 -29q52 0 70 79l124 556h50l-123 -556q-15 -65 -42.5 -94t-74.5 -29zM169 559q-15 0 -25 10.5t-10 24.5q0 18 14 30.5t30 12.5q15 0 25.5 -10t10.5 -24q0 -19 -14 -31.5t-31 -12.5z" />
    <glyph glyph-name="afii10106" unicode="&#x459;" horiz-adv-x="685" 
d="M-38 -12l10 44q34 0 65 44.5t68 158.5l80 248h246l-44 -199h111q60 0 93 -32t31 -88q-2 -65 -46 -114.5t-117 -49.5h-184l96 438h-149l-68 -209q-43 -135 -88 -188t-104 -53zM486 240h-108l-44 -196h129q47 0 75.5 35.5t30.5 83.5q1 38 -20.5 57.5t-62.5 19.5z" />
    <glyph glyph-name="afii10107" unicode="&#x45a;" horiz-adv-x="685" 
d="M67 0h-50l106 483h50l-46 -210h207l47 210h50l-46 -210h114q57 0 90.5 -28.5t33.5 -80.5q0 -65 -42.5 -114.5t-114.5 -49.5h-191l50 228h-208zM489 229h-113l-42 -185h135q45 0 72 35t27 81q0 69 -79 69z" />
    <glyph glyph-name="afii10108" unicode="&#x45b;" horiz-adv-x="458" 
d="M331 0h-50l78 355q5 20 5 31q0 64 -74 64q-69 0 -137 -88l-80 -362h-50l118 538h-61l8 37h61l21 92h50l-20 -92h140l-8 -37h-140l-27 -125q69 82 144 82q50 0 79 -24.5t29 -69.5q0 -12 -5 -37z" />
    <glyph glyph-name="afii10109" unicode="&#x45c;" horiz-adv-x="424" 
d="M454 700l-167 -144h-41l148 144h60zM350 0h-57l-97 233l-99 -97l-30 -136h-50l107 483h50l-61 -277l282 277h64l-224 -218z" />
    <glyph glyph-name="afii10110" unicode="&#x45e;" horiz-adv-x="392" 
d="M-55 -186l19 45q11 -8 35 -8q18 0 32 11.5t31 40.5l49 88l-48 492h54l36 -421l224 421h58l-327 -593q-48 -86 -114 -86q-29 0 -49 10zM418 622q-71 -74 -162 -74q-44 0 -78.5 20t-52.5 54l32 24q30 -61 105 -61q74 0 130 61z" />
    <glyph glyph-name="afii10193" unicode="&#x45f;" horiz-adv-x="450" 
d="M118 -124l27 124h-128l106 483h50l-96 -438h207l97 438h50l-106 -483h-129l-27 -124h-51z" />
    <glyph glyph-name="afii10050" unicode="&#x490;" horiz-adv-x="441" 
d="M77 0h-56l146 667h271l27 124h55l-37 -174h-271z" />
    <glyph glyph-name="afii10098" unicode="&#x491;" horiz-adv-x="354" 
d="M163 438l-96 -438h-50l106 483h206l27 124h51l-37 -169h-207z" />
    <glyph glyph-name="uni1E02" unicode="&#x1e02;" horiz-adv-x="498" 
d="M232 0h-211l147 667h177q64 0 104.5 -38.5t40.5 -101.5q0 -70 -39 -125t-99 -65q36 -10 57.5 -47t21.5 -79q0 -85 -52.5 -148t-146.5 -63zM158 367h143q64 0 96.5 48t32.5 106q0 44 -27.5 70t-70.5 26h-119zM233 50q63 0 101.5 49.5t38.5 114.5q0 49 -27 76t-76 27h-124
l-59 -267h146zM403 769q0 -16 -12.5 -28.5t-29.5 -12.5q-14 0 -23.5 9.5t-9.5 23.5q0 17 12 29.5t29 12.5q14 0 24 -10t10 -24z" />
    <glyph glyph-name="uni1E03" unicode="&#x1e03;" 
d="M213 -12q-43 0 -77 23.5t-52 65.5l-17 -77h-50l147 667h50l-55 -253q53 81 133 81q64 0 102 -44.5t38 -123.5q0 -73 -25 -149.5t-77 -133t-117 -56.5zM209 33q49 0 89.5 50t60 115t19.5 123q0 62 -27 95.5t-75 33.5q-37 0 -72 -26.5t-58 -65.5l-52 -235q11 -38 42.5 -64
t72.5 -26zM397 769q0 -16 -12.5 -28.5t-29.5 -12.5q-14 0 -23.5 9.5t-9.5 23.5q0 17 12 29.5t29 12.5q14 0 24 -10t10 -24z" />
    <glyph glyph-name="uni1E0A" unicode="&#x1e0a;" horiz-adv-x="549" 
d="M183 0h-162l147 667h158q83 0 141 -64t58 -174q0 -49 -11.5 -104t-38 -113.5t-64.5 -105t-97.5 -76.5t-130.5 -30zM87 50h105q65 0 119.5 38.5t87 97t50.5 122t18 120.5q0 87 -43 138t-109 51h-102zM435 769q0 -16 -12.5 -28.5t-29.5 -12.5q-14 0 -23.5 9.5t-9.5 23.5
q0 17 12 29.5t29 12.5q14 0 24 -10t10 -24z" />
    <glyph glyph-name="uni1E0B" unicode="&#x1e0b;" 
d="M255 495q43 0 77.5 -23.5t51.5 -65.5l58 261h50l-148 -667h-50l15 69q-53 -81 -133 -81q-64 0 -102 44.5t-38 123.5q0 74 25 150t77 132.5t117 56.5zM260 450q-50 0 -90.5 -50t-60 -115t-19.5 -123q0 -62 27 -95.5t76 -33.5q36 0 71.5 27t57.5 65l52 235q-11 38 -42 64
t-72 26zM381 769q0 -16 -12.5 -28.5t-29.5 -12.5q-14 0 -23.5 9.5t-9.5 23.5q0 17 12 29.5t29 12.5q14 0 24 -10t10 -24z" />
    <glyph glyph-name="uni1E1E" unicode="&#x1e1e;" horiz-adv-x="441" 
d="M390 769q0 -16 -12.5 -28.5t-29.5 -12.5q-14 0 -23.5 9.5t-9.5 23.5q0 17 12 29.5t29 12.5q14 0 24 -10t10 -24zM77 0h-56l147 667h326l-11 -50h-270l-55 -250h263l-12 -50h-263z" />
    <glyph glyph-name="uni1E1F" unicode="&#x1e1f;" horiz-adv-x="239" 
d="M334 769q0 -16 -12.5 -28.5t-29.5 -12.5q-14 0 -23.5 9.5t-9.5 23.5q0 17 12 29.5t29 12.5q14 0 24 -10t10 -24zM83 0h-51l97 438h-64l10 45h64l15 69q27 125 127 125q50 0 80 -33l-30 -35q-18 24 -49 24q-60 0 -77 -81l-15 -69h83l-10 -45h-83z" />
    <glyph glyph-name="uni1E22" unicode="&#x1e22;" horiz-adv-x="559" 
d="M430 0h-55l70 318h-298l-70 -318h-56l147 667h56l-66 -299h298l66 299h55zM432 769q0 -16 -12.5 -28.5t-29.5 -12.5q-14 0 -23.5 9.5t-9.5 23.5q0 17 12 29.5t29 12.5q14 0 24 -10t10 -24z" />
    <glyph glyph-name="uni1E23" unicode="&#x1e23;" horiz-adv-x="450" 
d="M325 0h-50l78 355q5 20 5 31q0 64 -74 64q-69 0 -137 -88l-80 -362h-50l147 667h50l-55 -254q69 82 144 82q50 0 79 -24.5t29 -69.5q0 -12 -5 -37zM380 769q0 -16 -12.5 -28.5t-29.5 -12.5q-14 0 -23.5 9.5t-9.5 23.5q0 17 12 29.5t29 12.5q14 0 24 -10t10 -24z" />
    <glyph glyph-name="uni1E56" unicode="&#x1e56;" horiz-adv-x="468" 
d="M77 0h-56l147 667h171q65 0 106 -44.5t41 -111.5q0 -92 -57 -162.5t-165 -70.5h-126zM149 328h122q74 0 115 53.5t41 126.5q0 49 -28 79t-71 30h-115zM400 769q0 -16 -12.5 -28.5t-29.5 -12.5q-14 0 -23.5 9.5t-9.5 23.5q0 17 12 29.5t29 12.5q14 0 24 -10t10 -24z" />
    <glyph glyph-name="uni1E57" unicode="&#x1e57;" horiz-adv-x="467" 
d="M213 -12q-43 0 -77 23.5t-52 65.5l-58 -261h-50l148 667h50l-15 -69q53 81 133 81q64 0 102 -44.5t38 -123.5q0 -73 -25 -149.5t-77 -133t-117 -56.5zM209 33q49 0 89.5 50t60 115t19.5 123q0 62 -27 95.5t-75 33.5q-37 0 -72 -26.5t-58 -65.5l-52 -235q11 -38 42.5 -64
t72.5 -26zM360 602q0 -16 -12.5 -28.5t-29.5 -12.5q-14 0 -23.5 9.5t-9.5 23.5q0 17 12 29.5t29 12.5q14 0 24 -10t10 -24z" />
    <glyph glyph-name="uni1E60" unicode="&#x1e60;" horiz-adv-x="459" 
d="M196 -12q-61 0 -113.5 25.5t-77.5 65.5l40 40q24 -37 65 -58.5t89 -21.5q65 0 103.5 42.5t38.5 104.5q0 30 -17.5 57t-43.5 45.5l-56 40.5l-56 42.5t-43.5 52.5t-17.5 69q0 77 57.5 131t136.5 54q54 0 99.5 -21t70.5 -57l-38 -39q-45 66 -135 66q-55 0 -93.5 -38.5
t-38.5 -89.5q0 -32 24 -60.5t58.5 -52l69 -49t58.5 -63t24 -82.5q0 -84 -56.5 -144t-147.5 -60zM383 769q0 -16 -12.5 -28.5t-29.5 -12.5q-14 0 -23.5 9.5t-9.5 23.5q0 17 12 29.5t29 12.5q14 0 24 -10t10 -24z" />
    <glyph glyph-name="uni1E61" unicode="&#x1e61;" horiz-adv-x="377" 
d="M151 -12q-107 0 -154 75l35 33q17 -28 49 -46.5t72 -18.5q47 0 77.5 29t30.5 69q0 27 -20 49.5t-48 39l-56 34.5t-48 44.5t-20 59.5q0 58 41.5 98.5t111.5 40.5q46 0 84 -19t56 -49l-33 -32q-13 25 -43.5 41t-66.5 16q-44 0 -71.5 -24.5t-27.5 -61.5q0 -25 20 -46
t48 -37.5t56 -35t48 -46t20 -61.5q0 -63 -44.5 -107.5t-116.5 -44.5zM304 602q0 -16 -12.5 -28.5t-29.5 -12.5q-14 0 -23.5 9.5t-9.5 23.5q0 17 12 29.5t29 12.5q14 0 24 -10t10 -24z" />
    <glyph glyph-name="uni1E6A" unicode="&#x1e6a;" horiz-adv-x="435" 
d="M191 0h-56l137 617h-163l11 50h381l-11 -50h-163zM371 769q0 -16 -12.5 -28.5t-29.5 -12.5q-14 0 -23.5 9.5t-9.5 23.5q0 17 12 29.5t29 12.5q14 0 24 -10t10 -24z" />
    <glyph glyph-name="uni1E6B" unicode="&#x1e6b;" horiz-adv-x="249" 
d="M127 -12q-83 0 -83 72q0 15 4 30l78 348h-66l11 45h65l29 132h51l-29 -132h83l-11 -45h-82l-77 -342q-3 -12 -3 -25q0 -38 40 -38q22 0 42 18l12 -40q-28 -23 -64 -23zM261 769q0 -16 -12.5 -28.5t-29.5 -12.5q-14 0 -23.5 9.5t-9.5 23.5q0 17 12 29.5t29 12.5
q14 0 24 -10t10 -24z" />
    <glyph glyph-name="Wgrave" unicode="&#x1e80;" horiz-adv-x="693" 
d="M472 0h-61l6 562l-243 -562h-61v667h59l-9 -578l250 578h51l-6 -578l247 578h61zM494 723h-39l-103 144h58z" />
    <glyph glyph-name="wgrave" unicode="&#x1e81;" horiz-adv-x="616" 
d="M415 0h-50l-20 414l-202 -414h-50l-23 483h52l11 -411l201 411h49l19 -411l194 411h56zM419 556h-39l-103 144h58z" />
    <glyph glyph-name="Wacute" unicode="&#x1e82;" horiz-adv-x="693" 
d="M611 867l-167 -144h-41l148 144h60zM472 0h-61l6 562l-243 -562h-61v667h59l-9 -578l250 578h51l-6 -578l247 578h61z" />
    <glyph glyph-name="wacute" unicode="&#x1e83;" horiz-adv-x="616" 
d="M537 700l-167 -144h-41l148 144h60zM415 0h-50l-20 414l-202 -414h-50l-23 483h52l11 -411l201 411h49l19 -411l194 411h56z" />
    <glyph glyph-name="Wdieresis" unicode="&#x1e84;" horiz-adv-x="693" 
d="M580 772q0 -16 -12 -28.5t-29 -12.5q-14 0 -23 9.5t-9 23.5q0 16 12 28t29 12q14 0 23 -9t9 -23zM412 772q0 -17 -12 -29t-28 -12q-14 0 -23.5 9.5t-9.5 23.5q0 16 12 28t29 12q14 0 23 -9t9 -23zM472 0h-61l6 562l-243 -562h-61v667h59l-9 -578l250 578h51l-6 -578
l247 578h61z" />
    <glyph glyph-name="wdieresis" unicode="&#x1e85;" horiz-adv-x="616" 
d="M505 605q0 -17 -12.5 -29t-28.5 -12q-14 0 -23 9.5t-9 23.5q0 16 12 28t29 12q13 0 22.5 -9.5t9.5 -22.5zM337 605q0 -17 -12 -29t-28 -12q-14 0 -23.5 9.5t-9.5 23.5q0 16 12 28t29 12q13 0 22.5 -9.5t9.5 -22.5zM415 0h-50l-20 414l-202 -414h-50l-23 483h52l11 -411
l201 411h49l19 -411l194 411h56z" />
    <glyph glyph-name="uni1EA0" unicode="&#x1ea0;" horiz-adv-x="492" 
d="M426 0h-58l-12 165h-251l-84 -165h-63l348 667h66zM355 215l-28 387l-198 -387h226zM198 -137q0 -16 -12.5 -28.5t-29.5 -12.5q-14 0 -23.5 9.5t-9.5 23.5q0 17 12 29.5t29 12.5q14 0 24 -10t10 -24z" />
    <glyph glyph-name="uni1EA1" unicode="&#x1ea1;" 
d="M255 495q43 0 77.5 -23.5t51.5 -65.5l17 77h50l-107 -483h-50l15 69q-53 -81 -133 -81q-64 0 -102 44.5t-38 123.5q0 74 25 150t77 132.5t117 56.5zM260 450q-50 0 -90.5 -50t-60 -115t-19.5 -123q0 -62 27 -95.5t76 -33.5q36 0 71.5 27t57.5 65l52 235q-11 38 -42 64
t-72 26zM181 -137q0 -16 -12.5 -28.5t-29.5 -12.5q-14 0 -23.5 9.5t-9.5 23.5q0 17 12 29.5t29 12.5q14 0 24 -10t10 -24z" />
    <glyph glyph-name="uni1EA2" unicode="&#x1ea2;" horiz-adv-x="492" 
d="M426 0h-58l-12 165h-251l-84 -165h-63l348 667h66zM355 215l-28 387l-198 -387h226zM324 765l-24 12q23 43 64 43q25 0 40 -14t15 -38q0 -39 -34 -71h-34q39 34 39 68q0 13 -8 21t-20 8q-24 0 -38 -29z" />
    <glyph glyph-name="uni1EA3" unicode="&#x1ea3;" 
d="M255 495q43 0 77.5 -23.5t51.5 -65.5l17 77h50l-107 -483h-50l15 69q-53 -81 -133 -81q-64 0 -102 44.5t-38 123.5q0 74 25 150t77 132.5t117 56.5zM260 450q-50 0 -90.5 -50t-60 -115t-19.5 -123q0 -62 27 -95.5t76 -33.5q36 0 71.5 27t57.5 65l52 235q-11 38 -42 64
t-72 26zM269 595l-24 12q23 43 64 43q25 0 40 -14t15 -38q0 -39 -34 -71h-34q39 34 39 68q0 13 -8 21t-20 8q-23 0 -38 -29z" />
    <glyph glyph-name="uni1EA4" unicode="&#x1ea4;" horiz-adv-x="492" 
d="M445 682h-34l-51 84l-96 -84h-38l114 108h52zM426 0h-58l-12 165h-251l-84 -165h-63l348 667h66zM355 215l-28 387l-198 -387h226zM633 844l-167 -108h-41l148 108h60z" />
    <glyph glyph-name="uni1EA5" unicode="&#x1ea5;" 
d="M255 495q43 0 77.5 -23.5t51.5 -65.5l17 77h50l-107 -483h-50l15 69q-53 -81 -133 -81q-64 0 -102 44.5t-38 123.5q0 74 25 150t77 132.5t117 56.5zM260 450q-50 0 -90.5 -50t-60 -115t-19.5 -123q0 -62 27 -95.5t76 -33.5q36 0 71.5 27t57.5 65l52 235q-11 38 -42 64
t-72 26zM407 556h-34l-51 112l-96 -112h-38l114 144h52zM595 771l-167 -144h-41l148 144h60z" />
    <glyph glyph-name="uni1EA6" unicode="&#x1ea6;" horiz-adv-x="492" 
d="M446 682h-34l-51 84l-96 -84h-38l114 108h52zM426 0h-58l-12 165h-251l-84 -165h-63l348 667h66zM355 215l-28 387l-198 -387h226zM272 736h-39l-103 108h58z" />
    <glyph glyph-name="uni1EA7" unicode="&#x1ea7;" 
d="M255 495q43 0 77.5 -23.5t51.5 -65.5l17 77h50l-107 -483h-50l15 69q-53 -81 -133 -81q-64 0 -102 44.5t-38 123.5q0 74 25 150t77 132.5t117 56.5zM260 450q-50 0 -90.5 -50t-60 -115t-19.5 -123q0 -62 27 -95.5t76 -33.5q36 0 71.5 27t57.5 65l52 235q-11 38 -42 64
t-72 26zM406 556h-34l-51 112l-96 -112h-38l114 144h52zM235 627h-39l-103 144h58z" />
    <glyph glyph-name="uni1EA8" unicode="&#x1ea8;" horiz-adv-x="492" 
d="M446 682h-34l-51 84l-96 -84h-38l114 108h52zM426 0h-58l-12 165h-251l-84 -165h-63l348 667h66zM355 215l-28 387l-198 -387h226zM401 807l-24 9q23 32 64 32q25 0 40 -10.5t15 -28.5q0 -29 -34 -53h-34q39 26 39 51q0 10 -8 16t-20 6q-23 0 -38 -22z" />
    <glyph glyph-name="uni1EA9" unicode="&#x1ea9;" 
d="M255 495q43 0 77.5 -23.5t51.5 -65.5l17 77h50l-107 -483h-50l15 69q-53 -81 -133 -81q-64 0 -102 44.5t-38 123.5q0 74 25 150t77 132.5t117 56.5zM260 450q-50 0 -90.5 -50t-60 -115t-19.5 -123q0 -62 27 -95.5t76 -33.5q36 0 71.5 27t57.5 65l52 235q-11 38 -42 64
t-72 26zM407 556h-34l-51 112l-96 -112h-38l114 144h52zM356 735l-24 12q23 43 64 43q25 0 40 -14t15 -38q0 -39 -34 -71h-34q39 34 39 68q0 13 -8 21t-20 8q-24 0 -38 -29z" />
    <glyph glyph-name="uni1EAA" unicode="&#x1eaa;" horiz-adv-x="492" 
d="M441 677h-34l-51 56l-96 -56h-38l114 72h52zM426 0h-58l-12 165h-251l-84 -165h-63l348 667h66zM355 215l-28 387l-198 -387h226zM410 757q-23 0 -36.5 8t-17 17.5t-12.5 17.5t-25 8q-40 0 -61 -48h-34q29 67 102 67q23 0 36 -8t16.5 -18t13 -18t25.5 -8q38 0 61 49h34
q-29 -67 -102 -67z" />
    <glyph glyph-name="uni1EAB" unicode="&#x1eab;" 
d="M255 495q43 0 77.5 -23.5t51.5 -65.5l17 77h50l-107 -483h-50l15 69q-53 -81 -133 -81q-64 0 -102 44.5t-38 123.5q0 74 25 150t77 132.5t117 56.5zM260 450q-50 0 -90.5 -50t-60 -115t-19.5 -123q0 -62 27 -95.5t76 -33.5q36 0 71.5 27t57.5 65l52 235q-11 38 -42 64
t-72 26zM399 523h-34l-51 112l-96 -112h-38l114 144h52zM383 682q-23 0 -36.5 16t-17 35.5t-12.5 35.5t-25 16q-40 0 -61 -97h-34q29 134 102 134q23 0 36 -16t16.5 -35.5t13 -35.5t25.5 -16q38 0 61 97h34q-29 -134 -102 -134z" />
    <glyph glyph-name="uni1EAC" unicode="&#x1eac;" horiz-adv-x="492" 
d="M426 0h-58l-12 165h-251l-84 -165h-63l348 667h66zM355 215l-28 387l-198 -387h226zM461 723h-34l-51 112l-96 -112h-38l114 144h52zM199 -137q0 -16 -12.5 -28.5t-29.5 -12.5q-14 0 -23.5 9.5t-9.5 23.5q0 17 12 29.5t29 12.5q14 0 24 -10t10 -24z" />
    <glyph glyph-name="uni1EAD" unicode="&#x1ead;" 
d="M255 495q43 0 77.5 -23.5t51.5 -65.5l17 77h50l-107 -483h-50l15 69q-53 -81 -133 -81q-64 0 -102 44.5t-38 123.5q0 74 25 150t77 132.5t117 56.5zM260 450q-50 0 -90.5 -50t-60 -115t-19.5 -123q0 -62 27 -95.5t76 -33.5q36 0 71.5 27t57.5 65l52 235q-11 38 -42 64
t-72 26zM406 556h-34l-51 112l-96 -112h-38l114 144h52zM181 -137q0 -16 -12.5 -28.5t-29.5 -12.5q-14 0 -23.5 9.5t-9.5 23.5q0 17 12 29.5t29 12.5q14 0 24 -10t10 -24z" />
    <glyph glyph-name="uni1EAE" unicode="&#x1eae;" horiz-adv-x="492" 
d="M426 0h-58l-12 165h-251l-84 -165h-63l348 667h66zM355 215l-28 387l-198 -387h226zM503 842l-167 -103h-41l148 103h60zM499 751q-71 -69 -162 -69q-92 0 -131 69l32 22q14 -26 42 -41.5t63 -15.5q73 0 130 57z" />
    <glyph glyph-name="uni1EAF" unicode="&#x1eaf;" 
d="M255 495q43 0 77.5 -23.5t51.5 -65.5l17 77h50l-107 -483h-50l15 69q-53 -81 -133 -81q-64 0 -102 44.5t-38 123.5q0 74 25 150t77 132.5t117 56.5zM260 450q-50 0 -90.5 -50t-60 -115t-19.5 -123q0 -62 27 -95.5t76 -33.5q36 0 71.5 27t57.5 65l52 235q-11 38 -42 64
t-72 26zM452 760l-167 -144h-41l148 144h60zM447 597q-71 -74 -162 -74q-44 0 -78.5 20t-52.5 54l32 24q30 -61 105 -61q74 0 130 61z" />
    <glyph glyph-name="uni1EB0" unicode="&#x1eb0;" horiz-adv-x="492" 
d="M426 0h-58l-12 165h-251l-84 -165h-63l348 667h66zM355 215l-28 387l-198 -387h226zM404 741h-39l-103 103h58zM499 751q-71 -69 -162 -69q-92 0 -131 69l32 22q14 -26 42 -41.5t63 -15.5q73 0 130 57z" />
    <glyph glyph-name="uni1EB1" unicode="&#x1eb1;" 
d="M255 495q43 0 77.5 -23.5t51.5 -65.5l17 77h50l-107 -483h-50l15 69q-53 -81 -133 -81q-64 0 -102 44.5t-38 123.5q0 74 25 150t77 132.5t117 56.5zM260 450q-50 0 -90.5 -50t-60 -115t-19.5 -123q0 -62 27 -95.5t76 -33.5q36 0 71.5 27t57.5 65l52 235q-11 38 -42 64
t-72 26zM365 617h-39l-103 144h58zM448 600q-71 -74 -162 -74q-44 0 -78.5 20t-52.5 54l32 24q30 -61 105 -61q74 0 130 61z" />
    <glyph glyph-name="uni1EB2" unicode="&#x1eb2;" horiz-adv-x="492" 
d="M426 0h-58l-12 165h-251l-84 -165h-63l348 667h66zM355 215l-28 387l-198 -387h226zM331 791l-24 8q22 31 64 31q25 0 40 -9.5t15 -27.5q0 -27 -34 -51h-34q39 24 39 49q0 20 -28 20q-24 0 -38 -20zM499 751q-71 -69 -162 -69q-92 0 -131 69l32 22q14 -26 42 -41.5
t63 -15.5q73 0 130 57z" />
    <glyph glyph-name="uni1EB3" unicode="&#x1eb3;" 
d="M255 495q43 0 77.5 -23.5t51.5 -65.5l17 77h50l-107 -483h-50l15 69q-53 -81 -133 -81q-64 0 -102 44.5t-38 123.5q0 74 25 150t77 132.5t117 56.5zM260 450q-50 0 -90.5 -50t-60 -115t-19.5 -123q0 -62 27 -95.5t76 -33.5q36 0 71.5 27t57.5 65l52 235q-11 38 -42 64
t-72 26zM288 682l-24 12q23 43 64 43q25 0 40 -14t15 -38q0 -39 -34 -71h-34q39 34 39 68q0 13 -8 21t-20 8q-24 0 -38 -29zM448 600q-71 -74 -162 -74q-44 0 -78.5 20t-52.5 54l32 24q30 -61 105 -61q74 0 130 61z" />
    <glyph glyph-name="uni1EB4" unicode="&#x1eb4;" horiz-adv-x="492" 
d="M426 0h-58l-12 165h-251l-84 -165h-63l348 667h66zM355 215l-28 387l-198 -387h226zM497 733q-72 -50 -162 -50q-91 0 -131 50l32 16q30 -41 105 -41q74 0 130 41zM410 759q-23 0 -36.5 8t-17 17.5t-12.5 17.5t-25 8q-40 0 -61 -48h-34q29 67 102 67q23 0 36 -8t16.5 -18
t13 -18t25.5 -8q38 0 61 49h34q-29 -67 -102 -67z" />
    <glyph glyph-name="uni1EB5" unicode="&#x1eb5;" 
d="M255 495q43 0 77.5 -23.5t51.5 -65.5l17 77h50l-107 -483h-50l15 69q-53 -81 -133 -81q-64 0 -102 44.5t-38 123.5q0 74 25 150t77 132.5t117 56.5zM260 450q-50 0 -90.5 -50t-60 -115t-19.5 -123q0 -62 27 -95.5t76 -33.5q36 0 71.5 27t57.5 65l52 235q-11 38 -42 64
t-72 26zM449 603q-71 -74 -162 -74q-44 0 -78.5 20t-52.5 54l32 24q30 -61 105 -61q74 0 130 61zM377 656q-23 0 -36.5 16t-17 35.5t-12.5 35.5t-25 16q-40 0 -61 -97h-34q29 134 102 134q23 0 36 -16t16.5 -35.5t13 -35.5t25.5 -16q38 0 61 97h34q-29 -134 -102 -134z" />
    <glyph glyph-name="uni1EB6" unicode="&#x1eb6;" horiz-adv-x="492" 
d="M426 0h-58l-12 165h-251l-84 -165h-63l348 667h66zM355 215l-28 387l-198 -387h226zM199 -137q0 -16 -12.5 -28.5t-29.5 -12.5q-14 0 -23.5 9.5t-9.5 23.5q0 17 12 29.5t29 12.5q14 0 24 -10t10 -24zM507 789q-71 -74 -162 -74q-44 0 -78.5 20t-52.5 54l32 24
q30 -61 105 -61q74 0 130 61z" />
    <glyph glyph-name="uni1EB7" unicode="&#x1eb7;" 
d="M255 495q43 0 77.5 -23.5t51.5 -65.5l17 77h50l-107 -483h-50l15 69q-53 -81 -133 -81q-64 0 -102 44.5t-38 123.5q0 74 25 150t77 132.5t117 56.5zM260 450q-50 0 -90.5 -50t-60 -115t-19.5 -123q0 -62 27 -95.5t76 -33.5q36 0 71.5 27t57.5 65l52 235q-11 38 -42 64
t-72 26zM181 -137q0 -16 -12.5 -28.5t-29.5 -12.5q-14 0 -23.5 9.5t-9.5 23.5q0 17 12 29.5t29 12.5q14 0 24 -10t10 -24zM453 622q-71 -74 -162 -74q-44 0 -78.5 20t-52.5 54l32 24q30 -61 105 -61q74 0 130 61z" />
    <glyph glyph-name="uni1EB8" unicode="&#x1eb8;" horiz-adv-x="452" 
d="M347 0h-326l147 667h326l-11 -50h-270l-55 -250h263l-12 -50h-263l-59 -267h271zM190 -137q0 -16 -12.5 -28.5t-29.5 -12.5q-14 0 -23.5 9.5t-9.5 23.5q0 17 12 29.5t29 12.5q14 0 24 -10t10 -24z" />
    <glyph glyph-name="uni1EB9" unicode="&#x1eb9;" horiz-adv-x="463" 
d="M216 -12q-84 0 -131.5 49t-47.5 137q0 66 26 138t81 127.5t125 55.5q73 0 115.5 -46.5t42.5 -129.5q0 -48 -13 -94h-320q-5 -28 -5 -53q0 -63 33.5 -102t96.5 -39t117 56l24 -34q-65 -65 -144 -65zM101 265h271q7 30 7 54q0 58 -30 95.5t-85 37.5q-59 0 -105 -58
t-58 -129zM190 -137q0 -16 -12.5 -28.5t-29.5 -12.5q-14 0 -23.5 9.5t-9.5 23.5q0 17 12 29.5t29 12.5q14 0 24 -10t10 -24z" />
    <glyph glyph-name="uni1EBA" unicode="&#x1eba;" horiz-adv-x="452" 
d="M347 0h-326l147 667h326l-11 -50h-270l-55 -250h263l-12 -50h-263l-59 -267h271zM316 765l-24 12q23 43 64 43q25 0 40 -14t15 -38q0 -39 -34 -71h-34q39 34 39 68q0 13 -8 21t-20 8q-24 0 -38 -29z" />
    <glyph glyph-name="uni1EBB" unicode="&#x1ebb;" horiz-adv-x="463" 
d="M216 -12q-84 0 -131.5 49t-47.5 137q0 66 26 138t81 127.5t125 55.5q73 0 115.5 -46.5t42.5 -129.5q0 -48 -13 -94h-320q-5 -28 -5 -53q0 -63 33.5 -102t96.5 -39t117 56l24 -34q-65 -65 -144 -65zM101 265h271q7 30 7 54q0 58 -30 95.5t-85 37.5q-59 0 -105 -58
t-58 -129zM277 595l-24 12q23 43 64 43q25 0 40 -14t15 -38q0 -39 -34 -71h-34q39 34 39 68q0 13 -8 21t-20 8q-23 0 -38 -29z" />
    <glyph glyph-name="uni1EBC" unicode="&#x1ebc;" horiz-adv-x="452" 
d="M347 0h-326l147 667h326l-11 -50h-270l-55 -250h263l-12 -50h-263l-59 -267h271zM401 721q-23 0 -36.5 16t-17 35.5t-12.5 35.5t-25 16q-40 0 -61 -97h-34q29 134 102 134q23 0 36 -16t16.5 -35.5t13 -35.5t25.5 -16q38 0 61 97h34q-29 -134 -102 -134z" />
    <glyph glyph-name="uni1EBD" unicode="&#x1ebd;" horiz-adv-x="463" 
d="M216 -12q-84 0 -131.5 49t-47.5 137q0 66 26 138t81 127.5t125 55.5q73 0 115.5 -46.5t42.5 -129.5q0 -48 -13 -94h-320q-5 -28 -5 -53q0 -63 33.5 -102t96.5 -39t117 56l24 -34q-65 -65 -144 -65zM101 265h271q7 30 7 54q0 58 -30 95.5t-85 37.5q-59 0 -105 -58
t-58 -129zM363 554q-23 0 -36.5 16t-17 35.5t-12.5 35.5t-25 16q-40 0 -61 -97h-34q29 134 102 134q23 0 36 -16t16.5 -35.5t13 -35.5t25.5 -16q38 0 61 97h34q-29 -134 -102 -134z" />
    <glyph glyph-name="uni1EBE" unicode="&#x1ebe;" horiz-adv-x="452" 
d="M438 682h-34l-51 84l-96 -84h-38l114 108h52zM625 844l-167 -108h-41l148 108h60zM347 0h-326l147 667h326l-11 -50h-270l-55 -250h263l-12 -50h-263l-59 -267h271z" />
    <glyph glyph-name="uni1EBF" unicode="&#x1ebf;" horiz-adv-x="463" 
d="M415 556h-34l-51 112l-96 -112h-38l114 144h52zM604 771l-167 -144h-41l148 144h60zM216 -12q-84 0 -131.5 49t-47.5 137q0 66 26 138t81 127.5t125 55.5q73 0 115.5 -46.5t42.5 -129.5q0 -48 -13 -94h-320q-5 -28 -5 -53q0 -63 33.5 -102t96.5 -39t117 56l24 -34
q-65 -65 -144 -65zM101 265h271q7 30 7 54q0 58 -30 95.5t-85 37.5q-59 0 -105 -58t-58 -129z" />
    <glyph glyph-name="uni1EC0" unicode="&#x1ec0;" horiz-adv-x="452" 
d="M438 682h-34l-51 84l-96 -84h-38l114 108h52zM347 0h-326l147 667h326l-11 -50h-270l-55 -250h263l-12 -50h-263l-59 -267h271zM264 736h-39l-103 108h58z" />
    <glyph glyph-name="uni1EC1" unicode="&#x1ec1;" horiz-adv-x="463" 
d="M416 556h-34l-51 112l-96 -112h-38l114 144h52zM216 -12q-84 0 -131.5 49t-47.5 137q0 66 26 138t81 127.5t125 55.5q73 0 115.5 -46.5t42.5 -129.5q0 -48 -13 -94h-320q-5 -28 -5 -53q0 -63 33.5 -102t96.5 -39t117 56l24 -34q-65 -65 -144 -65zM101 265h271q7 30 7 54
q0 58 -30 95.5t-85 37.5q-59 0 -105 -58t-58 -129zM244 627h-39l-103 144h58z" />
    <glyph glyph-name="uni1EC2" unicode="&#x1ec2;" horiz-adv-x="452" 
d="M438 682h-34l-51 84l-96 -84h-38l114 108h52zM347 0h-326l147 667h326l-11 -50h-270l-55 -250h263l-12 -50h-263l-59 -267h271zM392 807l-24 9q23 32 64 32q25 0 40 -10.5t15 -28.5q0 -29 -34 -53h-34q39 26 39 51q0 10 -8 16t-20 6q-23 0 -38 -22z" />
    <glyph glyph-name="uni1EC3" unicode="&#x1ec3;" horiz-adv-x="463" 
d="M416 556h-34l-51 112l-96 -112h-38l114 144h52zM216 -12q-84 0 -131.5 49t-47.5 137q0 66 26 138t81 127.5t125 55.5q73 0 115.5 -46.5t42.5 -129.5q0 -48 -13 -94h-320q-5 -28 -5 -53q0 -63 33.5 -102t96.5 -39t117 56l24 -34q-65 -65 -144 -65zM101 265h271q7 30 7 54
q0 58 -30 95.5t-85 37.5q-59 0 -105 -58t-58 -129zM365 735l-24 12q23 43 64 43q25 0 40 -14t15 -38q0 -39 -34 -71h-34q39 34 39 68q0 13 -8 21t-20 8q-23 0 -38 -29z" />
    <glyph glyph-name="uni1EC4" unicode="&#x1ec4;" horiz-adv-x="452" 
d="M436 678h-34l-51 56l-96 -56h-38l114 72h52zM347 0h-326l147 667h326l-11 -50h-270l-55 -250h263l-12 -50h-263l-59 -267h271zM401 757q-23 0 -36.5 8t-17 17.5t-12.5 17.5t-25 8q-40 0 -61 -48h-34q29 67 102 67q23 0 36 -8t16.5 -18t13 -18t25.5 -8q38 0 61 49h34
q-29 -67 -102 -67z" />
    <glyph glyph-name="uni1EC5" unicode="&#x1ec5;" horiz-adv-x="463" 
d="M408 523h-34l-51 112l-96 -112h-38l114 144h52zM216 -12q-84 0 -131.5 49t-47.5 137q0 66 26 138t81 127.5t125 55.5q73 0 115.5 -46.5t42.5 -129.5q0 -48 -13 -94h-320q-5 -28 -5 -53q0 -63 33.5 -102t96.5 -39t117 56l24 -34q-65 -65 -144 -65zM101 265h271q7 30 7 54
q0 58 -30 95.5t-85 37.5q-59 0 -105 -58t-58 -129zM392 682q-23 0 -36.5 16t-17 35.5t-12.5 35.5t-25 16q-40 0 -61 -97h-34q29 134 102 134q23 0 36 -16t16.5 -35.5t13 -35.5t25.5 -16q38 0 61 97h34q-29 -134 -102 -134z" />
    <glyph glyph-name="uni1EC6" unicode="&#x1ec6;" horiz-adv-x="452" 
d="M453 723h-34l-51 112l-96 -112h-38l114 144h52zM347 0h-326l147 667h326l-11 -50h-270l-55 -250h263l-12 -50h-263l-59 -267h271zM190 -137q0 -16 -12.5 -28.5t-29.5 -12.5q-14 0 -23.5 9.5t-9.5 23.5q0 17 12 29.5t29 12.5q14 0 24 -10t10 -24z" />
    <glyph glyph-name="uni1EC7" unicode="&#x1ec7;" horiz-adv-x="463" 
d="M415 556h-34l-51 112l-96 -112h-38l114 144h52zM216 -12q-84 0 -131.5 49t-47.5 137q0 66 26 138t81 127.5t125 55.5q73 0 115.5 -46.5t42.5 -129.5q0 -48 -13 -94h-320q-5 -28 -5 -53q0 -63 33.5 -102t96.5 -39t117 56l24 -34q-65 -65 -144 -65zM101 265h271q7 30 7 54
q0 58 -30 95.5t-85 37.5q-59 0 -105 -58t-58 -129zM190 -137q0 -16 -12.5 -28.5t-29.5 -12.5q-14 0 -23.5 9.5t-9.5 23.5q0 17 12 29.5t29 12.5q14 0 24 -10t10 -24z" />
    <glyph glyph-name="uni1EC8" unicode="&#x1ec8;" horiz-adv-x="206" 
d="M77 0h-56l147 667h56zM181 765l-24 12q23 43 64 43q25 0 40 -14t15 -38q0 -39 -34 -71h-34q39 34 39 68q0 13 -8 21t-20 8q-23 0 -38 -29z" />
    <glyph glyph-name="uni1EC9" unicode="&#x1ec9;" horiz-adv-x="192" 
d="M67 0h-50l107 483h50zM137 595l-24 12q23 43 64 43q25 0 40 -14t15 -38q0 -39 -34 -71h-34q39 34 39 68q0 13 -8 21t-20 8q-23 0 -38 -29z" />
    <glyph glyph-name="uni1ECA" unicode="&#x1eca;" horiz-adv-x="206" 
d="M77 0h-56l147 667h56zM56 -137q0 -16 -12.5 -28.5t-29.5 -12.5q-14 0 -23.5 9.5t-9.5 23.5q0 17 12 29.5t29 12.5q14 0 24 -10t10 -24z" />
    <glyph glyph-name="uni1ECB" unicode="&#x1ecb;" horiz-adv-x="192" 
d="M169 559q-15 0 -25 10.5t-10 24.5q0 18 14 30.5t30 12.5q15 0 25.5 -10t10.5 -24q0 -19 -14 -31.5t-31 -12.5zM67 0h-50l107 483h50zM49 -137q0 -16 -12.5 -28.5t-29.5 -12.5q-14 0 -23.5 9.5t-9.5 23.5q0 17 12 29.5t29 12.5q14 0 24 -10t10 -24z" />
    <glyph glyph-name="uni1ECC" unicode="&#x1ecc;" horiz-adv-x="590" 
d="M265 -12q-95 0 -152.5 64t-57.5 170q0 100 36.5 203t109.5 178t162 75q95 0 152.5 -64.5t57.5 -170.5q0 -75 -22 -154t-60.5 -146.5t-98 -111t-127.5 -43.5zM269 39q66 0 124 63t89.5 156t31.5 186q0 86 -43 134.5t-113 48.5q-67 0 -124.5 -63.5t-88.5 -156t-31 -185.5
q0 -87 42.5 -135t112.5 -48zM248 -137q0 -16 -12.5 -28.5t-29.5 -12.5q-14 0 -23.5 9.5t-9.5 23.5q0 17 12 29.5t29 12.5q14 0 24 -10t10 -24z" />
    <glyph glyph-name="uni1ECD" unicode="&#x1ecd;" 
d="M199 -12q-75 0 -118.5 47t-43.5 133q0 75 27.5 149t82 126t121.5 52q75 0 119 -47t44 -133q0 -75 -27.5 -149t-82.5 -126t-122 -52zM201 33q50 0 92 47.5t63 111t21 122.5q0 67 -29 101.5t-82 34.5q-50 0 -92 -47.5t-63 -111.5t-21 -122q0 -67 29.5 -101.5t81.5 -34.5z
M188 -137q0 -16 -12.5 -28.5t-29.5 -12.5q-14 0 -23.5 9.5t-9.5 23.5q0 17 12 29.5t29 12.5q14 0 24 -10t10 -24z" />
    <glyph glyph-name="uni1ECE" unicode="&#x1ece;" horiz-adv-x="590" 
d="M265 -12q-95 0 -152.5 64t-57.5 170q0 100 36.5 203t109.5 178t162 75q95 0 152.5 -64.5t57.5 -170.5q0 -75 -22 -154t-60.5 -146.5t-98 -111t-127.5 -43.5zM269 39q66 0 124 63t89.5 156t31.5 186q0 86 -43 134.5t-113 48.5q-67 0 -124.5 -63.5t-88.5 -156t-31 -185.5
q0 -87 42.5 -135t112.5 -48zM373 765l-24 12q23 43 64 43q25 0 40 -14t15 -38q0 -39 -34 -71h-34q39 34 39 68q0 13 -8 21t-20 8q-23 0 -38 -29z" />
    <glyph glyph-name="uni1ECF" unicode="&#x1ecf;" 
d="M199 -12q-75 0 -118.5 47t-43.5 133q0 75 27.5 149t82 126t121.5 52q75 0 119 -47t44 -133q0 -75 -27.5 -149t-82.5 -126t-122 -52zM201 33q50 0 92 47.5t63 111t21 122.5q0 67 -29 101.5t-82 34.5q-50 0 -92 -47.5t-63 -111.5t-21 -122q0 -67 29.5 -101.5t81.5 -34.5z
M276 595l-24 12q23 43 64 43q25 0 40 -14t15 -38q0 -39 -34 -71h-34q39 34 39 68q0 13 -8 21t-20 8q-24 0 -38 -29z" />
    <glyph glyph-name="uni1ED0" unicode="&#x1ed0;" horiz-adv-x="590" 
d="M496 682h-34l-51 84l-96 -84h-38l114 108h52zM683 844l-167 -108h-41l148 108h60zM265 -12q-95 0 -152.5 64t-57.5 170q0 100 36.5 203t109.5 178t162 75q95 0 152.5 -64.5t57.5 -170.5q0 -75 -22 -154t-60.5 -146.5t-98 -111t-127.5 -43.5zM269 39q66 0 124 63t89.5 156
t31.5 186q0 86 -43 134.5t-113 48.5q-67 0 -124.5 -63.5t-88.5 -156t-31 -185.5q0 -87 42.5 -135t112.5 -48z" />
    <glyph glyph-name="uni1ED1" unicode="&#x1ed1;" 
d="M413 556h-34l-51 112l-96 -112h-38l114 144h52zM602 771l-167 -144h-41l148 144h60zM199 -12q-75 0 -118.5 47t-43.5 133q0 75 27.5 149t82 126t121.5 52q75 0 119 -47t44 -133q0 -75 -27.5 -149t-82.5 -126t-122 -52zM201 33q50 0 92 47.5t63 111t21 122.5
q0 67 -29 101.5t-82 34.5q-50 0 -92 -47.5t-63 -111.5t-21 -122q0 -67 29.5 -101.5t81.5 -34.5z" />
    <glyph glyph-name="uni1ED2" unicode="&#x1ed2;" horiz-adv-x="590" 
d="M495 682h-34l-51 84l-96 -84h-38l114 108h52zM265 -12q-95 0 -152.5 64t-57.5 170q0 100 36.5 203t109.5 178t162 75q95 0 152.5 -64.5t57.5 -170.5q0 -75 -22 -154t-60.5 -146.5t-98 -111t-127.5 -43.5zM269 39q66 0 124 63t89.5 156t31.5 186q0 86 -43 134.5t-113 48.5
q-67 0 -124.5 -63.5t-88.5 -156t-31 -185.5q0 -87 42.5 -135t112.5 -48zM321 736h-39l-103 108h58z" />
    <glyph glyph-name="uni1ED3" unicode="&#x1ed3;" 
d="M413 556h-34l-51 112l-96 -112h-38l114 144h52zM199 -12q-75 0 -118.5 47t-43.5 133q0 75 27.5 149t82 126t121.5 52q75 0 119 -47t44 -133q0 -75 -27.5 -149t-82.5 -126t-122 -52zM201 33q50 0 92 47.5t63 111t21 122.5q0 67 -29 101.5t-82 34.5q-50 0 -92 -47.5
t-63 -111.5t-21 -122q0 -67 29.5 -101.5t81.5 -34.5zM241 627h-39l-103 144h58z" />
    <glyph glyph-name="uni1ED4" unicode="&#x1ed4;" horiz-adv-x="590" 
d="M495 682h-34l-51 84l-96 -84h-38l114 108h52zM265 -12q-95 0 -152.5 64t-57.5 170q0 100 36.5 203t109.5 178t162 75q95 0 152.5 -64.5t57.5 -170.5q0 -75 -22 -154t-60.5 -146.5t-98 -111t-127.5 -43.5zM269 39q66 0 124 63t89.5 156t31.5 186q0 86 -43 134.5t-113 48.5
q-67 0 -124.5 -63.5t-88.5 -156t-31 -185.5q0 -87 42.5 -135t112.5 -48zM450 807l-24 9q23 32 64 32q25 0 40 -10.5t15 -28.5q0 -29 -34 -53h-34q39 26 39 51q0 10 -8 16t-20 6q-23 0 -38 -22z" />
    <glyph glyph-name="uni1ED5" unicode="&#x1ed5;" 
d="M413 556h-34l-51 112l-96 -112h-38l114 144h52zM199 -12q-75 0 -118.5 47t-43.5 133q0 75 27.5 149t82 126t121.5 52q75 0 119 -47t44 -133q0 -75 -27.5 -149t-82.5 -126t-122 -52zM201 33q50 0 92 47.5t63 111t21 122.5q0 67 -29 101.5t-82 34.5q-50 0 -92 -47.5
t-63 -111.5t-21 -122q0 -67 29.5 -101.5t81.5 -34.5zM362 735l-24 12q23 43 64 43q25 0 40 -14t15 -38q0 -39 -34 -71h-34q39 34 39 68q0 13 -8 21t-20 8q-24 0 -38 -29z" />
    <glyph glyph-name="uni1ED6" unicode="&#x1ed6;" horiz-adv-x="590" 
d="M490 678h-34l-51 56l-96 -56h-38l114 72h52zM265 -12q-95 0 -152.5 64t-57.5 170q0 100 36.5 203t109.5 178t162 75q95 0 152.5 -64.5t57.5 -170.5q0 -75 -22 -154t-60.5 -146.5t-98 -111t-127.5 -43.5zM269 39q66 0 124 63t89.5 156t31.5 186q0 86 -43 134.5t-113 48.5
q-67 0 -124.5 -63.5t-88.5 -156t-31 -185.5q0 -87 42.5 -135t112.5 -48zM458 757q-23 0 -36.5 8t-17 17.5t-12.5 17.5t-25 8q-40 0 -61 -48h-34q29 67 102 67q23 0 36 -8t16.5 -18t13 -18t25.5 -8q38 0 61 49h34q-29 -67 -102 -67z" />
    <glyph glyph-name="uni1ED7" unicode="&#x1ed7;" 
d="M405 523h-34l-51 112l-96 -112h-38l114 144h52zM199 -12q-75 0 -118.5 47t-43.5 133q0 75 27.5 149t82 126t121.5 52q75 0 119 -47t44 -133q0 -75 -27.5 -149t-82.5 -126t-122 -52zM201 33q50 0 92 47.5t63 111t21 122.5q0 67 -29 101.5t-82 34.5q-50 0 -92 -47.5
t-63 -111.5t-21 -122q0 -67 29.5 -101.5t81.5 -34.5zM390 682q-23 0 -36.5 16t-17 35.5t-12.5 35.5t-25 16q-40 0 -61 -97h-34q29 134 102 134q23 0 36 -16t16.5 -35.5t13 -35.5t25.5 -16q38 0 61 97h34q-29 -134 -102 -134z" />
    <glyph glyph-name="uni1ED8" unicode="&#x1ed8;" horiz-adv-x="590" 
d="M511 723h-34l-51 112l-96 -112h-38l114 144h52zM265 -12q-95 0 -152.5 64t-57.5 170q0 100 36.5 203t109.5 178t162 75q95 0 152.5 -64.5t57.5 -170.5q0 -75 -22 -154t-60.5 -146.5t-98 -111t-127.5 -43.5zM269 39q66 0 124 63t89.5 156t31.5 186q0 86 -43 134.5
t-113 48.5q-67 0 -124.5 -63.5t-88.5 -156t-31 -185.5q0 -87 42.5 -135t112.5 -48zM248 -137q0 -16 -12.5 -28.5t-29.5 -12.5q-14 0 -23.5 9.5t-9.5 23.5q0 17 12 29.5t29 12.5q14 0 24 -10t10 -24z" />
    <glyph glyph-name="uni1ED9" unicode="&#x1ed9;" 
d="M413 556h-34l-51 112l-96 -112h-38l114 144h52zM199 -12q-75 0 -118.5 47t-43.5 133q0 75 27.5 149t82 126t121.5 52q75 0 119 -47t44 -133q0 -75 -27.5 -149t-82.5 -126t-122 -52zM201 33q50 0 92 47.5t63 111t21 122.5q0 67 -29 101.5t-82 34.5q-50 0 -92 -47.5
t-63 -111.5t-21 -122q0 -67 29.5 -101.5t81.5 -34.5zM188 -137q0 -16 -12.5 -28.5t-29.5 -12.5q-14 0 -23.5 9.5t-9.5 23.5q0 17 12 29.5t29 12.5q14 0 24 -10t10 -24z" />
    <glyph glyph-name="uni1EDA" unicode="&#x1eda;" horiz-adv-x="590" 
d="M563 867l-167 -144h-41l148 144h60zM265 -12q-95 0 -152.5 64t-57.5 170q0 100 36.5 203t109.5 178t162 75q122 0 178 -102q46 30 58 72h-6q-12 0 -21 9.5t-9 22.5q0 17 12 29t29 12q16 0 26.5 -11t10.5 -31q0 -36 -25.5 -73t-61.5 -58q19 -49 19 -105q0 -75 -22 -154
t-60.5 -146.5t-98 -111t-127.5 -43.5zM269 39q66 0 124 63t89.5 156t31.5 186q0 86 -43 134.5t-113 48.5q-67 0 -124.5 -63.5t-88.5 -156t-31 -185.5q0 -87 42.5 -135t112.5 -48z" />
    <glyph glyph-name="uni1EDB" unicode="&#x1edb;" 
d="M465 700l-167 -144h-41l148 144h60zM487 545q0 -34 -23.5 -69t-56.5 -57q24 -45 24 -104q0 -75 -27.5 -149t-82.5 -126t-122 -52q-75 0 -118.5 47t-43.5 133q0 75 27.5 149t82 126t121.5 52q79 0 122 -51q44 31 55 70h-6q-12 0 -21 9.5t-9 22.5q0 17 12 29t29 12
q16 0 26.5 -11t10.5 -31zM201 33q50 0 92 47.5t63 111t21 122.5q0 67 -29 101.5t-82 34.5q-50 0 -92 -47.5t-63 -111.5t-21 -122q0 -67 29.5 -101.5t81.5 -34.5z" />
    <glyph glyph-name="uni1EDC" unicode="&#x1edc;" horiz-adv-x="590" 
d="M265 -12q-95 0 -152.5 64t-57.5 170q0 100 36.5 203t109.5 178t162 75q122 0 178 -102q46 30 58 72h-6q-12 0 -21 9.5t-9 22.5q0 17 12 29t29 12q16 0 26.5 -11t10.5 -31q0 -36 -25.5 -73t-61.5 -58q19 -49 19 -105q0 -75 -22 -154t-60.5 -146.5t-98 -111t-127.5 -43.5z
M269 39q66 0 124 63t89.5 156t31.5 186q0 86 -43 134.5t-113 48.5q-67 0 -124.5 -63.5t-88.5 -156t-31 -185.5q0 -87 42.5 -135t112.5 -48zM444 723h-39l-103 144h58z" />
    <glyph glyph-name="uni1EDD" unicode="&#x1edd;" 
d="M487 545q0 -34 -23.5 -69t-56.5 -57q24 -45 24 -104q0 -75 -27.5 -149t-82.5 -126t-122 -52q-75 0 -118.5 47t-43.5 133q0 75 27.5 149t82 126t121.5 52q79 0 122 -51q44 31 55 70h-6q-12 0 -21 9.5t-9 22.5q0 17 12 29t29 12q16 0 26.5 -11t10.5 -31zM201 33
q50 0 92 47.5t63 111t21 122.5q0 67 -29 101.5t-82 34.5q-50 0 -92 -47.5t-63 -111.5t-21 -122q0 -67 29.5 -101.5t81.5 -34.5zM348 556h-39l-103 144h58z" />
    <glyph glyph-name="uni1EDE" unicode="&#x1ede;" horiz-adv-x="590" 
d="M265 -12q-95 0 -152.5 64t-57.5 170q0 100 36.5 203t109.5 178t162 75q122 0 178 -102q46 30 58 72h-6q-12 0 -21 9.5t-9 22.5q0 17 12 29t29 12q16 0 26.5 -11t10.5 -31q0 -36 -25.5 -73t-61.5 -58q19 -49 19 -105q0 -75 -22 -154t-60.5 -146.5t-98 -111t-127.5 -43.5z
M269 39q66 0 124 63t89.5 156t31.5 186q0 86 -43 134.5t-113 48.5q-67 0 -124.5 -63.5t-88.5 -156t-31 -185.5q0 -87 42.5 -135t112.5 -48zM373 765l-24 12q23 43 64 43q25 0 40 -14t15 -38q0 -39 -34 -71h-34q39 34 39 68q0 13 -8 21t-20 8q-23 0 -38 -29z" />
    <glyph glyph-name="uni1EDF" unicode="&#x1edf;" 
d="M487 545q0 -34 -23.5 -69t-56.5 -57q24 -45 24 -104q0 -75 -27.5 -149t-82.5 -126t-122 -52q-75 0 -118.5 47t-43.5 133q0 75 27.5 149t82 126t121.5 52q79 0 122 -51q44 31 55 70h-6q-12 0 -21 9.5t-9 22.5q0 17 12 29t29 12q16 0 26.5 -11t10.5 -31zM201 33
q50 0 92 47.5t63 111t21 122.5q0 67 -29 101.5t-82 34.5q-50 0 -92 -47.5t-63 -111.5t-21 -122q0 -67 29.5 -101.5t81.5 -34.5zM276 595l-24 12q23 43 64 43q25 0 40 -14t15 -38q0 -39 -34 -71h-34q39 34 39 68q0 13 -8 21t-20 8q-24 0 -38 -29z" />
    <glyph glyph-name="uni1EE0" unicode="&#x1ee0;" horiz-adv-x="590" 
d="M265 -12q-95 0 -152.5 64t-57.5 170q0 100 36.5 203t109.5 178t162 75q122 0 178 -102q46 30 58 72h-6q-12 0 -21 9.5t-9 22.5q0 17 12 29t29 12q16 0 26.5 -11t10.5 -31q0 -36 -25.5 -73t-61.5 -58q19 -49 19 -105q0 -75 -22 -154t-60.5 -146.5t-98 -111t-127.5 -43.5z
M269 39q66 0 124 63t89.5 156t31.5 186q0 86 -43 134.5t-113 48.5q-67 0 -124.5 -63.5t-88.5 -156t-31 -185.5q0 -87 42.5 -135t112.5 -48zM459 721q-23 0 -36.5 16t-17 35.5t-12.5 35.5t-25 16q-40 0 -61 -97h-34q29 134 102 134q23 0 36 -16t16.5 -35.5t13 -35.5t25.5 -16
q38 0 61 97h34q-29 -134 -102 -134z" />
    <glyph glyph-name="uni1EE1" unicode="&#x1ee1;" 
d="M487 545q0 -34 -23.5 -69t-56.5 -57q24 -45 24 -104q0 -75 -27.5 -149t-82.5 -126t-122 -52q-75 0 -118.5 47t-43.5 133q0 75 27.5 149t82 126t121.5 52q79 0 122 -51q44 31 55 70h-6q-12 0 -21 9.5t-9 22.5q0 17 12 29t29 12q16 0 26.5 -11t10.5 -31zM201 33
q50 0 92 47.5t63 111t21 122.5q0 67 -29 101.5t-82 34.5q-50 0 -92 -47.5t-63 -111.5t-21 -122q0 -67 29.5 -101.5t81.5 -34.5zM348 554q-23 0 -36.5 16t-17 35.5t-12.5 35.5t-25 16q-40 0 -61 -97h-34q29 134 102 134q23 0 36 -16t16.5 -35.5t13 -35.5t25.5 -16q38 0 61 97
h34q-29 -134 -102 -134z" />
    <glyph glyph-name="uni1EE2" unicode="&#x1ee2;" horiz-adv-x="590" 
d="M265 -12q-95 0 -152.5 64t-57.5 170q0 100 36.5 203t109.5 178t162 75q122 0 178 -102q46 30 58 72h-6q-12 0 -21 9.5t-9 22.5q0 17 12 29t29 12q16 0 26.5 -11t10.5 -31q0 -36 -25.5 -73t-61.5 -58q19 -49 19 -105q0 -75 -22 -154t-60.5 -146.5t-98 -111t-127.5 -43.5z
M269 39q66 0 124 63t89.5 156t31.5 186q0 86 -43 134.5t-113 48.5q-67 0 -124.5 -63.5t-88.5 -156t-31 -185.5q0 -87 42.5 -135t112.5 -48zM248 -137q0 -16 -12.5 -28.5t-29.5 -12.5q-14 0 -23.5 9.5t-9.5 23.5q0 17 12 29.5t29 12.5q14 0 24 -10t10 -24z" />
    <glyph glyph-name="uni1EE3" unicode="&#x1ee3;" 
d="M487 545q0 -34 -23.5 -69t-56.5 -57q24 -45 24 -104q0 -75 -27.5 -149t-82.5 -126t-122 -52q-75 0 -118.5 47t-43.5 133q0 75 27.5 149t82 126t121.5 52q79 0 122 -51q44 31 55 70h-6q-12 0 -21 9.5t-9 22.5q0 17 12 29t29 12q16 0 26.5 -11t10.5 -31zM201 33
q50 0 92 47.5t63 111t21 122.5q0 67 -29 101.5t-82 34.5q-50 0 -92 -47.5t-63 -111.5t-21 -122q0 -67 29.5 -101.5t81.5 -34.5zM188 -137q0 -16 -12.5 -28.5t-29.5 -12.5q-14 0 -23.5 9.5t-9.5 23.5q0 17 12 29.5t29 12.5q14 0 24 -10t10 -24z" />
    <glyph glyph-name="uni1EE4" unicode="&#x1ee4;" horiz-adv-x="551" 
d="M249 -12q-86 0 -136 46t-50 127q0 27 5 49l100 457h56l-101 -458q-5 -17 -5 -42q0 -59 36 -94t97 -35q66 0 104 41.5t58 129.5l100 458h56l-101 -457q-25 -112 -76 -167t-143 -55zM228 -137q0 -16 -12.5 -28.5t-29.5 -12.5q-14 0 -23.5 9.5t-9.5 23.5q0 17 12 29.5
t29 12.5q14 0 24 -10t10 -24z" />
    <glyph glyph-name="uni1EE5" unicode="&#x1ee5;" horiz-adv-x="450" 
d="M124 483h50l-78 -355q-5 -23 -5 -31q0 -64 74 -64q35 0 71.5 24.5t64.5 60.5l80 365h51l-107 -483h-51l16 70q-69 -82 -145 -82q-49 0 -78 24.5t-29 69.5q0 14 5 37zM178 -137q0 -16 -12.5 -28.5t-29.5 -12.5q-14 0 -23.5 9.5t-9.5 23.5q0 17 12 29.5t29 12.5
q14 0 24 -10t10 -24z" />
    <glyph glyph-name="uni1EE6" unicode="&#x1ee6;" horiz-adv-x="551" 
d="M249 -12q-86 0 -136 46t-50 127q0 27 5 49l100 457h56l-101 -458q-5 -17 -5 -42q0 -59 36 -94t97 -35q66 0 104 41.5t58 129.5l100 458h56l-101 -457q-25 -112 -76 -167t-143 -55zM354 765l-24 12q23 43 64 43q25 0 40 -14t15 -38q0 -39 -34 -71h-34q39 34 39 68
q0 13 -8 21t-20 8q-24 0 -38 -29z" />
    <glyph glyph-name="uni1EE7" unicode="&#x1ee7;" horiz-adv-x="450" 
d="M124 483h50l-78 -355q-5 -23 -5 -31q0 -64 74 -64q35 0 71.5 24.5t64.5 60.5l80 365h51l-107 -483h-51l16 70q-69 -82 -145 -82q-49 0 -78 24.5t-29 69.5q0 14 5 37zM266 595l-24 12q23 43 64 43q25 0 40 -14t15 -38q0 -39 -34 -71h-34q39 34 39 68q0 13 -8 21t-20 8
q-24 0 -38 -29z" />
    <glyph glyph-name="uni1EE8" unicode="&#x1ee8;" horiz-adv-x="551" 
d="M544 867l-167 -144h-41l148 144h60zM679 744q0 -44 -36.5 -86t-90.5 -65l-84 -383q-25 -112 -76 -167t-143 -55q-86 0 -136 46t-50 127q0 29 5 49l100 457h56l-101 -458q-5 -17 -5 -42q0 -59 36 -94t97 -35q66 0 104 41.5t58 129.5l100 458h56l-8 -36q64 35 77 83
q-1 -1 -7 -1q-12 0 -20.5 9.5t-8.5 22.5q0 17 12 29.5t29 12.5q16 0 26 -11.5t10 -31.5z" />
    <glyph glyph-name="uni1EE9" unicode="&#x1ee9;" horiz-adv-x="450" 
d="M456 700l-167 -144h-41l148 144h60zM531 547q0 -42 -34 -83t-84 -64l-88 -400h-51l16 69q-70 -81 -145 -81q-49 0 -78 24.5t-29 69.5q0 14 5 37l80 364h51l-78 -355q-5 -23 -5 -31q0 -64 74 -64q35 0 71.5 24.5t63.5 60.5l81 365h51l-10 -45q57 35 68 78h-6
q-12 0 -21 9.5t-9 22.5q0 17 12 29t29 12q36 0 36 -42z" />
    <glyph glyph-name="uni1EEA" unicode="&#x1eea;" horiz-adv-x="551" 
d="M424 723h-39l-103 144h58zM679 744q0 -44 -36.5 -86t-90.5 -65l-84 -383q-25 -112 -76 -167t-143 -55q-86 0 -136 46t-50 127q0 29 5 49l100 457h56l-101 -458q-5 -17 -5 -42q0 -59 36 -94t97 -35q66 0 104 41.5t58 129.5l100 458h56l-8 -36q64 35 77 83q-1 -1 -7 -1
q-12 0 -20.5 9.5t-8.5 22.5q0 17 12 29.5t29 12.5q16 0 26 -11.5t10 -31.5z" />
    <glyph glyph-name="uni1EEB" unicode="&#x1eeb;" horiz-adv-x="450" 
d="M339 556h-39l-103 144h58zM531 547q0 -42 -34 -83t-84 -64l-88 -400h-51l16 69q-70 -81 -145 -81q-49 0 -78 24.5t-29 69.5q0 14 5 37l80 364h51l-78 -355q-5 -23 -5 -31q0 -64 74 -64q35 0 71.5 24.5t63.5 60.5l81 365h51l-10 -45q57 35 68 78h-6q-12 0 -21 9.5t-9 22.5
q0 17 12 29t29 12q36 0 36 -42z" />
    <glyph glyph-name="uni1EEC" unicode="&#x1eec;" horiz-adv-x="551" 
d="M354 765l-24 12q23 43 64 43q25 0 40 -14t15 -38q0 -39 -34 -71h-34q39 34 39 68q0 13 -8 21t-20 8q-24 0 -38 -29zM679 744q0 -44 -36.5 -86t-90.5 -65l-84 -383q-25 -112 -76 -167t-143 -55q-86 0 -136 46t-50 127q0 29 5 49l100 457h56l-101 -458q-5 -17 -5 -42
q0 -59 36 -94t97 -35q66 0 104 41.5t58 129.5l100 458h56l-8 -36q64 35 77 83q-1 -1 -7 -1q-12 0 -20.5 9.5t-8.5 22.5q0 17 12 29.5t29 12.5q16 0 26 -11.5t10 -31.5z" />
    <glyph glyph-name="uni1EED" unicode="&#x1eed;" horiz-adv-x="450" 
d="M266 595l-24 12q23 43 64 43q25 0 40 -14t15 -38q0 -39 -34 -71h-34q39 34 39 68q0 13 -8 21t-20 8q-24 0 -38 -29zM531 547q0 -42 -34 -83t-84 -64l-88 -400h-51l16 69q-70 -81 -145 -81q-49 0 -78 24.5t-29 69.5q0 14 5 37l80 364h51l-78 -355q-5 -23 -5 -31
q0 -64 74 -64q35 0 71.5 24.5t63.5 60.5l81 365h51l-10 -45q57 35 68 78h-6q-12 0 -21 9.5t-9 22.5q0 17 12 29t29 12q36 0 36 -42z" />
    <glyph glyph-name="uni1EEE" unicode="&#x1eee;" horiz-adv-x="551" 
d="M679 744q0 -44 -36.5 -86t-90.5 -65l-84 -383q-25 -112 -76 -167t-143 -55q-86 0 -136 46t-50 127q0 29 5 49l100 457h56l-101 -458q-5 -17 -5 -42q0 -59 36 -94t97 -35q66 0 104 41.5t58 129.5l100 458h56l-8 -36q64 35 77 83q-1 -1 -7 -1q-12 0 -20.5 9.5t-8.5 22.5
q0 17 12 29.5t29 12.5q16 0 26 -11.5t10 -31.5zM439 721q-23 0 -36.5 16t-17 35.5t-12.5 35.5t-25 16q-40 0 -61 -97h-34q29 134 102 134q23 0 36 -16t16.5 -35.5t13 -35.5t25.5 -16q38 0 61 97h34q-29 -134 -102 -134z" />
    <glyph glyph-name="uni1EEF" unicode="&#x1eef;" horiz-adv-x="450" 
d="M531 547q0 -42 -34 -83t-84 -64l-88 -400h-51l16 69q-70 -81 -145 -81q-49 0 -78 24.5t-29 69.5q0 14 5 37l80 364h51l-78 -355q-5 -23 -5 -31q0 -64 74 -64q35 0 71.5 24.5t63.5 60.5l81 365h51l-10 -45q57 35 68 78h-6q-12 0 -21 9.5t-9 22.5q0 17 12 29t29 12
q36 0 36 -42zM348 554q-23 0 -36.5 16t-17 35.5t-12.5 35.5t-25 16q-40 0 -61 -97h-34q29 134 102 134q23 0 36 -16t16.5 -35.5t13 -35.5t25.5 -16q38 0 61 97h34q-29 -134 -102 -134z" />
    <glyph glyph-name="uni1EF0" unicode="&#x1ef0;" horiz-adv-x="551" 
d="M228 -137q0 -16 -12.5 -28.5t-29.5 -12.5q-14 0 -23.5 9.5t-9.5 23.5q0 17 12 29.5t29 12.5q14 0 24 -10t10 -24zM679 744q0 -44 -36.5 -86t-90.5 -65l-84 -383q-25 -112 -76 -167t-143 -55q-86 0 -136 46t-50 127q0 29 5 49l100 457h56l-101 -458q-5 -17 -5 -42
q0 -59 36 -94t97 -35q66 0 104 41.5t58 129.5l100 458h56l-8 -36q64 35 77 83q-1 -1 -7 -1q-12 0 -20.5 9.5t-8.5 22.5q0 17 12 29.5t29 12.5q16 0 26 -11.5t10 -31.5z" />
    <glyph glyph-name="uni1EF1" unicode="&#x1ef1;" horiz-adv-x="450" 
d="M178 -137q0 -16 -12.5 -28.5t-29.5 -12.5q-14 0 -23.5 9.5t-9.5 23.5q0 17 12 29.5t29 12.5q14 0 24 -10t10 -24zM531 547q0 -42 -34 -83t-84 -64l-88 -400h-51l16 69q-70 -81 -145 -81q-49 0 -78 24.5t-29 69.5q0 14 5 37l80 364h51l-78 -355q-5 -23 -5 -31
q0 -64 74 -64q35 0 71.5 24.5t63.5 60.5l81 365h51l-10 -45q57 35 68 78h-6q-12 0 -21 9.5t-9 22.5q0 17 12 29t29 12q36 0 36 -42z" />
    <glyph glyph-name="Ygrave" unicode="&#x1ef2;" horiz-adv-x="483" 
d="M215 0h-55l63 286l-122 381h60l98 -325l242 325h67l-290 -381zM391 723h-39l-103 144h58z" />
    <glyph glyph-name="ygrave" unicode="&#x1ef3;" horiz-adv-x="392" 
d="M-55 -186l19 45q11 -8 35 -8q18 0 32 11.5t31 40.5l49 88l-48 492h54l36 -421l224 421h58l-327 -593q-48 -86 -114 -86q-29 0 -49 10zM306 556h-39l-103 144h58z" />
    <glyph glyph-name="thinspace" unicode="&#x2009;" horiz-adv-x="43" 
 />
    <glyph glyph-name="endash" unicode="&#x2013;" horiz-adv-x="527" 
d="M491 219h-467l10 46h466z" />
    <glyph glyph-name="emdash" unicode="&#x2014;" horiz-adv-x="737" 
d="M701 219h-677l10 46h676z" />
    <glyph glyph-name="afii00208" unicode="&#x2015;" horiz-adv-x="527" 
d="M491 219h-467l10 46h466z" />
    <glyph glyph-name="quoteleft" unicode="&#x2018;" horiz-adv-x="218" 
d="M123 532q0 41 30 82.5t71 62.5l24 -26q-28 -14 -49.5 -37.5t-27.5 -46.5h6q14 0 24 -10t10 -25q0 -19 -14 -33t-32 -14q-19 0 -30.5 12t-11.5 35z" />
    <glyph glyph-name="quoteright" unicode="&#x2019;" horiz-adv-x="218" 
d="M241 630q0 -41 -30.5 -82.5t-71.5 -62.5l-24 25q28 15 49.5 38t28.5 46h-7q-14 0 -24 10.5t-10 25.5q0 19 14 33t33 14q18 0 30 -12.5t12 -34.5z" />
    <glyph glyph-name="quotesinglbase" unicode="&#x201a;" horiz-adv-x="219" 
d="M107 29q0 -41 -30 -82.5t-71 -62.5l-24 26q28 14 49.5 37.5t28.5 46.5h-7q-14 0 -24 10t-10 25q0 19 14 33t32 14q19 0 30.5 -12t11.5 -35z" />
    <glyph glyph-name="quotereversed" unicode="&#x201b;" horiz-adv-x="218" 
d="M144 589q0 43 18.5 65.5t41.5 22.5q19 0 29.5 -11t10.5 -26q0 -19 -13.5 -32t-32.5 -13q-7 0 -19 3q-4 -23 6.5 -51.5t30.5 -47.5l-28 -20q-44 47 -44 110z" />
    <glyph glyph-name="quotedblleft" unicode="&#x201c;" horiz-adv-x="358" 
d="M267 532q0 41 30 82.5t71 62.5l24 -26q-28 -14 -49.5 -37.5t-28.5 -46.5h7q14 0 24 -10t10 -25q0 -19 -14 -33t-32 -14q-19 0 -30.5 12t-11.5 35zM128 532q0 41 30 82.5t71 62.5l24 -26q-28 -14 -49.5 -37.5t-28.5 -46.5h7q14 0 24 -10t10 -25q0 -19 -14 -33t-32 -14
q-19 0 -30.5 12t-11.5 35z" />
    <glyph glyph-name="quotedblright" unicode="&#x201d;" horiz-adv-x="358" 
d="M241 630q0 -41 -30.5 -82.5t-71.5 -62.5l-24 25q28 15 49.5 38t28.5 46h-7q-14 0 -24 10.5t-10 25.5q0 19 14 33t33 14q18 0 30 -12.5t12 -34.5zM379 630q0 -41 -30 -82.5t-71 -62.5l-24 25q28 15 49.5 38t28.5 46h-7q-14 0 -24 10.5t-10 25.5q0 19 14 33t33 14
q18 0 29.5 -12.5t11.5 -34.5z" />
    <glyph glyph-name="quotedblbase" unicode="&#x201e;" horiz-adv-x="358" 
d="M107 29q0 -41 -30 -82.5t-71 -62.5l-24 26q28 14 49.5 37.5t28.5 46.5h-7q-14 0 -24 10t-10 25q0 19 14 33t32 14q19 0 30.5 -12t11.5 -35zM246 29q0 -41 -30 -82.5t-71 -62.5l-24 26q28 14 49.5 37.5t27.5 46.5h-6q-14 0 -24 10t-10 25q0 19 14 33t32 14q19 0 30.5 -12
t11.5 -35z" />
    <glyph glyph-name="dagger" unicode="&#x2020;" horiz-adv-x="257" 
d="M297 535l-88 4l-43 -212h-39l51 212l-90 -4l8 35l88 -3l21 110h39l-29 -110l90 3z" />
    <glyph glyph-name="daggerdbl" unicode="&#x2021;" horiz-adv-x="257" 
d="M305 570l-8 -35l-88 4l-49 -221l90 4l-8 -35l-88 3l-21 -110h-39l29 110l-90 -3l8 35l88 -4l49 221l-90 -4l8 35l88 -3l21 110h39l-29 -110z" />
    <glyph glyph-name="bullet" unicode="&#x2022;" horiz-adv-x="358" 
d="M283 252q0 -45 -35 -78t-80 -33q-40 0 -66 26t-26 66q0 45 34.5 78.5t79.5 33.5q40 0 66.5 -26.5t26.5 -66.5z" />
    <glyph glyph-name="ellipsis" unicode="&#x2026;" horiz-adv-x="655" 
d="M58 -10q-16 0 -27.5 11.5t-11.5 28.5q0 19 13.5 32.5t33.5 13.5q17 0 28.5 -11.5t11.5 -27.5q0 -19 -14 -33t-34 -14zM277 -10q-17 0 -28.5 11.5t-11.5 28.5q0 19 13.5 32.5t33.5 13.5q17 0 28.5 -11t11.5 -28q0 -19 -14 -33t-33 -14zM495 -10q-17 0 -28.5 11.5
t-11.5 28.5q0 19 14 32.5t34 13.5q17 0 28 -11t11 -28q0 -19 -14 -33t-33 -14z" />
    <glyph glyph-name="perthousand" unicode="&#x2030;" horiz-adv-x="948" 
d="M114 0h-40l495 667h42zM432 -12q-56 0 -89 36t-33 91q0 85 48 142.5t111 57.5q56 0 89 -35.5t33 -90.5q0 -85 -48 -143t-111 -58zM433 26q44 0 79 46.5t35 112.5q0 43 -21.5 67.5t-57.5 24.5q-44 0 -78.5 -46.5t-34.5 -112.5q0 -43 21.5 -67.5t56.5 -24.5zM210 350
q-55 0 -88 35.5t-33 90.5q0 85 48 143t111 58q55 0 88.5 -36t33.5 -90q0 -85 -48.5 -143t-111.5 -58zM212 387q44 0 78.5 46.5t34.5 113.5q0 43 -21.5 67.5t-56.5 24.5q-45 0 -79.5 -46.5t-34.5 -112.5q0 -43 21.5 -68t57.5 -25zM738 -12q-55 0 -88.5 36t-33.5 91
q0 85 48.5 142.5t111.5 57.5q55 0 88.5 -36t33.5 -90q0 -85 -48.5 -143t-111.5 -58zM740 26q44 0 78.5 46.5t34.5 112.5q0 43 -21.5 67.5t-56.5 24.5q-45 0 -79.5 -46t-34.5 -113q0 -43 21.5 -67.5t57.5 -24.5z" />
    <glyph glyph-name="guilsinglleft" unicode="&#x2039;" horiz-adv-x="236" 
d="M162 63h-48l-85 180l165 177h54l-168 -181z" />
    <glyph glyph-name="guilsinglright" unicode="&#x203a;" horiz-adv-x="236" 
d="M75 420h48l85 -180l-165 -177h-54l169 182z" />
    <glyph glyph-name="uni203E" unicode="&#x203e;" horiz-adv-x="304" 
d="M376 577h-302l8 37h302z" />
    <glyph glyph-name="fraction" unicode="&#x2044;" horiz-adv-x="119" 
d="M347 667l-496 -667h-41l496 667h41z" />
    <glyph glyph-name="zerosuperior" unicode="&#x2070;" horiz-adv-x="318" 
d="M374 689q0 -38 -10 -83t-29.5 -89t-54.5 -73.5t-78 -29.5q-110 0 -110 138q0 38 10 83t29.5 89t54.5 73.5t78 29.5q110 0 110 -138zM330 694q0 96 -68 96q-31 0 -56.5 -27.5t-40 -67.5t-22 -79t-7.5 -69q0 -96 68 -96q31 0 56.5 27.5t40 67.5t22 79t7.5 69z" />
    <glyph glyph-name="foursuperior" unicode="&#x2074;" horiz-adv-x="318" 
d="M343 528h-49l-23 -107h-43l23 107h-167l8 36l210 257h57l-57 -256h48zM259 565l46 206l-171 -206h125z" />
    <glyph glyph-name="fivesuperior" unicode="&#x2075;" horiz-adv-x="318" 
d="M342 573q0 -64 -40 -111.5t-101 -47.5q-88 0 -119 71l34 23q23 -57 87 -57q41 0 67.5 35.5t26.5 82.5q0 32 -19.5 50t-49.5 18q-43 0 -80 -40l-30 14l47 210h212l-8 -37h-169l-31 -145q30 32 75 32q41 0 69.5 -26t28.5 -72z" />
    <glyph glyph-name="sixsuperior" unicode="&#x2076;" horiz-adv-x="318" 
d="M345 573q0 -59 -36.5 -109t-100.5 -50q-56 0 -84.5 34t-28.5 94q0 61 20 125t62.5 112t96.5 48q74 0 103 -53l-31 -27q-18 43 -73 43q-36 0 -65 -32t-41.5 -67.5t-18.5 -70.5q-2 -6 -2 -9q44 61 101 61q43 0 70.5 -25.5t27.5 -73.5zM300 568q0 67 -70 67q-47 0 -90 -64
q-3 -15 -3 -35q0 -37 19 -61t53 -24q41 0 66 37.5t25 79.5z" />
    <glyph glyph-name="sevensuperior" unicode="&#x2077;" horiz-adv-x="292" 
d="M373 791l-222 -370h-47l220 363h-187l8 37h234z" />
    <glyph glyph-name="eightsuperior" unicode="&#x2078;" horiz-adv-x="318" 
d="M336 531q0 -50 -37 -83.5t-92 -33.5q-54 0 -88.5 25t-34.5 70q0 46 33 79t80 42q-61 30 -61 83q0 52 37 83t86 31q47 0 81.5 -23t34.5 -68q0 -41 -27.5 -72t-77.5 -42q27 -11 46.5 -35.5t19.5 -55.5zM330 731q0 30 -20 45t-51 15q-34 0 -57.5 -23.5t-23.5 -56.5
q0 -27 21 -46t39 -23q37 7 64.5 29t27.5 60zM292 533q0 27 -18 48t-43 29q-42 -4 -72 -31.5t-30 -66.5q0 -27 22 -45t54 -18q34 0 60.5 24t26.5 60z" />
    <glyph glyph-name="ninesuperior" unicode="&#x2079;" horiz-adv-x="318" 
d="M122 669q0 59 36.5 109t100.5 50q56 0 84.5 -34t28.5 -94q0 -61 -20 -125t-62.5 -112t-96.5 -48q-74 0 -103 53l31 27q18 -43 73 -43q52 0 84.5 56t40.5 114q2 6 2 9q-44 -61 -101 -61q-43 0 -70.5 25.5t-27.5 73.5zM167 674q0 -34 18.5 -51t51.5 -17q47 0 90 65
q4 20 4 35q0 37 -19.5 61t-53.5 24q-41 0 -66 -37.5t-25 -79.5z" />
    <glyph glyph-name="parenleftsuperior" unicode="&#x207d;" horiz-adv-x="135" 
d="M150 366l-25 -10q-29 68 -29 157q0 197 146 373l21 -10q-129 -195 -129 -379q0 -76 16 -131z" />
    <glyph glyph-name="parenrightsuperior" unicode="&#x207e;" horiz-adv-x="135" 
d="M157 876l25 10q28 -66 28 -157q0 -198 -145 -373l-21 10q128 196 128 379q0 79 -15 131z" />
    <glyph glyph-name="nsuperior" unicode="&#x207f;" horiz-adv-x="335" 
d="M295 326h-41l49 223q3 12 3 21q0 21 -13.5 32t-36.5 11q-44 0 -90 -57l-50 -230h-42l69 314h42l-10 -46q45 54 98 54q37 0 56.5 -17.5t19.5 -47.5q0 -15 -3 -29z" />
    <glyph glyph-name="zeroinferior" unicode="&#x2080;" horiz-adv-x="318" 
d="M258 122q0 -38 -10 -83t-29.5 -89t-54.5 -73.5t-78 -29.5q-110 0 -110 138q0 38 10 83t29.5 89t54.5 73.5t78 29.5q110 0 110 -138zM214 127q0 96 -68 96q-31 0 -56.5 -27.5t-40 -67.5t-22 -79t-7.5 -69q0 -96 68 -96q31 0 56.5 27.5t40 67.5t22 79t7.5 69z" />
    <glyph glyph-name="oneinferior" unicode="&#x2081;" horiz-adv-x="208" 
d="M64 -146h-44l74 338l-74 -64l-22 29l115 97h39z" />
    <glyph glyph-name="twoinferior" unicode="&#x2082;" horiz-adv-x="318" 
d="M194 -146h-238l8 36q155 129 189 163q62 62 62 109q0 30 -21 45.5t-50 15.5q-56 0 -94 -49l-24 29q49 57 119 57q47 0 81 -24.5t34 -71.5q0 -61 -86 -143q-28 -27 -151 -130h178z" />
    <glyph glyph-name="threeinferior" unicode="&#x2083;" horiz-adv-x="318" 
d="M221 -27q0 -47 -35.5 -86.5t-93.5 -39.5q-45 0 -78.5 19t-47.5 53l33 23q27 -58 92 -58q40 0 62.5 29.5t22.5 67.5q0 28 -21.5 44.5t-54.5 16.5q-21 0 -27 -1l8 38q20 -2 44 -2q38 0 63 23t25 62q0 27 -21 44t-53 17q-48 0 -92 -46l-22 27q49 56 117 56q51 0 83 -24
t32 -69q0 -42 -27.5 -73.5t-71.5 -37.5q27 -6 45 -28.5t18 -54.5z" />
    <glyph glyph-name="fourinferior" unicode="&#x2084;" horiz-adv-x="318" 
d="M227 -39h-49l-23 -107h-43l23 107h-167l8 36l210 257h57l-57 -256h48zM143 -2l46 206l-171 -206h125z" />
    <glyph glyph-name="fiveinferior" unicode="&#x2085;" horiz-adv-x="318" 
d="M226 6q0 -64 -40 -111.5t-101 -47.5q-88 0 -119 71l34 23q23 -57 87 -57q41 0 67.5 35.5t26.5 82.5q0 32 -19.5 50t-49.5 18q-43 0 -80 -40l-30 14l47 210h212l-8 -37h-169l-31 -145q30 32 75 32q41 0 69.5 -26t28.5 -72z" />
    <glyph glyph-name="sixinferior" unicode="&#x2086;" horiz-adv-x="318" 
d="M229 6q0 -59 -36.5 -109t-100.5 -50q-56 0 -84.5 34t-28.5 94q0 61 20 125t62.5 112t96.5 48q74 0 103 -53l-31 -27q-18 43 -73 43q-36 0 -65 -32t-41.5 -67.5t-18.5 -70.5q-2 -6 -2 -9q44 61 101 61q43 0 70.5 -25.5t27.5 -73.5zM184 1q0 67 -70 67q-47 0 -90 -64
q-3 -15 -3 -35q0 -37 19 -61t53 -24q41 0 66 37.5t25 79.5z" />
    <glyph glyph-name="seveninferior" unicode="&#x2087;" horiz-adv-x="292" 
d="M257 224l-222 -370h-47l220 363h-187l8 37h234z" />
    <glyph glyph-name="eightinferior" unicode="&#x2088;" horiz-adv-x="318" 
d="M220 -36q0 -50 -37 -83.5t-92 -33.5q-54 0 -88.5 25t-34.5 70q0 46 33 79t80 42q-61 30 -61 83q0 52 37 83t86 31q47 0 81.5 -23t34.5 -68q0 -41 -27.5 -72t-77.5 -42q27 -11 46.5 -35.5t19.5 -55.5zM214 164q0 30 -20 45t-51 15q-34 0 -57.5 -23.5t-23.5 -56.5
q0 -27 21 -46t39 -23q37 7 64.5 29t27.5 60zM176 -34q0 27 -18 48t-43 29q-42 -4 -72 -31.5t-30 -66.5q0 -27 22 -45t54 -18q34 0 60.5 24t26.5 60z" />
    <glyph glyph-name="nineinferior" unicode="&#x2089;" horiz-adv-x="318" 
d="M6 102q0 59 36.5 109t100.5 50q56 0 84.5 -34t28.5 -94q0 -61 -20 -125t-62.5 -112t-96.5 -48q-74 0 -103 53l31 27q18 -43 73 -43q52 0 84.5 56t40.5 114q2 6 2 9q-44 -61 -101 -61q-43 0 -70.5 25.5t-27.5 73.5zM51 107q0 -34 18.5 -51t51.5 -17q47 0 90 65q4 20 4 35
q0 37 -19.5 61t-53.5 24q-41 0 -66 -37.5t-25 -79.5z" />
    <glyph glyph-name="parenleftinferior" unicode="&#x208d;" horiz-adv-x="135" 
d="M25 -201l-25 -10q-29 68 -29 157q0 197 146 373l21 -10q-129 -195 -129 -379q0 -76 16 -131z" />
    <glyph glyph-name="parenrightinferior" unicode="&#x208e;" horiz-adv-x="135" 
d="M32 309l25 10q28 -66 28 -157q0 -198 -145 -373l-21 10q128 196 128 379q0 79 -15 131z" />
    <glyph glyph-name="colonmonetary" unicode="&#x20a1;" horiz-adv-x="508" 
d="M262 -12q-23 0 -50 5l-46 -93h-42l51 104q-30 12 -51 31l-66 -135h-41l81 164q-46 62 -46 158q0 106 38.5 210t111 175t158.5 71q20 0 39 -3l46 93h41l-51 -104q26 -10 51 -31l67 135h41l-81 -163q22 -30 36 -68l-53 -17q-2 3 -5.5 12.5t-5.5 13.5l-249 -505q18 -2 30 -2
q73 0 143 81l42 -29q-81 -103 -189 -103zM111 222q0 -59 17 -97l247 501q-3 0 -10 0.5t-10 0.5q-65 0 -122.5 -64t-89.5 -157t-32 -184zM150 88q19 -23 49 -36l262 530q-19 22 -50 35z" />
    <glyph glyph-name="frenchfranc" unicode="&#x20a3;" horiz-adv-x="456" 
d="M92 0h-56l33 150h-73l8 37h73l106 480h326l-11 -50h-270l-55 -250h263l-12 -50h-263l-29 -130h166l-8 -37h-166z" />
    <glyph glyph-name="lira" unicode="&#x20a4;" horiz-adv-x="433" 
d="M42 325l8 38h68q-21 44 -21 86q0 91 61 159.5t144 68.5q59 0 103 -30.5t54 -81.5l-50 -20q-7 37 -35.5 60.5t-70.5 23.5q-58 0 -102 -52t-44 -131q0 -37 21 -83h148l-9 -38h-121q15 -39 15 -68q0 -2 -0.5 -5.5t-0.5 -4.5h90l-8 -37h-88q-13 -44 -42.5 -82.5t-62.5 -59.5
q24 9 41 9q29 0 71.5 -19.5t64.5 -19.5q47 0 82 39l15 -45q-47 -45 -103 -45q-40 0 -85 22t-77 22q-38 0 -96 -38l-13 45q55 25 98 72.5t56 99.5h-137l8 37h134q-1 36 -22 78h-94z" />
    <glyph glyph-name="uni20A6" unicode="&#x20a6;" horiz-adv-x="587" 
d="M443 0h-54l-78 247h-165l-54 -247h-56l54 247h-73l9 36h72l24 108h-72l7 37h73l53 239h56l76 -239h166l53 239h56l-53 -239h70l-7 -37h-71l-24 -108h71l-8 -36h-71zM327 391l34 -108h88l24 108h-146zM178 391l-24 -108h145l-34 108h-87zM214 555l-28 -127h68zM373 247
l40 -126l28 126h-68z" />
    <glyph glyph-name="peseta" unicode="&#x20a7;" horiz-adv-x="523" 
d="M92 0h-56l100 453h-73l9 39h72l39 175h173q63 0 104 -44.5t41 -111.5q0 -13 -1 -19h69l-9 -39h-66q-16 -75 -71 -125t-144 -50h-126zM287 328q58 1 96 35.5t52 89.5h-244l-27 -125h123zM228 617l-28 -125h241q1 5 1 16q0 49 -28 79t-71 30h-115z" />
    <glyph glyph-name="rupee" unicode="&#x20a8;" horiz-adv-x="819" 
d="M594 -12q-108 0 -154 75l35 33q17 -28 49 -46.5t72 -18.5q47 0 77.5 29t30.5 69q0 27 -20 49.5t-48 39l-56 34.5t-48 44.5t-20 59.5q0 58 41.5 98.5t111.5 40.5q45 0 83.5 -19t56.5 -49l-33 -32q-13 25 -43.5 41t-66.5 16q-44 0 -71.5 -24.5t-27.5 -61.5q0 -25 20 -46
t48 -37.5t56 -35t48 -46t20 -61.5q0 -63 -44.5 -107.5t-116.5 -44.5zM387 0h-60l-79 278h-110l-61 -278h-56l147 667h167q63 0 107.5 -43t44.5 -112q0 -91 -51.5 -155t-132.5 -74zM149 328h123q73 0 114 54t41 127q0 49 -28.5 78.5t-69.5 29.5h-116z" />
    <glyph glyph-name="uni20A9" unicode="&#x20a9;" horiz-adv-x="707" 
d="M479 0h-61l2 247h-132l-107 -247h-61v247h-94l9 36h85v108h-61l7 37h54v239h59l-4 -239h141l104 239h51l-3 -239h142l102 239h61l-105 -239h50l-7 -37h-60l-47 -108h83l-8 -36h-91zM174 391l-1 -108h81l46 108h-126zM467 283h81l46 108h-126zM350 391l-47 -108h118l1 108
h-72zM238 247h-66l-2 -158zM466 247l-1 -158l67 158h-66zM424 562l-58 -134h56z" />
    <glyph glyph-name="afii57636" unicode="&#x20aa;" horiz-adv-x="640" 
d="M375 0h-209l87 395h48l-78 -351h151q55 0 86 32.5t47 104.5l82 369h48l-81 -365q-21 -93 -62.5 -139t-118.5 -46zM138 550h158q70 0 113 -32.5t43 -99.5q0 -26 -9 -67l-42 -197h-49l46 207q6 22 6 47q0 49 -29.5 73.5t-79.5 24.5h-119l-111 -506h-48z" />
    <glyph glyph-name="dong" unicode="&#x20ab;" horiz-adv-x="478" 
d="M306 -130h-302l8 37h302zM255 495q43 0 77.5 -23.5t51.5 -65.5l29 132h-152l7 37h153l21 92h50l-21 -92h51l-6 -37h-53l-119 -538h-50l15 69q-53 -81 -133 -81q-64 0 -102 44.5t-38 123.5q0 74 25 150t77 132.5t117 56.5zM260 450q-50 0 -90.5 -50t-60 -115t-19.5 -123
q0 -62 27 -95.5t76 -33.5q36 0 71.5 27t57.5 65l52 235q-11 38 -42 64t-72 26z" />
    <glyph glyph-name="Euro" unicode="&#x20ac;" horiz-adv-x="537" 
d="M282 -12q-95 0 -152.5 62t-57.5 172v20h-47l9 41h41q6 51 21 102h-39l9 41h43q40 110 111.5 181t159.5 71q70 0 118.5 -37.5t70.5 -103.5l-53 -17q-38 107 -141 107q-62 0 -115.5 -56t-88.5 -145h231l-9 -41h-236q-16 -49 -22 -102h235l-9 -41h-230v-20q0 -87 41 -135
t114 -48t143 81l42 -29q-81 -103 -189 -103z" />
    <glyph glyph-name="afii61289" unicode="&#x2113;" horiz-adv-x="403" 
d="M189 523l-39 -172l146 98q53 37 77 62t24 55t-25.5 50.5t-61.5 20.5q-95 0 -121 -114zM317 415l-180 -123l-44 -198q-3 -14 -3 -25q0 -38 40 -38q24 0 42 18l12 -37q-25 -24 -64 -24q-37 0 -59.5 17.5t-22.5 50.5q0 16 3 34l97 435q34 152 175 152q54 0 94 -29t40 -76
q0 -22 -9 -42t-30 -41t-39 -35z" />
    <glyph glyph-name="afii61352" unicode="&#x2116;" horiz-adv-x="900" 
d="M759 350q-55 0 -85.5 33.5t-30.5 91.5q0 73 44.5 139t113.5 66q55 0 86 -33.5t31 -91.5q0 -73 -45 -139t-114 -66zM760 386q51 0 83 56.5t32 113.5q0 40 -20 63.5t-55 23.5q-51 0 -82.5 -55.5t-31.5 -113.5q0 -41 20 -64.5t54 -23.5zM428 0h-54l-175 555l-122 -555h-56
l147 667h56l174 -546l121 546h56z" />
    <glyph glyph-name="published" unicode="&#x2117;" horiz-adv-x="778" 
d="M754 334q0 -142 -101.5 -243.5t-244.5 -101.5q-142 0 -243 101t-101 244t101 244t243 101q143 0 244.5 -101.5t101.5 -243.5zM726 334q0 130 -93.5 223.5t-224.5 93.5q-130 0 -223 -93t-93 -224t93 -224t223 -93q131 0 224.5 93.5t93.5 223.5zM589 435q0 -56 -41 -92
t-102 -36h-123l-38 -176h-33l89 405h128q52 0 86 -28t34 -73zM556 432q0 33 -25.5 52.5t-66.5 19.5h-97l-36 -165h121q47 0 75.5 26t28.5 67z" />
    <glyph glyph-name="servicemark" unicode="&#x2120;" horiz-adv-x="425" 
d="M433 447h-28l40 182l-105 -182h-8l-25 182l-40 -182h-28l48 220h42l20 -158l88 158h44zM214 512q0 -30 -21.5 -51t-54.5 -21q-51 0 -73 32l20 21q18 -26 53 -26q18 0 31 12t13 28q0 17 -20.5 31l-41 29t-20.5 37q0 29 20.5 49t52.5 20q46 0 65 -26l-20 -21q-15 22 -47 22
q-17 0 -28 -10.5t-11 -26.5q0 -12 13 -23.5t28 -19.5t28 -22.5t13 -33.5z" />
    <glyph glyph-name="trademark" unicode="&#x2122;" horiz-adv-x="414" 
d="M424 447h-28l40 182l-105 -182h-8l-25 182l-40 -182h-28l48 220h43l20 -158l88 158h43zM237 641h-52l-43 -194h-28l43 194h-52l5 26h132z" />
    <glyph glyph-name="Omega" unicode="&#x2126;" horiz-adv-x="581" 
d="M19 50h117q-79 71 -79 198q0 66 21.5 140t58.5 139.5t95.5 108t125.5 42.5q96 0 153 -59.5t57 -173.5q0 -133 -57 -238.5t-136 -156.5h100l-10 -50h-172l11 50q83 35 143.5 155t60.5 238q0 88 -40 135.5t-111 47.5q-70 0 -128.5 -67t-88 -157t-29.5 -172q0 -122 80 -180
l-11 -50h-172z" />
    </font>
</defs>
</svg>
